<?xml version="1.0" ?>
<svg xmlns="http://www.w3.org/2000/svg" width="512" height="512">
<path style="fill:#00137f; stroke:none;" d="M5.22839 2.74229C-1.03128 5.66639 2 24.1526 2 30L2 98C2 104.453 -0.577935 118.108 3.17901 123.566C6.91876 129 25.0365 126 31 126L97 126C103.809 126 116.887 128.504 122.852 124.972C128.991 121.337 126 104.21 126 98L126 29C126 22.8718 128.533 9.22708 124.397 4.3179C119.973 -0.932022 103.334 2 97 2L32 2C24.5891 2 12.0037 -0.422684 5.22839 2.74229z"/>
<path style="fill:#ffffff; stroke:none;" d="M12 41L12 87C18.3641 86.5042 17.9958 82.4722 18 77L109 77L109 87L116 87L116 53L110 53L110 69L18 69L18 41L12 41M26.1481 53.0471C20.2261 56.2534 24.6518 66.1137 30.9414 62.9529C37.7061 59.5533 32.3306 49.6997 26.1481 53.0471z"/>
<path style="fill:#00137f; stroke:none;" d="M52 52L52 53L58 53L52 52z"/>
<path style="fill:#00137f; stroke:none;" d="M81 52L81 53L87 53L81 52z"/>
<path style="fill:#ffffff; stroke:none;" d="M41 63L104 63C102.466 59.5235 100.726 56.3674 96.9846 54.8935C85.5074 50.3716 61.8611 50.8798 50.0008 53.848C44.9733 55.1062 42.1841 58.0614 41 63z"/>
<path style="fill:#00137f; stroke:none;" d="M41 63L41 64L104 64L84 63L41 63z"/>
<path style="fill:#00137f; stroke:none;" d="M18 78C17.9408 83.0065 17.4057 86.1379 12 87L12 88C18.2832 87.7937 20.4804 83.9133 18 78z"/>
<path style="fill:#00137f; stroke:none;" d="M108 78L108 87L109 87L108 78z"/>
</svg>
