<?xml version="1.0" encoding="UTF-8" standalone="no"?>
<svg
   xmlns:dc="http://purl.org/dc/elements/1.1/"
   xmlns:cc="http://creativecommons.org/ns#"
   xmlns:rdf="http://www.w3.org/1999/02/22-rdf-syntax-ns#"
   xmlns:svg="http://www.w3.org/2000/svg"
   xmlns="http://www.w3.org/2000/svg"
   xmlns:sodipodi="http://sodipodi.sourceforge.net/DTD/sodipodi-0.dtd"
   xmlns:inkscape="http://www.inkscape.org/namespaces/inkscape"
   width="30.159294mm"
   height="26.118715mm"
   viewBox="0 0 30.159294 26.118715"
   version="1.1"
   id="svg1063"
   inkscape:version="1.0.1 (3bc2e813f5, 2020-09-07)"
   sodipodi:docname="tnapprove.svg">
  <defs
     id="defs1057" />
  <sodipodi:namedview
     id="base"
     pagecolor="#ffffff"
     bordercolor="#666666"
     borderopacity="1.0"
     inkscape:pageopacity="0.0"
     inkscape:pageshadow="2"
     inkscape:zoom="1.6612946"
     inkscape:cx="70.018792"
     inkscape:cy="50.870899"
     inkscape:document-units="mm"
     inkscape:current-layer="layer1"
     inkscape:document-rotation="0"
     showgrid="false"
     inkscape:window-width="1333"
     inkscape:window-height="900"
     inkscape:window-x="1665"
     inkscape:window-y="2"
     inkscape:window-maximized="0" />
  <metadata
     id="metadata1060">
    <rdf:RDF>
      <cc:Work
         rdf:about="">
        <dc:format>image/svg+xml</dc:format>
        <dc:type
           rdf:resource="http://purl.org/dc/dcmitype/StillImage" />
        <dc:title></dc:title>
      </cc:Work>
    </rdf:RDF>
  </metadata>
  <g
     inkscape:label="Layer 1"
     inkscape:groupmode="layer"
     id="layer1"
     transform="translate(-9.2454513,-76.132667)">
    <g
       id="g1669">
      <path
         sodipodi:type="star"
         style="fill:none;fill-opacity:1;fill-rule:evenodd;stroke:#8cc800;stroke-width:1;stroke-miterlimit:4;stroke-dasharray:none;stroke-opacity:1"
         id="path927-9-3-6-4-4-7"
         sodipodi:sides="6"
         sodipodi:cx="24.325098"
         sodipodi:cy="89.192024"
         sodipodi:r1="14.502296"
         sodipodi:r2="12.559356"
         sodipodi:arg1="1.0471976"
         sodipodi:arg2="1.5707963"
         inkscape:flatsided="true"
         inkscape:rounded="0"
         inkscape:randomized="0"
         d="m 31.576246,101.75138 -14.502297,0 -7.2511474,-12.559356 7.2511484,-12.559357 14.502297,0 7.251147,12.559358 z" />
      <g
         id="g1103"
         style="fill:#00aa88"
         transform="translate(-72.780624,-2.4965992)">
        <path
           d="m 98.731551,88.181128 h 0.186187 v -3.36776 l 3.008882,3.16609 h -3.195069 v 0.20167 h 0.186187 -0.186187 v 0.20043 h 3.652499 c 0.077,0 0.14481,-0.0495 0.17354,-0.12496 0.0288,-0.0754 0.0115,-0.16208 -0.0425,-0.22022 l -3.653643,-3.84411 c -0.05286,-0.0569 -0.133323,-0.073 -0.202281,-0.0421 -0.06896,0.0309 -0.113782,0.10517 -0.113782,0.18559 v 3.84534 c 0,0.0519 0.01954,0.10392 0.05402,0.14228 0.03448,0.0371 0.08275,0.0581 0.132167,0.0581 v -0.20043"
           style="fill:#00aa88;fill-opacity:1;fill-rule:nonzero;stroke:none;stroke-width:0.0119246"
           id="path2575" />
        <path
           d="m 102.57138,89.851408 v -1.67028 c 0,-0.0544 -0.0207,-0.1064 -0.0563,-0.14475 l -3.653641,-3.84411 c -0.03448,-0.0371 -0.0816,-0.0581 -0.129875,-0.0581 h -6.286702 c -0.143666,0 -0.275834,0.0618 -0.371229,0.16208 -0.09424,0.10021 -0.155156,0.24249 -0.155156,0.39715 v 14.03895 c 0,0.15466 0.06091,0.29694 0.155156,0.39592 0.09539,0.10146 0.227563,0.16332 0.371229,0.16332 h 9.600148 c 0.14367,0 0.27583,-0.0619 0.37008,-0.16332 0.0954,-0.099 0.15631,-0.24126 0.15631,-0.39592 v -1.648 c 0,-0.11135 -0.0839,-0.20167 -0.18734,-0.20167 -0.10229,0 -0.18618,0.0903 -0.18618,0.20167 v 1.648 c 0,0.0421 -0.0161,0.0792 -0.0437,0.10888 -0.0276,0.0297 -0.0655,0.0482 -0.10919,0.0482 h -9.60018 c -0.04368,0 -0.0816,-0.0186 -0.109188,-0.0482 -0.02758,-0.0297 -0.04366,-0.0668 -0.04366,-0.10888 v -14.03895 c 0,-0.0433 0.01608,-0.0804 0.04366,-0.10888 0.02758,-0.0297 0.06551,-0.0482 0.109188,-0.0482 h 6.210847 l 3.542163,3.72905 v 1.58614 c 0,0.11135 0.0839,0.20043 0.18619,0.20043 0.10344,0 0.18733,-0.0891 0.18733,-0.20043"
           style="fill:#00aa88;fill-opacity:1;fill-rule:nonzero;stroke:none;stroke-width:0.0119246"
           id="path2577" />
        <path
           d="m 98.851081,96.398868 h -5.290253 c -0.102291,0 -0.186188,0.0903 -0.186188,0.20167 0,0.11012 0.0839,0.20044 0.186188,0.20044 h 5.290253 c 0.103438,0 0.187334,-0.0903 0.187334,-0.20044 0,-0.11135 -0.0839,-0.20167 -0.187334,-0.20167"
           style="fill:#00aa88;fill-opacity:1;fill-rule:nonzero;stroke:none;stroke-width:0.0119246"
           id="path2579" />
        <path
           d="m 97.617873,94.769428 h -4.057045 c -0.102291,0 -0.186188,0.0903 -0.186188,0.20167 0,0.11135 0.0839,0.20043 0.186188,0.20043 h 4.057045 c 0.103437,0 0.186187,-0.0891 0.186187,-0.20043 0,-0.11135 -0.08275,-0.20167 -0.186187,-0.20167"
           style="fill:#00aa88;fill-opacity:1;fill-rule:nonzero;stroke:none;stroke-width:0.0119246"
           id="path2581" />
        <path
           d="m 97.391465,93.141218 h -3.830637 c -0.102291,0 -0.186188,0.0891 -0.186188,0.20044 0,0.11135 0.0839,0.20167 0.186188,0.20167 h 3.830637 c 0.103437,0 0.186188,-0.0903 0.186188,-0.20167 0,-0.11135 -0.08275,-0.20044 -0.186188,-0.20044"
           style="fill:#00aa88;fill-opacity:1;fill-rule:nonzero;stroke:none;stroke-width:0.0119246"
           id="path2583" />
        <path
           d="m 97.775331,91.511778 h -4.214503 c -0.102291,0 -0.186188,0.0903 -0.186188,0.20167 0,0.11011 0.0839,0.20043 0.186188,0.20043 h 4.214503 c 0.103437,0 0.187334,-0.0903 0.187334,-0.20043 0,-0.11136 -0.0839,-0.20167 -0.187334,-0.20167"
           style="fill:#00aa88;fill-opacity:1;fill-rule:nonzero;stroke:none;stroke-width:0.0119246"
           id="path2585" />
        <path
           d="m 99.206217,89.882328 h -5.645389 c -0.102291,0 -0.186188,0.0903 -0.186188,0.20168 0,0.11011 0.0839,0.20043 0.186188,0.20043 h 5.645389 c 0.103437,0 0.187334,-0.0903 0.187334,-0.20043 0,-0.11136 -0.0839,-0.20168 -0.187334,-0.20168"
           style="fill:#00aa88;fill-opacity:1;fill-rule:nonzero;stroke:none;stroke-width:0.0119246"
           id="path2587" />
        <path
           d="m 97.87532,88.252888 h -4.314492 c -0.102291,0 -0.186188,0.0903 -0.186188,0.20168 0,0.11134 0.0839,0.20043 0.186188,0.20043 h 4.314492 c 0.102292,0 0.186188,-0.0891 0.186188,-0.20043 0,-0.11136 -0.0839,-0.20168 -0.186188,-0.20168"
           style="fill:#00aa88;fill-opacity:1;fill-rule:nonzero;stroke:none;stroke-width:0.0119246"
           id="path2589" />
        <path
           d="m 97.702924,86.624678 h -4.142096 c -0.102291,0 -0.186188,0.0903 -0.186188,0.20043 0,0.11136 0.0839,0.20167 0.186188,0.20167 h 4.142096 c 0.103438,0 0.187334,-0.0903 0.187334,-0.20167 0,-0.11011 -0.0839,-0.20043 -0.187334,-0.20043"
           style="fill:#00aa88;fill-opacity:1;fill-rule:nonzero;stroke:none;stroke-width:0.0119246"
           id="path2591" />
        <path
           d="m 104.64243,93.467858 h -0.18734 c 0,1.02319 -0.38386,1.94741 -1.00679,2.618 -0.62292,0.67058 -1.48261,1.08506 -2.43308,1.08506 -0.94933,0 -1.809003,-0.41448 -2.43193,-1.08506 -0.622918,-0.67059 -1.006792,-1.59481 -1.006792,-2.618 0,-1.0232 0.383874,-1.94742 1.006792,-2.618 0.622927,-0.67058 1.4826,-1.08506 2.43193,-1.08506 0.95047,0 1.81016,0.41448 2.43308,1.08506 0.62293,0.67058 1.00679,1.5948 1.00679,2.618 h 0.18734 0.1862 c 0,-2.26787 -1.70673,-4.10516 -3.81341,-4.10516 -2.105524,0 -3.812244,1.83729 -3.812244,4.10516 0,2.26662 1.70672,4.10392 3.812244,4.10392 2.10668,0 3.81341,-1.8373 3.81341,-4.10392 h -0.1862"
           style="fill:#00aa88;fill-opacity:1;fill-rule:nonzero;stroke:none;stroke-width:0.0119246"
           id="path2593" />
        <path
           d="m 103.66322,92.354338 0.14021,-0.13239 -0.84588,-1.04051 c -0.0356,-0.0433 -0.0862,-0.068 -0.14022,-0.068 -0.054,0 -0.10459,0.0247 -0.14021,0.068 l -2.01358,2.47447 -1.081499,-1.32879 c -0.03562,-0.0433 -0.0862,-0.068 -0.140219,-0.068 -0.05402,0 -0.104584,0.0247 -0.14021,0.068 l -0.845895,1.04052 c -0.06206,0.0755 -0.06206,0.18929 0,0.26476 l 2.067603,2.54129 c 0.0356,0.0433 0.0862,0.068 0.14022,0.068 0.054,0 0.10458,-0.0247 0.1402,-0.068 l 0.84591,-1.04051 2.15378,-2.64646 c 0.0621,-0.0767 0.0621,-0.1893 0,-0.26477 l -0.14021,0.13239 -0.14021,-0.13239 -2.1538,2.64646 -0.70567,0.8673 -1.819355,-2.23568 0.597637,-0.73493 1.081498,1.3288 c 0.0356,0.0433 0.0862,0.068 0.14022,0.068 0.054,0 0.10458,-0.0247 0.1402,-0.068 l 2.01359,-2.47448 0.70568,0.8673 0.14021,-0.13238 -0.14021,-0.13239 0.14021,0.13239"
           style="fill:#00aa88;fill-opacity:1;fill-rule:nonzero;stroke:none;stroke-width:0.0119246"
           id="path2595" />
      </g>
    </g>
  </g>
</svg>
