<?xml version="1.0" encoding="UTF-8" standalone="no"?>
<svg
   xmlns:dc="http://purl.org/dc/elements/1.1/"
   xmlns:cc="http://creativecommons.org/ns#"
   xmlns:rdf="http://www.w3.org/1999/02/22-rdf-syntax-ns#"
   xmlns:svg="http://www.w3.org/2000/svg"
   xmlns="http://www.w3.org/2000/svg"
   xmlns:sodipodi="http://sodipodi.sourceforge.net/DTD/sodipodi-0.dtd"
   xmlns:inkscape="http://www.inkscape.org/namespaces/inkscape"
   width="30.159294mm"
   height="26.118715mm"
   viewBox="0 0 30.159294 26.118715"
   version="1.1"
   id="svg1177"
   inkscape:version="1.0.1 (3bc2e813f5, 2020-09-07)"
   sodipodi:docname="tnemul.svg">
  <defs
     id="defs1171" />
  <sodipodi:namedview
     id="base"
     pagecolor="#ffffff"
     bordercolor="#666666"
     borderopacity="1.0"
     inkscape:pageopacity="0.0"
     inkscape:pageshadow="2"
     inkscape:zoom="2.8"
     inkscape:cx="164.50051"
     inkscape:cy="108.05882"
     inkscape:document-units="mm"
     inkscape:current-layer="layer1"
     inkscape:document-rotation="0"
     showgrid="false"
     inkscape:window-width="1920"
     inkscape:window-height="1018"
     inkscape:window-x="-8"
     inkscape:window-y="-8"
     inkscape:window-maximized="1" />
  <metadata
     id="metadata1174">
    <rdf:RDF>
      <cc:Work
         rdf:about="">
        <dc:format>image/svg+xml</dc:format>
        <dc:type
           rdf:resource="http://purl.org/dc/dcmitype/StillImage" />
        <dc:title></dc:title>
      </cc:Work>
    </rdf:RDF>
  </metadata>
  <g
     inkscape:label="Слой 1"
     inkscape:groupmode="layer"
     id="layer1"
     transform="translate(474.6987,156.69031)">
    <g
       id="g1246">
      <path
         sodipodi:type="star"
         style="fill:none;fill-opacity:1;fill-rule:evenodd;stroke:#8cc800;stroke-width:1;stroke-miterlimit:4;stroke-dasharray:none;stroke-opacity:1"
         id="path927-9-3-6-4-4-7-2"
         sodipodi:sides="6"
         sodipodi:cx="-459.61905"
         sodipodi:cy="-143.63095"
         sodipodi:r1="14.502296"
         sodipodi:r2="12.559356"
         sodipodi:arg1="1.0471976"
         sodipodi:arg2="1.5707963"
         inkscape:flatsided="true"
         inkscape:rounded="0"
         inkscape:randomized="0"
         d="m -452.3679,-131.07159 -14.5023,0 -7.25115,-12.55936 7.25115,-12.55936 14.5023,0 7.25115,12.55936 z" />
      <g
         id="g302"
         transform="matrix(0.31998523,0,0,0.31998523,-509.68668,-210.32327)"
         style="fill:#ffd700;fill-opacity:1">
        <path
           d="m 177.78831,227.05552 v -0.58563 h -42.85579 v -29.91202 h 42.27159 v 30.49765 h 0.5842 v -0.58563 0.58563 h 0.5842 v -31.08325 c 0,-0.15171 -0.0624,-0.3034 -0.17108,-0.41275 -0.10867,-0.10938 -0.25929,-0.16933 -0.41312,-0.16933 h -43.43999 c -0.15381,0 -0.30445,0.0599 -0.4131,0.16933 -0.10901,0.10935 -0.1711,0.26104 -0.1711,0.41275 v 31.08325 c 0,0.15169 0.0621,0.30337 0.1711,0.41275 0.10865,0.10935 0.25929,0.16934 0.4131,0.16934 h 43.43999 c 0.15383,0 0.30445,-0.06 0.41312,-0.16934 0.10863,-0.10938 0.17108,-0.26106 0.17108,-0.41275 h -0.5842"
           style="fill:#ffd700;fill-opacity:1;fill-rule:nonzero;stroke:none;stroke-width:0.0352777"
           id="path2753" />
        <path
           d="m 177.50399,191.20623 -0.067,-0.58209 -42.57497,4.89657 -0.36583,-3.18207 41.99465,-4.82952 0.43251,3.76415 0.58069,-0.067 -0.067,-0.58209 0.067,0.58209 0.58031,-0.067 -0.49954,-4.34269 c -0.0367,-0.32104 -0.32668,-0.55033 -0.64698,-0.51506 l -43.15567,4.96358 c -0.32067,0.0388 -0.55068,0.32808 -0.51364,0.6491 l 0.49953,4.34272 c 0.0173,0.15168 0.0967,0.29278 0.21696,0.38803 0.12065,0.0988 0.27729,0.14113 0.43004,0.12348 l 43.15566,-4.96358 c 0.15274,-0.0177 0.29528,-0.0952 0.39087,-0.21518 0.0956,-0.11997 0.14041,-0.27872 0.12277,-0.4304 l -0.58031,0.067"
           style="fill:#ffd700;fill-opacity:1;fill-rule:nonzero;stroke:none;stroke-width:0.0352777"
           id="path2755" />
        <path
           d="m 137.71347,195.73944 -0.0667,-0.57857 -1.88313,0.21519 2.73473,-3.49602 1.64006,-0.1905 -2.88536,3.69007 0.46037,0.35983 -0.0667,-0.57857 0.0667,0.57857 0.46038,0.35983 3.74544,-4.78721 c 0.14534,-0.18695 0.16474,-0.44095 0.0494,-0.64558 -0.11572,-0.20812 -0.34185,-0.32454 -0.57644,-0.29634 l -3.27025,0.37748 c -0.15523,0.0177 -0.29739,0.0952 -0.3937,0.21874 l -3.74544,4.7907 c -0.14535,0.18346 -0.16475,0.43746 -0.0494,0.64558 0.11571,0.20463 0.34184,0.32105 0.57644,0.29282 l 3.27025,-0.37394 c 0.15522,-0.0177 0.29739,-0.0988 0.3937,-0.22225 l -0.46038,-0.35983"
           style="fill:#ffd700;fill-opacity:1;fill-rule:nonzero;stroke:none;stroke-width:0.0352777"
           id="path2757" />
        <path
           d="m 143.63767,195.05856 -0.0667,-0.57854 -1.88313,0.21519 2.73473,-3.49602 1.64007,-0.1905 -2.88537,3.69004 0.46037,0.35983 -0.0667,-0.57854 0.0667,0.57854 0.46038,0.35983 3.74544,-4.7907 c 0.14535,-0.18346 0.16475,-0.43746 0.0494,-0.64558 -0.11571,-0.20463 -0.34184,-0.32105 -0.57644,-0.29282 l -3.27025,0.37394 c -0.15522,0.0212 -0.29739,0.0988 -0.3937,0.22225 l -3.74508,4.79073 c -0.1457,0.18343 -0.1651,0.43743 -0.0497,0.64558 0.11571,0.2046 0.34184,0.32102 0.57679,0.29282 l 3.2699,-0.37397 c 0.15522,-0.0177 0.29739,-0.0988 0.3937,-0.22225 l -0.46037,-0.35983"
           style="fill:#ffd700;fill-opacity:1;fill-rule:nonzero;stroke:none;stroke-width:0.0352777"
           id="path2759" />
        <path
           d="m 149.56186,194.37771 -0.0667,-0.58209 -1.88312,0.21874 2.73473,-3.49605 1.64006,-0.1905 -2.88501,3.69006 0.46002,0.35984 -0.0667,-0.58209 0.0667,0.58209 0.46037,0.35983 3.74545,-4.79073 c 0.1457,-0.18344 0.1651,-0.43744 0.0494,-0.64558 -0.11536,-0.20461 -0.34184,-0.32102 -0.57644,-0.29279 l -3.27025,0.37393 c -0.15522,0.0177 -0.29739,0.0988 -0.39335,0.22225 l -3.74544,4.78719 c -0.1457,0.18698 -0.1651,0.44098 -0.0494,0.64558 0.11536,0.20815 0.34149,0.32457 0.57644,0.29634 l 3.27025,-0.37746 c 0.15487,-0.0177 0.29704,-0.0953 0.39335,-0.21873 l -0.46038,-0.35983"
           style="fill:#ffd700;fill-opacity:1;fill-rule:nonzero;stroke:none;stroke-width:0.0352777"
           id="path2761" />
        <path
           d="m 155.48606,193.69686 -0.0667,-0.58209 -1.88277,0.21871 2.73438,-3.49954 1.64006,-0.18698 -2.88502,3.69006 0.46003,0.35984 -0.0667,-0.58209 0.0667,0.58209 0.46037,0.35983 3.74544,-4.79073 c 0.1457,-0.18698 0.16511,-0.43744 0.0494,-0.64559 -0.11536,-0.2046 -0.34149,-0.32101 -0.57644,-0.29281 l -3.27025,0.37396 c -0.15487,0.0177 -0.29739,0.0988 -0.39335,0.22225 l -3.74544,4.78719 c -0.1457,0.18698 -0.1651,0.44098 -0.0494,0.64558 0.11536,0.20815 0.34149,0.32457 0.57644,0.29633 l 3.27025,-0.37748 c 0.15487,-0.0177 0.29739,-0.0952 0.39335,-0.2187 l -0.46038,-0.35983"
           style="fill:#ffd700;fill-opacity:1;fill-rule:nonzero;stroke:none;stroke-width:0.0352777"
           id="path2763" />
        <path
           d="m 161.41061,193.01598 -0.067,-0.58209 -1.88277,0.21873 2.73438,-3.49956 1.64006,-0.18695 -2.88502,3.69003 0.46038,0.35984 -0.067,-0.58209 0.067,0.58209 0.46002,0.35983 3.74544,-4.7907 c 0.1457,-0.18699 0.1651,-0.43747 0.0494,-0.64559 -0.11536,-0.20463 -0.34149,-0.32104 -0.57644,-0.29281 l -3.27025,0.37393 c -0.15487,0.0177 -0.29704,0.0988 -0.39335,0.22225 l -3.74544,4.78722 c -0.14569,0.18695 -0.16474,0.44095 -0.0494,0.64558 0.11536,0.20812 0.34184,0.32102 0.57644,0.29633 l 3.27025,-0.37748 c 0.15487,-0.0177 0.29739,-0.0953 0.39335,-0.21873 l -0.46002,-0.35983"
           style="fill:#ffd700;fill-opacity:1;fill-rule:nonzero;stroke:none;stroke-width:0.0352777"
           id="path2765" />
        <path
           d="m 167.33481,192.33512 -0.0667,-0.58208 -1.88313,0.21519 2.73473,-3.49602 1.64007,-0.18698 -2.88537,3.69006 0.46037,0.35983 -0.0667,-0.58208 0.0667,0.58208 0.46038,0.35984 3.74509,-4.79073 c 0.14569,-0.18696 0.1651,-0.44096 0.0497,-0.64559 -0.11571,-0.2046 -0.34184,-0.32102 -0.57679,-0.29633 l -3.2699,0.37748 c -0.15522,0.0177 -0.29739,0.0988 -0.3937,0.22225 l -3.74544,4.78719 c -0.14534,0.18698 -0.16475,0.44098 -0.0494,0.64558 0.11571,0.20815 0.34184,0.32105 0.57644,0.29633 l 3.27025,-0.37745 c 0.15522,-0.0177 0.29739,-0.0988 0.3937,-0.21873 l -0.46037,-0.35984"
           style="fill:#ffd700;fill-opacity:1;fill-rule:nonzero;stroke:none;stroke-width:0.0352777"
           id="path2767" />
        <path
           d="m 173.259,191.65073 -0.0667,-0.57854 -1.88312,0.21518 2.73473,-3.49601 1.64006,-0.18699 -2.88537,3.68652 0.46038,0.35984 -0.0667,-0.57854 0.0667,0.57854 0.46037,0.35983 3.74545,-4.78719 c 0.14533,-0.18698 0.16473,-0.44098 0.0494,-0.64558 -0.1157,-0.20815 -0.34184,-0.32102 -0.57642,-0.29633 l -3.27026,0.37748 c -0.15522,0.0177 -0.29739,0.0988 -0.3937,0.2187 l -3.74544,4.79073 c -0.14535,0.18699 -0.16475,0.44099 -0.0494,0.64559 0.11571,0.2046 0.34184,0.32102 0.57644,0.29633 l 3.27025,-0.37748 c 0.15522,-0.0177 0.29739,-0.0988 0.3937,-0.22225 l -0.46038,-0.35983"
           style="fill:#ffd700;fill-opacity:1;fill-rule:nonzero;stroke:none;stroke-width:0.0352777"
           id="path2769" />
        <path
           d="m 177.78831,227.05552 v -0.58563 h -42.85579 v -3.2032 h 42.27159 v 3.78883 h 0.5842 v -0.58563 0.58563 h 0.5842 v -4.37446 c 0,-0.15169 -0.0624,-0.30337 -0.17108,-0.41275 -0.10867,-0.10935 -0.25929,-0.16933 -0.41312,-0.16933 h -43.43999 c -0.15381,0 -0.30445,0.06 -0.4131,0.16933 -0.10901,0.10938 -0.1711,0.26106 -0.1711,0.41275 v 4.37446 c 0,0.15169 0.0621,0.30337 0.1711,0.41275 0.10865,0.10935 0.25929,0.16934 0.4131,0.16934 h 43.43999 c 0.15383,0 0.30445,-0.06 0.41312,-0.16934 0.10863,-0.10938 0.17108,-0.26106 0.17108,-0.41275 h -0.5842"
           style="fill:#ffd700;fill-opacity:1;fill-rule:nonzero;stroke:none;stroke-width:0.0352777"
           id="path2771" />
        <path
           d="m 137.74028,227.01319 v -0.58563 h -1.89512 l 3.11609,-3.16087 h 1.65099 l -3.28788,3.33727 0.41592,0.40923 v -0.58563 0.58563 l 0.41628,0.4092 4.2679,-4.32858 c 0.16616,-0.16933 0.21414,-0.41979 0.12312,-0.63852 -0.0914,-0.21518 -0.30268,-0.35631 -0.53904,-0.35631 h -3.29177 c -0.15628,0 -0.30656,0.0635 -0.41628,0.17288 l -4.2679,4.3321 c -0.16581,0.16581 -0.21414,0.41627 -0.12277,0.635 0.091,0.21873 0.30268,0.35631 0.53904,0.35631 h 3.29142 c 0.15628,0 0.30657,-0.06 0.41628,-0.17288 l -0.41628,-0.4092"
           style="fill:#ffd700;fill-opacity:1;fill-rule:nonzero;stroke:none;stroke-width:0.0352777"
           id="path2773" />
        <path
           d="m 143.70364,227.01319 v -0.58563 h -1.89548 l 3.11644,-3.16087 h 1.651 l -3.28789,3.33727 0.41593,0.40923 v -0.58563 0.58563 l 0.41627,0.4092 4.26791,-4.32858 c 0.1658,-0.16933 0.21414,-0.41979 0.12312,-0.63852 -0.0914,-0.21518 -0.30268,-0.35631 -0.53905,-0.35631 h -3.29177 c -0.15628,0 -0.30656,0.0635 -0.41627,0.17288 l -4.26791,4.3321 c -0.16616,0.16581 -0.21413,0.41627 -0.12312,0.635 0.0914,0.21873 0.30269,0.35631 0.53905,0.35631 h 3.29177 c 0.15628,0 0.30656,-0.06 0.41627,-0.17288 l -0.41627,-0.4092"
           style="fill:#ffd700;fill-opacity:1;fill-rule:nonzero;stroke:none;stroke-width:0.0352777"
           id="path2775" />
        <path
           d="m 149.66699,227.01319 v -0.58563 h -1.89547 l 3.11644,-3.16087 h 1.65064 l -3.28753,3.33727 0.41592,0.40923 v -0.58563 0.58563 l 0.41628,0.4092 4.2679,-4.32858 c 0.16581,-0.16933 0.21414,-0.41979 0.12277,-0.63852 -0.091,-0.21518 -0.30268,-0.35631 -0.53869,-0.35631 h -3.29177 c -0.15628,0 -0.30656,0.0635 -0.41628,0.17288 l -4.2679,4.3321 c -0.16616,0.16581 -0.21414,0.41627 -0.12312,0.635 0.0914,0.21873 0.30268,0.35631 0.53904,0.35631 h 3.29177 c 0.15628,0 0.30657,-0.06 0.41628,-0.17288 l -0.41628,-0.4092"
           style="fill:#ffd700;fill-opacity:1;fill-rule:nonzero;stroke:none;stroke-width:0.0352777"
           id="path2777" />
        <path
           d="m 155.63035,227.01319 v -0.58563 h -1.89548 l 3.11644,-3.16087 h 1.65065 l -3.28789,3.33727 0.41628,0.40923 v -0.58563 0.58563 l 0.41627,0.4092 4.26791,-4.32858 c 0.1658,-0.16933 0.21414,-0.41979 0.12277,-0.63852 -0.091,-0.21518 -0.30269,-0.35631 -0.53905,-0.35631 h -3.29177 c -0.15592,0 -0.30656,0.0635 -0.41592,0.17288 l -4.26826,4.3321 c -0.16581,0.16581 -0.21378,0.41627 -0.12277,0.635 0.0914,0.21873 0.30269,0.35631 0.53905,0.35631 h 3.29177 c 0.15592,0 0.30656,-0.06 0.41627,-0.17288 l -0.41627,-0.4092"
           style="fill:#ffd700;fill-opacity:1;fill-rule:nonzero;stroke:none;stroke-width:0.0352777"
           id="path2779" />
        <path
           d="m 161.5937,227.01319 v -0.58563 h -1.89547 l 3.11608,-3.16087 h 1.651 l -3.28789,3.33727 0.41628,0.40923 v -0.58563 0.58563 l 0.41593,0.4092 4.26825,-4.32858 c 0.16581,-0.16933 0.21414,-0.41979 0.12277,-0.63852 -0.091,-0.21518 -0.30268,-0.35631 -0.53904,-0.35631 h -3.29177 c -0.15593,0 -0.30657,0.0635 -0.41593,0.17288 l -4.26825,4.3321 c -0.16581,0.16581 -0.21414,0.41627 -0.12277,0.635 0.0914,0.21873 0.30268,0.35631 0.53904,0.35631 h 3.29177 c 0.15593,0 0.30657,-0.06 0.41593,-0.17288 l -0.41593,-0.4092"
           style="fill:#ffd700;fill-opacity:1;fill-rule:nonzero;stroke:none;stroke-width:0.0352777"
           id="path2781" />
        <path
           d="m 167.55706,227.01319 v -0.58563 h -1.89548 l 3.11609,-3.16087 h 1.651 l -3.28789,3.33727 0.41628,0.40923 v -0.58563 0.58563 l 0.41592,0.4092 4.26826,-4.32858 c 0.16581,-0.16933 0.21414,-0.41979 0.12277,-0.63852 -0.0914,-0.21518 -0.30269,-0.35631 -0.53905,-0.35631 h -3.29177 c -0.15592,0 -0.30656,0.0635 -0.41592,0.17288 l -4.26826,4.3321 c -0.16581,0.16581 -0.21414,0.41627 -0.12277,0.635 0.091,0.21873 0.30269,0.35631 0.53905,0.35631 h 3.29177 c 0.15592,0 0.30656,-0.06 0.41592,-0.17288 l -0.41592,-0.4092"
           style="fill:#ffd700;fill-opacity:1;fill-rule:nonzero;stroke:none;stroke-width:0.0352777"
           id="path2783" />
        <path
           d="m 173.52041,227.01319 v -0.58563 h -1.89547 l 3.11608,-3.16087 h 1.651 l -3.28789,3.33727 0.41628,0.40923 v -0.58563 0.58563 l 0.41593,0.4092 4.26826,-4.32858 c 0.16579,-0.16933 0.21379,-0.41979 0.12277,-0.63852 -0.0914,-0.21518 -0.30268,-0.35631 -0.53906,-0.35631 h -3.29176 c -0.15593,0 -0.30657,0.0635 -0.41628,0.17288 l -4.2679,4.3321 c -0.16581,0.16581 -0.21414,0.41627 -0.12277,0.635 0.091,0.21873 0.30268,0.35631 0.53904,0.35631 h 3.29177 c 0.15593,0 0.30657,-0.06 0.41593,-0.17288 l -0.41593,-0.4092"
           style="fill:#ffd700;fill-opacity:1;fill-rule:nonzero;stroke:none;stroke-width:0.0352777"
           id="path2785" />
        <path
           d="m 150.59586,203.10544 -0.2921,0.508 10.06827,5.81377 -9.19197,5.30577 v -11.62754 h -0.5842 l -0.2921,0.508 0.2921,-0.508 h -0.5842 v 12.64002 c 0,0.20815 0.11147,0.40216 0.2921,0.50448 0.18097,0.10583 0.40357,0.10583 0.5842,0 l 10.94492,-6.31825 c 0.18063,-0.10583 0.2921,-0.29633 0.2921,-0.50448 0,-0.21167 -0.11147,-0.40217 -0.2921,-0.508 l -10.94492,-6.31825 c -0.18063,-0.10584 -0.40358,-0.10584 -0.5842,0 -0.18063,0.10583 -0.2921,0.29633 -0.2921,0.50448 h 0.5842"
           style="fill:#ffd700;fill-opacity:1;fill-rule:nonzero;stroke:none;stroke-width:0.0352777"
           id="path2787" />
      </g>
      <path
         style="fill:#ffd700;fill-opacity:1;stroke:#ffa32e;stroke-width:0.0176585;stroke-opacity:1"
         d="m -461.29859,-145.13223 c -0.18283,0.0351 -0.14836,0.25567 -0.15608,0.39331 -0.0103,1.03905 -0.003,2.0782 -0.005,3.11729 0.006,0.15208 0.19549,0.20012 0.29653,0.10106 0.95437,-0.558 1.91904,-1.10126 2.87007,-1.66322 0.12121,-0.0864 0.0493,-0.2607 -0.0759,-0.30114 -0.94784,-0.54768 -1.89387,-1.09985 -2.84786,-1.63603 -0.025,-0.0143 -0.0541,-0.008 -0.0814,-0.0113 z"
         id="path1140" />
    </g>
  </g>
</svg>
