<?xml version="1.0" encoding="UTF-8" standalone="no"?>
<svg
   xmlns:dc="http://purl.org/dc/elements/1.1/"
   xmlns:cc="http://creativecommons.org/ns#"
   xmlns:rdf="http://www.w3.org/1999/02/22-rdf-syntax-ns#"
   xmlns:svg="http://www.w3.org/2000/svg"
   xmlns="http://www.w3.org/2000/svg"
   xmlns:sodipodi="http://sodipodi.sourceforge.net/DTD/sodipodi-0.dtd"
   xmlns:inkscape="http://www.inkscape.org/namespaces/inkscape"
   width="30.159294mm"
   height="26.118715mm"
   viewBox="0 0 30.159294 26.118715"
   version="1.1"
   id="svg1155"
   inkscape:version="1.0.1 (3bc2e813f5, 2020-09-07)"
   sodipodi:docname="tnno.svg">
  <defs
     id="defs1149" />
  <sodipodi:namedview
     id="base"
     pagecolor="#ffffff"
     bordercolor="#666666"
     borderopacity="1.0"
     inkscape:pageopacity="0.0"
     inkscape:pageshadow="2"
     inkscape:zoom="1.6612946"
     inkscape:cx="98.91135"
     inkscape:cy="117.66609"
     inkscape:document-units="mm"
     inkscape:current-layer="layer1"
     inkscape:document-rotation="0"
     showgrid="false"
     inkscape:window-width="1333"
     inkscape:window-height="900"
     inkscape:window-x="1615"
     inkscape:window-y="2"
     inkscape:window-maximized="0" />
  <metadata
     id="metadata1152">
    <rdf:RDF>
      <cc:Work
         rdf:about="">
        <dc:format>image/svg+xml</dc:format>
        <dc:type
           rdf:resource="http://purl.org/dc/dcmitype/StillImage" />
        <dc:title></dc:title>
      </cc:Work>
    </rdf:RDF>
  </metadata>
  <g
     inkscape:label="Layer 1"
     inkscape:groupmode="layer"
     id="layer1"
     transform="translate(-3.8139804,-6.2743885)">
    <g
       id="g1737">
      <path
         sodipodi:type="star"
         style="fill:none;fill-opacity:1;fill-rule:evenodd;stroke:#8cc800;stroke-width:1;stroke-miterlimit:4;stroke-dasharray:none;stroke-opacity:1"
         id="path927-9-3-6-4"
         sodipodi:sides="6"
         sodipodi:cx="18.893627"
         sodipodi:cy="19.333746"
         sodipodi:r1="14.502296"
         sodipodi:r2="12.559356"
         sodipodi:arg1="1.0471976"
         sodipodi:arg2="1.5707963"
         inkscape:flatsided="true"
         inkscape:rounded="0"
         inkscape:randomized="0"
         d="m 26.144775,31.893103 -14.502297,0 L 4.3913307,19.333745 11.64248,6.7743885 l 14.502296,7e-7 7.251148,12.5593578 z" />
      <path
         d="m 23.324838,16.848444 0.14554,-0.14453 -1.81418,-1.81417 c -0.0804,-0.0811 -0.21083,-0.0811 -0.2912,0 l -2.29571,2.29466 -2.29576,-2.29466 c -0.0804,-0.0811 -0.21081,-0.0811 -0.29118,0 l -1.8142,1.81417 c -0.0804,0.0798 -0.0804,0.21045 0,0.29032 l 2.29575,2.29593 -2.29575,2.29593 c -0.0383,0.038 -0.0603,0.0913 -0.0603,0.14579 0,0.0545 0.022,0.10649 0.0603,0.1458 l 1.8142,1.81417 c 0.0383,0.038 0.0914,0.0596 0.14559,0.0596 0.0542,0 0.10727,-0.0215 0.14559,-0.0596 l 2.29576,-2.29592 2.29571,2.29592 c 0.0384,0.038 0.0914,0.0596 0.14567,0.0596 0.0541,0 0.10725,-0.0215 0.14553,-0.0596 l 1.81418,-1.81417 c 0.0383,-0.0393 0.0603,-0.0913 0.0603,-0.1458 0,-0.0545 -0.0221,-0.10776 -0.0603,-0.14579 l -2.29567,-2.29593 2.29567,-2.29593 c 0.0383,-0.038 0.0603,-0.0913 0.0603,-0.14579 0,-0.0532 -0.0221,-0.1065 -0.0603,-0.14453 l -0.14554,0.14453 -0.14567,-0.14453 -2.44134,2.44045 c -0.0383,0.038 -0.0603,0.0913 -0.0603,0.1458 0,0.0545 0.022,0.10776 0.0603,0.14579 l 2.29568,2.29593 -1.52284,1.52259 -2.29578,-2.29593 c -0.0804,-0.0798 -0.21077,-0.0798 -0.2912,0 l -2.29575,2.29593 -1.52296,-1.52259 2.29576,-2.29593 c 0.0383,-0.038 0.0603,-0.0913 0.0603,-0.14579 0,-0.0545 -0.022,-0.10776 -0.0603,-0.1458 l -2.29576,-2.29592 1.52296,-1.52259 2.29575,2.29592 c 0.0383,0.038 0.0914,0.0596 0.1456,0.0596 0.0542,0 0.10726,-0.0216 0.1456,-0.0596 l 2.29578,-2.29592 1.6685,1.66838 0.14567,-0.14579 -0.14567,-0.14453 0.14567,0.14453"
         style="fill:#c80000;fill-opacity:1;fill-rule:nonzero;stroke:none;stroke-width:0.0126776"
         id="path1325" />
      <path
         d="m 26.628518,19.290164 h -0.20589 c -9e-5,2.03096 -0.82278,3.86796 -2.15381,5.19912 -1.33128,1.33116 -3.16828,2.15394 -5.19953,2.15394 -2.03121,0 -3.86828,-0.82278 -5.19959,-2.15394 -1.331009,-1.33116 -2.153626,-3.16816 -2.153714,-5.19912 8.8e-5,-2.03097 0.822705,-3.86796 2.153714,-5.19912 1.33131,-1.33116 3.16834,-2.15394 5.19959,-2.15394 2.03125,0 3.86825,0.82278 5.19953,2.15394 1.33103,1.33116 2.15369,3.16815 2.15381,5.19912 h 0.20589 0.20589 c -10e-5,-4.28887 -3.47648,-7.76509 -7.76512,-7.76509 -4.28868,0 -7.765038,3.47622 -7.76519,7.76509 v 0 c 1.52e-4,4.28886 3.47651,7.76508 7.76519,7.76508 4.28864,0 7.76499,-3.47622 7.76512,-7.76508 h -0.20589"
         style="fill:#c80000;fill-opacity:1;fill-rule:nonzero;stroke:none;stroke-width:0.0126776"
         id="path1327" />
      <path
         d="m 19.069288,25.632804 v -0.20537 c -1.69227,0 -3.22534,-0.6884 -4.33736,-1.80024 -1.11167,-1.11183 -1.799432,-2.64456 -1.799534,-4.33703 1.05e-4,-1.69247 0.687864,-3.22521 1.799534,-4.33704 1.11202,-1.11183 2.64509,-1.79896 4.33736,-1.80023 1.69228,0.002 3.22536,0.6884 4.33732,1.80023 1.11171,1.11183 1.79947,2.64457 1.7996,4.33704 -10e-5,1.69247 -0.68789,3.2252 -1.7996,4.33703 -1.11196,1.11184 -2.64504,1.80024 -4.33732,1.80024 v 0.20537 0.20665 c 3.61152,-0.002 6.54831,-2.93742 6.54869,-6.54929 -4e-4,-3.61187 -2.93717,-6.54803 -6.54869,-6.54803 -3.61156,0 -6.548322,2.93616 -6.548715,6.54803 3.97e-4,3.61187 2.937155,6.54802 6.548715,6.54929 v -0.20665"
         style="fill:#c80000;fill-opacity:1;fill-rule:nonzero;stroke:none;stroke-width:0.0126776"
         id="path1329" />
      <path
         style="fill:#c80000;fill-opacity:1;stroke:#b287aa;stroke-width:0.2;stroke-linecap:round;stroke-miterlimit:4;stroke-dasharray:none;stroke-opacity:1"
         d="m 16.497568,15.350894 c -0.46802,0.51577 -1.06392,0.95117 -1.45639,1.51444 0.73613,0.85143 1.63062,1.58912 2.33558,2.46917 -0.69033,0.8677 -1.59731,1.56922 -2.26879,2.43025 0.48483,0.52399 0.98325,1.10862 1.55153,1.53149 0.83423,-0.74159 1.59885,-1.58055 2.40629,-2.35954 0.82386,0.77004 1.57039,1.66528 2.44131,2.35931 0.51833,-0.48733 1.09588,-0.99164 1.51144,-1.56259 -0.71,-0.83282 -1.58173,-1.56264 -2.26026,-2.41896 0.71654,-0.88095 1.64131,-1.60372 2.3319,-2.48414 -0.48891,-0.52019 -0.9951,-1.09912 -1.56765,-1.51652 -0.85378,0.69068 -1.56495,1.70209 -2.4853,2.26372 -0.90216,-0.66079 -1.59442,-1.59208 -2.46457,-2.26372 z"
         id="path1132" />
    </g>
  </g>
</svg>
