<svg xmlns="http://www.w3.org/2000/svg" width="180.796" height="156.574" viewBox="0 0 47.836 41.427">
    <path style="fill:none;fill-opacity:1;fill-rule:evenodd;stroke:#8cc800;stroke-width:1;stroke-miterlimit:4;stroke-dasharray:none;stroke-opacity:1" d="M103.688 32.102H89.186l-7.251-12.56 7.25-12.559h14.503l7.251 12.56z" transform="matrix(1.5861 0 0 1.5861 -129.04 -10.283)"/>
    <g style="fill-rule:evenodd;stroke-width:28.222;stroke-linejoin:round">
    <g class="SlideGroup">
        <g class="Slide" clip-path="url(#a)" transform="translate(12.51 9.306) scale(.01139)">
            <g class="Page">
                <g class="Graphic">
                    <path fill="#231fda" d="M76.691 1001c0 545 379.309 924.34 924.309 924.34S1925.329 1546 1925.329 1001 1546 76.702 1001 76.702 76.691 456 76.691 1001ZM1001 137.018c478 0 864.013 385.982 864.013 863.982H1537l-232-579c-9-23-32-39-58-38-25 0-47 15-56 38l-232 579H631c-27 0-51 17-59 42l-65 195-65-195c-8-25-32-42-58-42H137.007C137.007 523 523 137.018 1001 137.018ZM1248 612l190 474c9 23 32 38 57 38h361c-59 420-419 741.024-855 741.024S205 1544 146 1124h193l110 329c18 56 98 56 117 0l109-329h326c25 0 48-15 57-38z"/>
                </g>
            </g>
        </g>
    </g>
    </g>
    <path d="M75.795 153.646h-.343a12.21 12.21 0 0 1-3.588 8.662 12.21 12.21 0 0 1-8.662 3.588 12.21 12.21 0 0 1-8.663-3.588 12.209 12.209 0 0 1-3.588-8.662c0-3.383 1.371-6.444 3.588-8.661a12.21 12.21 0 0 1 8.663-3.588 12.21 12.21 0 0 1 8.662 3.588 12.21 12.21 0 0 1 3.588 8.661h.686c0-7.145-5.792-12.936-12.936-12.936-7.145 0-12.937 5.791-12.937 12.936s5.792 12.937 12.937 12.937c7.144 0 12.936-5.792 12.936-12.937h-.343" style="fill:#231fda;fill-opacity:1;fill-rule:nonzero;stroke:none;stroke-width:.0214275;stroke-miterlimit:4;stroke-dasharray:none" transform="translate(-39.284 -132.933)"/>
</svg>
