<?xml version="1.0" encoding="UTF-8" standalone="no"?>
<svg
   xmlns:dc="http://purl.org/dc/elements/1.1/"
   xmlns:cc="http://creativecommons.org/ns#"
   xmlns:rdf="http://www.w3.org/1999/02/22-rdf-syntax-ns#"
   xmlns:svg="http://www.w3.org/2000/svg"
   xmlns="http://www.w3.org/2000/svg"
   width="30.159294mm"
   height="26.118715mm"
   viewBox="0 0 30.159294 26.118715"
   version="1.1"
   id="svg2789">
  <defs
     id="defs2783" />
  <metadata
     id="metadata2786">
    <rdf:RDF>
      <cc:Work
         rdf:about="">
        <dc:format>image/svg+xml</dc:format>
        <dc:type
           rdf:resource="http://purl.org/dc/dcmitype/StillImage" />
        <dc:title></dc:title>
      </cc:Work>
    </rdf:RDF>
  </metadata>
  <g
     id="layer1"
     transform="translate(-85.824463,-171.6312)">
    <g
       id="g898"
       transform="translate(-33.745747,165.14808)">
      <path
         style="fill:none;fill-opacity:1;fill-rule:evenodd;stroke:#8cc800;stroke-width:1;stroke-miterlimit:4;stroke-dasharray:none;stroke-opacity:1"
         id="path927-1-7"
         d="m 141.901,32.10184 -14.50229,-1e-6 -7.25115,-12.559357 7.25115,-12.5593571 14.5023,7e-7 7.25114,12.5593574 z" />
      <path
         d="m 138.39706,24.778929 -0.12278,0.143356 -3.74469,-3.190603 c -0.042,-0.0357 -0.0671,-0.08811 -0.0671,-0.143354 0,-0.05514 0.025,-0.107543 0.0671,-0.143239 l 3.74469,-3.190601 c 0.0557,-0.04751 0.13528,-0.05832 0.20122,-0.02762 0.0659,0.03071 0.10913,0.09777 0.10913,0.170978 v 1.339291 h 4.77351 c 0.05,0 0.0978,0.02011 0.13301,0.05514 0.0352,0.03514 0.0557,0.08356 0.0557,0.133124 v 3.325884 c 0,0.04956 -0.0204,0.09811 -0.0557,0.133121 -0.0352,0.03513 -0.0829,0.05525 -0.13301,0.05525 h -4.77351 v 1.339288 c 0,0.07321 -0.0432,0.14017 -0.10913,0.170864 -0.0659,0.0308 -0.14552,0.01989 -0.20122,-0.02751 l 0.12278,-0.143355 h -0.1887 V 23.25128 c 0,-0.04957 0.0204,-0.098 0.0546,-0.133125 0.0352,-0.03501 0.0841,-0.05514 0.13414,-0.05514 h 4.77351 V 20.11376 h -4.77351 c -0.05,0 -0.0989,-0.02011 -0.13414,-0.05514 -0.0341,-0.03513 -0.0546,-0.08356 -0.0546,-0.133235 v -1.119779 l -3.26724,2.782707 3.57757,3.047249 -0.12163,0.143351 h -0.1887 0.1887"
         style="fill:#ff1e57;fill-opacity:1;fill-rule:nonzero;stroke:none;stroke-width:0.0113681"
         id="path1187-9" />
      <path
         d="m 140.73478,17.824294 -0.0128,-2.345578 c -2.7e-4,-0.04547 -0.0185,-0.08981 -0.0505,-0.122777 l -2.23677,-2.236127 c -0.0321,-0.03184 -0.0765,-0.05116 -0.12186,-0.05116 h -9.07638 c -0.86922,0.0013 -1.57359,0.704826 -1.57371,1.574495 v 9.91194 c 1.2e-4,0.868531 0.70449,1.573358 1.57371,1.573358 h 4.66482 c 0.0953,0 0.17246,-0.07731 0.17246,-0.172797 0,-0.09436 -0.0772,-0.171657 -0.17246,-0.171657 h -4.66487 c -0.3398,0 -0.64594,-0.137559 -0.86887,-0.360373 -0.22259,-0.222818 -0.35981,-0.528626 -0.35992,-0.868534 v -9.911941 c 1.1e-4,-0.339908 0.13733,-0.645712 0.35992,-0.869668 0.22293,-0.221678 0.52907,-0.359233 0.86887,-0.359233 h 9.00498 l 2.13574,2.136085 0.0129,3.781552 c 3.2e-4,0.0955 0.0772,0.185628 0.17246,0.185628 0.0952,0 0.17246,-0.09014 0.17246,-0.185628"
         style="fill:#ff1e57;fill-opacity:1;fill-rule:nonzero;stroke:none;stroke-width:0.0113681"
         id="path1191-3" />
      <path
         d="m 136.54357,24.095817 h -7.02521 v -5.293039 h 6.10939 c 0.0953,0 0.17246,-0.07616 0.17246,-0.171658 0,-0.09549 -0.0772,-0.172796 -0.17246,-0.172796 h -6.28184 c -0.0455,0 -0.0898,0.01817 -0.12198,0.05002 -0.0321,0.03297 -0.0505,0.07731 -0.0505,0.122775 v 5.637494 c 0,0.04547 0.0184,0.08981 0.0505,0.121639 0.0322,0.03184 0.0766,0.05116 0.12198,0.05116 h 7.19766 c 0.0951,0 0.17234,-0.07731 0.17234,-0.172796 0,-0.09549 -0.0772,-0.172796 -0.17234,-0.172796"
         style="fill:#ff1e57;fill-opacity:1;fill-rule:nonzero;stroke:none;stroke-width:0.0113681"
         id="path1193-6" />
      <path
         d="m 137.68318,17.09755 h -6.93853 v -3.856098 c 0,-0.09549 -0.0772,-0.172795 -0.17245,-0.172795 -0.0953,0 -0.17246,0.07731 -0.17246,0.172795 v 4.028894 c 0,0.04547 0.0184,0.08981 0.0506,0.12164 0.0321,0.03297 0.0765,0.05116 0.12187,0.05116 h 7.22893 c 0.0953,0 0.18151,-0.07731 0.18151,-0.172795 0,-0.09549 -0.13616,-0.163725 -0.13616,-0.163725"
         style="fill:#ff1e57;fill-opacity:1;fill-rule:nonzero;stroke:none;stroke-width:0.0113681"
         id="path1195-3" />
      <path
         d="m 137.63993,13.241452 v 4.031021 c 0,0.09549 0.0772,0.168261 0.17245,0.168261 0.0951,0 0.17246,-0.06596 0.17246,-0.161453 v -4.037829 c 0,-0.09549 -0.0773,-0.172795 -0.17246,-0.172795 -0.0953,0 -0.17245,0.07731 -0.17245,0.172795"
         style="fill:#ff1e57;fill-opacity:1;fill-rule:nonzero;stroke:none;stroke-width:0.0113681"
         id="path1197-8" />
      <path
         d="m 132.94633,16.381353 v -0.172799 h -1.35793 v -2.126991 h 1.18547 v 2.29979 h 0.17246 v -0.172799 0.172799 h 0.17246 v -2.472585 c 0,-0.04547 -0.0184,-0.08981 -0.0505,-0.12164 -0.0322,-0.03297 -0.0765,-0.05116 -0.12198,-0.05116 h -1.53038 c -0.0454,0 -0.0898,0.01817 -0.12199,0.05116 -0.0321,0.03184 -0.0505,0.07616 -0.0505,0.12164 v 2.472585 c 0,0.04547 0.0184,0.08981 0.0505,0.121639 0.0322,0.03184 0.0765,0.05002 0.12199,0.05002 h 1.53038 c 0.0455,0 0.0898,-0.01817 0.12198,-0.05002 0.0321,-0.03184 0.0505,-0.07616 0.0505,-0.121639 h -0.17246"
         style="fill:#ff1e57;fill-opacity:1;fill-rule:nonzero;stroke:none;stroke-width:0.0113681"
         id="path1199-3" />
      <path
         d="m 141.392,26.662757 v -0.18871 h -6.69883 v -0.849206 h 6.51045 v 1.037916 h 0.18838 v -0.18871 0.18871 h 0.18826 v -1.226628 c 0,-0.0489 -0.02,-0.09777 -0.0551,-0.133007 -0.0351,-0.03525 -0.0835,-0.05458 -0.13312,-0.05458 h -6.88708 c -0.0497,0 -0.0981,0.01933 -0.13324,0.05458 -0.035,0.03525 -0.0551,0.08412 -0.0551,0.133007 v 1.226628 c 0,0.04888 0.0201,0.09777 0.0551,0.133008 0.0352,0.03525 0.0836,0.05457 0.13324,0.05457 h 6.88708 c 0.0496,0 0.098,-0.01933 0.13312,-0.05457 0.035,-0.03524 0.0551,-0.08412 0.0551,-0.133008 H 141.392"
         style="fill:#ff1e57;fill-opacity:1;fill-rule:nonzero;stroke:none;stroke-width:0.0113681"
         id="path1201-8" />
    </g>
  </g>
</svg>
