<?xml version="1.0" encoding="UTF-8" standalone="no"?>
<svg
   xmlns:dc="http://purl.org/dc/elements/1.1/"
   xmlns:cc="http://creativecommons.org/ns#"
   xmlns:rdf="http://www.w3.org/1999/02/22-rdf-syntax-ns#"
   xmlns:svg="http://www.w3.org/2000/svg"
   xmlns="http://www.w3.org/2000/svg"
   xmlns:sodipodi="http://sodipodi.sourceforge.net/DTD/sodipodi-0.dtd"
   xmlns:inkscape="http://www.inkscape.org/namespaces/inkscape"
   width="109.22238mm"
   height="94.589363mm"
   viewBox="0 0 109.22238 94.589363"
   version="1.1"
   id="svg2396"
   inkscape:version="1.0.1 (3bc2e813f5, 2020-09-07)"
   sodipodi:docname="tnstop.svg">
  <defs
     id="defs2390" />
  <sodipodi:namedview
     id="base"
     pagecolor="#ffffff"
     bordercolor="#666666"
     borderopacity="1.0"
     inkscape:pageopacity="0.0"
     inkscape:pageshadow="2"
     inkscape:zoom="0.58735632"
     inkscape:cx="85.683748"
     inkscape:cy="283.09838"
     inkscape:document-units="mm"
     inkscape:current-layer="layer1"
     inkscape:document-rotation="0"
     showgrid="false"
     inkscape:window-width="1333"
     inkscape:window-height="900"
     inkscape:window-x="1690"
     inkscape:window-y="2"
     inkscape:window-maximized="0" />
  <metadata
     id="metadata2393">
    <rdf:RDF>
      <cc:Work
         rdf:about="">
        <dc:format>image/svg+xml</dc:format>
        <dc:type
           rdf:resource="http://purl.org/dc/dcmitype/StillImage" />
        <dc:title></dc:title>
      </cc:Work>
    </rdf:RDF>
  </metadata>
  <g
     inkscape:label="Layer 1"
     inkscape:groupmode="layer"
     id="layer1"
     transform="translate(-40.777984,-25.680607)">
    <g
       id="g1782"
       transform="matrix(3.6215166,0,0,3.6215166,-116.08339,-129.45317)">
      <path
         sodipodi:type="star"
         style="fill:none;fill-opacity:1;fill-rule:evenodd;stroke:#8cc800;stroke-width:1;stroke-miterlimit:4;stroke-dasharray:none;stroke-opacity:1"
         id="path927-9-3"
         sodipodi:sides="6"
         sodipodi:cx="58.393372"
         sodipodi:cy="55.896046"
         sodipodi:r1="14.502296"
         sodipodi:r2="12.559356"
         sodipodi:arg1="1.0471976"
         sodipodi:arg2="1.5707963"
         inkscape:flatsided="true"
         inkscape:rounded="0"
         inkscape:randomized="0"
         d="m 65.644519,68.455403 -14.502296,-10e-7 -7.251148,-12.559357 7.251149,-12.559357 14.502296,10e-7 7.251148,12.559357 z" />
      <path
         d="M 64.257243,62.362243 V 62.187359 H 53.242745 c -0.176474,-10e-4 -0.334608,-0.07102 -0.450453,-0.186545 -0.115535,-0.116592 -0.186442,-0.274512 -0.186545,-0.450461 V 50.535855 c 0,-0.176998 0.07101,-0.334926 0.186545,-0.450453 0.115845,-0.115534 0.273979,-0.186545 0.450453,-0.186545 h 11.014498 c 0.17637,0 0.334616,0.07101 0.450357,0.186545 0.11563,0.115527 0.186538,0.273455 0.186649,0.450453 v 11.014498 c 0,0.175949 -0.07102,0.333869 -0.186649,0.450461 -0.115741,0.115527 -0.273987,0.18548 -0.450357,0.186545 v 0.174884 0.175941 c 0.545749,0 0.987934,-0.443036 0.988045,-0.987831 V 50.535855 c 0,-0.545844 -0.442296,-0.988888 -0.988045,-0.988888 H 53.242745 c -0.545741,0 -0.988038,0.443044 -0.988141,0.988888 v 11.014498 c 0,0.544795 0.4424,0.987831 0.988141,0.987831 h 11.014498 v -0.175941"
         style="fill:#c80000;fill-opacity:1;fill-rule:nonzero;stroke:none;stroke-width:0.011;stroke-miterlimit:4;stroke-dasharray:none;stroke-opacity:1"
         id="path2809-1" />
      <path
         d="m 53.413288,60.863537 h 0.17552 v -9.641923 c 0,-0.09433 0.03784,-0.178063 0.09973,-0.2406 0.06222,-0.06147 0.146267,-0.09963 0.240815,-0.09963 h 9.641184 c 0.09464,0 0.178699,0.03816 0.240807,0.09963 0.062,0.06254 0.09974,0.146266 0.09984,0.2406 v 9.641923 c 0,0.09433 -0.03784,0.178063 -0.09974,0.2406 -0.06221,0.06147 -0.146266,0.09963 -0.240807,0.09963 H 53.92935 c -0.09465,0 -0.178596,-0.03816 -0.240815,-0.09963 -0.06189,-0.06254 -0.09963,-0.146266 -0.09973,-0.2406 h -0.17552 -0.175631 c 0,0.381564 0.3096,0.691061 0.691697,0.691061 h 9.641287 c 0.381986,0 0.691483,-0.309497 0.691586,-0.691061 v -9.641923 c 0,-0.381564 -0.3096,-0.691053 -0.691689,-0.691053 h -9.641184 c -0.381994,0 -0.691482,0.309489 -0.691697,0.691053 v 9.641923 h 0.175631"
         style="fill:#c80000;fill-opacity:1;fill-rule:nonzero;stroke:#5dc800;stroke-width:0.011;stroke-miterlimit:4;stroke-dasharray:none;stroke-opacity:1"
         id="path2811-6" />
      <path
         d="m 54.919008,59.503315 h 0.125996 v -6.921476 c 0,-0.06772 0.02716,-0.127826 0.07159,-0.172716 0.04467,-0.04413 0.105001,-0.07152 0.17287,-0.07152 h 6.920948 c 0.06793,0 0.128281,0.02739 0.172863,0.07152 0.04451,0.0449 0.07161,0.10499 0.07167,0.172716 v 6.921476 c 0,0.06771 -0.02716,0.127825 -0.07161,0.172716 -0.04466,0.04413 -0.104991,0.07152 -0.172864,0.07152 H 55.28945 c -0.06795,0 -0.128202,-0.02739 -0.172869,-0.07152 -0.04443,-0.0449 -0.07152,-0.104991 -0.07159,-0.172716 h -0.125995 -0.126077 c 0,0.273906 0.222248,0.496081 0.496537,0.496081 h 6.921021 c 0.274208,0 0.496382,-0.222175 0.496456,-0.496081 v -6.921476 c 0,-0.273909 -0.222248,-0.496076 -0.49653,-0.496076 h -6.920947 c -0.274216,0 -0.496383,0.222167 -0.496537,0.496076 v 6.921476 h 0.126077"
         style="fill:#c80000;fill-opacity:1;fill-rule:nonzero;stroke:#5dc800;stroke-width:0.00789638;stroke-miterlimit:4;stroke-dasharray:none;stroke-opacity:1"
         id="path2811-6-4" />
      <path
         style="opacity:1;fill:#c80000;fill-opacity:1;stroke:none;stroke-width:0.107321;stroke-linecap:round;stroke-miterlimit:4;stroke-dasharray:none;stroke-opacity:1"
         d="m 208.01414,197.80287 c -0.30616,5.78404 -0.10703,11.66336 -0.20187,17.48482 0.0879,3.42957 -0.18797,6.92312 0.1649,10.31852 1.42179,0.80624 3.30045,0.26774 4.88642,0.47013 7.63436,0.0309 15.26865,-0.0487 22.90294,-0.0734 1.1052,-0.92941 0.20747,-2.97186 0.49764,-4.33736 0,-7.84498 0,-15.68996 0,-23.53494 -0.92492,-1.10963 -2.97237,-0.20928 -4.33736,-0.50014 -7.84498,0 -15.68996,0 -23.53494,0 l -0.23273,0.10621 z"
         id="path1774"
         transform="scale(0.26458333)" />
    </g>
  </g>
</svg>
