<?xml version="1.0" encoding="UTF-8" standalone="no"?>
<svg
   xmlns:dc="http://purl.org/dc/elements/1.1/"
   xmlns:cc="http://creativecommons.org/ns#"
   xmlns:rdf="http://www.w3.org/1999/02/22-rdf-syntax-ns#"
   xmlns:svg="http://www.w3.org/2000/svg"
   xmlns="http://www.w3.org/2000/svg"
   xmlns:sodipodi="http://sodipodi.sourceforge.net/DTD/sodipodi-0.dtd"
   xmlns:inkscape="http://www.inkscape.org/namespaces/inkscape"
   width="110.89854mm"
   height="96.040955mm"
   viewBox="0 0 110.89854 96.040954"
   version="1.1"
   id="svg1797"
   inkscape:version="1.0.1 (3bc2e813f5, 2020-09-07)"
   sodipodi:docname="tnstart.svg">
  <defs
     id="defs1791" />
  <sodipodi:namedview
     id="base"
     pagecolor="#ffffff"
     bordercolor="#666666"
     borderopacity="1.0"
     inkscape:pageopacity="0.0"
     inkscape:pageshadow="2"
     inkscape:zoom="0.29367816"
     inkscape:cx="568.79008"
     inkscape:cy="-285.35838"
     inkscape:document-units="mm"
     inkscape:current-layer="layer1"
     inkscape:document-rotation="0"
     showgrid="false"
     inkscape:window-width="1333"
     inkscape:window-height="900"
     inkscape:window-x="1640"
     inkscape:window-y="2"
     inkscape:window-maximized="0" />
  <metadata
     id="metadata1794">
    <rdf:RDF>
      <cc:Work
         rdf:about="">
        <dc:format>image/svg+xml</dc:format>
        <dc:type
           rdf:resource="http://purl.org/dc/dcmitype/StillImage" />
        <dc:title></dc:title>
      </cc:Work>
    </rdf:RDF>
  </metadata>
  <g
     inkscape:label="Layer 1"
     inkscape:groupmode="layer"
     id="layer1"
     transform="translate(-42.579844,43.340701)">
    <g
       id="g1789"
       transform="matrix(3.6770933,0,0,3.6770933,17.417597,-200.8552)">
      <path
         sodipodi:type="star"
         style="fill:none;fill-opacity:1;fill-rule:evenodd;stroke:#8cc800;stroke-width:1;stroke-miterlimit:4;stroke-dasharray:none;stroke-opacity:1"
         id="path927-9"
         sodipodi:sides="6"
         sodipodi:cx="21.922619"
         sodipodi:cy="55.896046"
         sodipodi:r1="14.502296"
         sodipodi:r2="12.559356"
         sodipodi:arg1="1.0471976"
         sodipodi:arg2="1.5707963"
         inkscape:flatsided="true"
         inkscape:rounded="0"
         inkscape:randomized="0"
         d="m 29.173766,68.455403 -14.502296,-10e-7 -7.2511476,-12.559357 7.2511486,-12.559357 14.502297,10e-7 7.251147,12.559357 z" />
      <path
         d="m 19.71855,52.369642 -0.08776,0.152626 6.01473,3.472237 c 0.06147,0.03604 0.104826,0.08267 0.134604,0.13567 0.02957,0.053 0.04473,0.11447 0.04473,0.174884 0,0.06147 -0.01516,0.121886 -0.04473,0.174884 -0.02978,0.05405 -0.07313,0.100693 -0.134604,0.13567 l -6.01473,3.473295 c -0.05956,0.03392 -0.119343,0.04875 -0.178596,0.04875 -0.09242,0 -0.183994,-0.03816 -0.250665,-0.101751 -0.06656,-0.06465 -0.108324,-0.150503 -0.108746,-0.257556 v -6.945533 c 7.82e-4,-0.107052 0.04219,-0.192904 0.108746,-0.257556 0.06667,-0.06465 0.158246,-0.102807 0.250665,-0.10175 0.05925,0 0.119032,0.01377 0.178492,0.04875 l 0.08786,-0.152626 0.08776,-0.151561 c -0.112665,-0.06572 -0.235401,-0.09646 -0.354115,-0.09646 -0.186538,0.001 -0.362487,0.0742 -0.493594,0.200321 -0.131218,0.124009 -0.217388,0.306317 -0.216959,0.510875 v 6.945533 c -7.81e-4,0.204566 0.08574,0.38581 0.216959,0.510875 0.131107,0.125066 0.307056,0.199265 0.493594,0.199265 0.118714,0 0.24145,-0.03074 0.354115,-0.09539 l 6.01473,-3.473302 c 0.116695,-0.06677 0.206896,-0.162165 0.266142,-0.26921 0.05946,-0.107053 0.08871,-0.226824 0.08882,-0.345531 0,-0.118706 -0.02936,-0.237421 -0.08882,-0.34553 -0.05925,-0.107045 -0.149447,-0.201379 -0.266142,-0.26921 l -6.01473,-3.472238 -0.08776,0.151561"
         style="fill:#32ae20;fill-opacity:1;fill-rule:nonzero;stroke:none;stroke-width:0.011;stroke-miterlimit:4;stroke-dasharray:none"
         id="path2807" />
      <path
         d="M 27.71434,62.412215 V 62.237331 H 16.699842 c -0.176474,-10e-4 -0.334608,-0.07102 -0.450453,-0.186545 -0.115535,-0.116592 -0.186442,-0.274512 -0.186545,-0.450461 V 50.585827 c 0,-0.176998 0.07101,-0.334926 0.186545,-0.450453 0.115845,-0.115534 0.273979,-0.186545 0.450453,-0.186545 H 27.71434 c 0.17637,0 0.334616,0.07101 0.450357,0.186545 0.11563,0.115527 0.186538,0.273455 0.186649,0.450453 v 11.014498 c 0,0.175949 -0.07102,0.333869 -0.186649,0.450461 -0.115741,0.115527 -0.273987,0.18548 -0.450357,0.186545 v 0.174884 0.175941 c 0.545749,0 0.987934,-0.443036 0.988045,-0.987831 V 50.585827 c 0,-0.545844 -0.442296,-0.988888 -0.988045,-0.988888 H 16.699842 c -0.545741,0 -0.988038,0.443044 -0.988141,0.988888 v 11.014498 c 0,0.544795 0.4424,0.987831 0.988141,0.987831 H 27.71434 v -0.175941"
         style="fill:#32ae20;fill-opacity:1;fill-rule:nonzero;stroke:none;stroke-width:0.011;stroke-miterlimit:4;stroke-dasharray:none"
         id="path2809" />
      <path
         d="m 16.870385,60.913509 h 0.17552 v -9.641923 c 0,-0.09433 0.03784,-0.178063 0.09973,-0.2406 0.06222,-0.06147 0.146267,-0.09963 0.240815,-0.09963 h 9.641184 c 0.09464,0 0.178699,0.03816 0.240807,0.09963 0.062,0.06254 0.09974,0.146266 0.09984,0.2406 v 9.641923 c 0,0.09433 -0.03784,0.178063 -0.09974,0.2406 -0.06221,0.06147 -0.146266,0.09963 -0.240807,0.09963 h -9.641287 c -0.09465,0 -0.178596,-0.03816 -0.240815,-0.09963 -0.06189,-0.06254 -0.09963,-0.146266 -0.09973,-0.2406 h -0.17552 -0.175631 c 0,0.381564 0.3096,0.691061 0.691697,0.691061 h 9.641287 c 0.381986,0 0.691483,-0.309497 0.691586,-0.691061 v -9.641923 c 0,-0.381564 -0.3096,-0.691053 -0.691689,-0.691053 h -9.641184 c -0.381994,0 -0.691482,0.309489 -0.691697,0.691053 v 9.641923 h 0.175631"
         style="fill:#32ae20;fill-opacity:1;fill-rule:nonzero;stroke:none;stroke-width:0.011;stroke-miterlimit:4;stroke-dasharray:none"
         id="path2811" />
      <path
         style="fill:#32ae20;fill-opacity:1;stroke:none;stroke-width:0.00709885;stroke-linecap:round;stroke-miterlimit:4;stroke-dasharray:none;stroke-opacity:1"
         d="m 19.441398,52.351127 c -0.239885,0.0086 -0.474241,0.217847 -0.45321,0.468715 -0.02233,1.35087 -0.0072,2.702171 -0.01195,4.05321 0.0032,1.008732 -0.0065,2.019353 0.0048,3.026905 0.07256,0.234841 0.331238,0.409228 0.578038,0.344352 0.209294,-0.06862 0.385827,-0.21201 0.581594,-0.310774 1.865187,-1.076066 3.733367,-2.147308 5.592811,-3.2331 0.286399,-0.173905 0.276117,-0.670592 -0.03837,-0.809633 -1.991335,-1.16414 -3.989652,-2.316467 -5.994242,-3.457609 -0.07874,-0.04902 -0.164028,-0.08974 -0.259513,-0.08207 z"
         id="path1696" />
    </g>
  </g>
</svg>
