<svg width="24" height="24" viewBox="0 0 24 24" xmlns="http://www.w3.org/2000/svg">
<path d="M15.9889 8.19163C16.2773 7.8942 16.7523 7.88704 17.0496 8.17564C17.3467 8.46404 17.3539 8.93864 17.0656 9.23589L10.6442 15.8576C10.3543 16.1566 9.88537 16.1879 9.55823 15.9303L6.93144 13.8615C6.60593 13.6051 6.54994 13.1334 6.8064 12.808C7.06274 12.4827 7.53422 12.4267 7.8596 12.6829L9.42326 13.9144C9.75039 14.172 10.2193 14.1406 10.5092 13.8417L15.9889 8.19163ZM11.9535 1.5C6.18974 1.5 1.5 6.18901 1.5 11.9535V12.0472C1.5 17.811 6.18974 22.5 11.9535 22.5H12.0472C17.811 22.5 22.5007 17.811 22.5007 12.0472V11.9535C22.5007 6.18901 17.811 1.5 12.0472 1.5H11.9535ZM11.9535 0H12.0472C18.6383 0 24 5.36174 24 11.9535V12.0472C24 18.6383 18.6383 24 12.0472 24H11.9535C5.36247 24 0 18.6383 0 12.0472V11.9535C0 5.36174 5.36247 0 11.9535 0Z" fill="#000000"/>
</svg>
