<svg width="26" height="26" viewBox="0 0 26 26" fill="none" xmlns="http://www.w3.org/2000/svg">
<path d="M11.2751 9.14428C11.1135 9.03121 10.8916 9.14679 10.8916 9.34398V16.6562C10.8916 16.8534 11.1135 16.9689 11.2751 16.8559L16.4993 13.1998C16.6379 13.1027 16.6379 12.8974 16.4993 12.8004L11.2751 9.14428ZM10.1324 6.50412C10.2781 6.51357 10.4211 6.56232 10.5446 6.64966L18.6672 12.3347C18.8849 12.4866 19.0141 12.7352 19.0141 13.0001C19.0141 13.265 18.8849 13.5136 18.6672 13.6663L10.5446 19.3513C10.4057 19.4488 10.2432 19.4976 10.0791 19.4976C9.95069 19.4976 9.82232 19.4675 9.70369 19.4057C9.43557 19.266 9.26657 18.9881 9.26657 18.6851V7.31509C9.26657 7.01203 9.43557 6.73416 9.70369 6.59441C9.83816 6.52454 9.98664 6.49468 10.1324 6.50412ZM13 1.625C6.7275 1.625 1.625 6.72752 1.625 13C1.625 19.2725 6.7275 24.375 13 24.375C19.2725 24.375 24.375 19.2725 24.375 13C24.375 6.72752 19.2725 1.625 13 1.625ZM13 0C20.1679 0 26 5.83216 26 13C26 20.1679 20.1679 26 13 26C5.83213 26 0 20.1679 0 13C0 5.83216 5.83213 0 13 0Z" fill="#000000"/>
</svg>
