<svg width="26" height="22" viewBox="0 0 26 22" fill="none" xmlns="http://www.w3.org/2000/svg">
<path d="M7.2483 6.76811V8.39311C4.14781 8.39311 1.62501 11.1077 1.62501 14.4454C1.62501 17.4866 3.72038 20.0108 6.43878 20.4344C6.88216 20.5035 7.2483 20.8607 7.2483 21.3094C7.2483 21.7581 6.88296 22.1269 6.43735 22.0742C2.82094 21.6459 0 18.3882 0 14.4454C0 10.2123 3.25165 6.76811 7.2483 6.76811ZM18.0318 1.2351C17.5921 0.767048 17.924 0 18.5661 0C18.7685 0 18.9619 0.0836648 19.1005 0.231175L25.4786 7.02067C25.7718 7.33287 25.7724 7.81913 25.4798 8.13197L18.937 15.1276C18.7991 15.275 18.6062 15.3587 18.4044 15.3587C17.7664 15.3587 17.436 14.5972 17.8719 14.1313L21.9607 9.76069C22.4463 9.24156 22.0782 8.39312 21.3674 8.39312L7.2483 8.39311V6.76811L21.3513 6.76812C22.063 6.76812 22.4308 5.91804 21.9435 5.39933L18.0318 1.2351Z" fill="#000000"/>
</svg>
