<svg width="26" height="22" viewBox="0 0 26 22" fill="none" xmlns="http://www.w3.org/2000/svg">
<path d="M0 21.1169C0 20.6681 0.363769 20.3044 0.8125 20.3044H25.1875C25.6362 20.3044 26 20.6681 26 21.1169C26 21.5656 25.6362 21.9294 25.1875 21.9294H0.8125C0.363769 21.9294 0 21.5656 0 21.1169ZM11.7845 0.80925C11.7845 0.362313 12.1468 0 12.5937 0C13.0407 0 13.403 0.362314 13.403 0.80925V14.1906C13.403 14.9117 14.2725 15.2755 14.786 14.7691L17.0739 12.5128C17.3859 12.2052 17.8869 12.2046 18.1996 12.5115C18.5196 12.8255 18.5202 13.3408 18.201 13.6556L13.1639 18.6233C12.847 18.9358 12.3377 18.9352 12.0216 18.622L6.98475 13.6321C6.66638 13.3167 6.66785 12.8018 6.988 12.4882C7.3014 12.1812 7.80316 12.1826 8.11482 12.4914L10.4002 14.7552C10.9131 15.2633 11.7845 14.9 11.7845 14.178V0.80925Z" fill="#000000"/>
<line x1="0.75" y1="14.75" x2="0.75" y2="21.25" stroke="#000000" stroke-width="1.5" stroke-linecap="round"/>
<line x1="25.3" y1="14.75" x2="25.3" y2="21.25" stroke="#000000" stroke-width="1.5" stroke-linecap="round"/>
</svg>
