<svg width="26" height="26" viewBox="0 0 26 26" fill="none" xmlns="http://www.w3.org/2000/svg">
<path d="M9.75 8.9375C9.30127 8.9375 8.9375 9.30126 8.9375 9.75V16.25C8.9375 16.6987 9.30127 17.0625 9.75 17.0625H16.25C16.6987 17.0625 17.0625 16.6987 17.0625 16.25V9.75C17.0625 9.30126 16.6987 8.9375 16.25 8.9375H9.75ZM7.3125 8.125C7.3125 7.67626 7.67627 7.3125 8.125 7.3125H17.875C18.3237 7.3125 18.6875 7.67626 18.6875 8.125V17.875C18.6875 18.3237 18.3237 18.6875 17.875 18.6875H8.125C7.67627 18.6875 7.3125 18.3237 7.3125 17.875V8.125ZM13 1.625C6.7275 1.625 1.625 6.7275 1.625 13C1.625 19.2725 6.7275 24.375 13 24.375C19.2725 24.375 24.375 19.2725 24.375 13C24.375 6.7275 19.2725 1.625 13 1.625ZM13 0C20.1679 0 26 5.83213 26 13C26 20.1679 20.1679 26 13 26C5.83211 26 0 20.1679 0 13C0 5.83213 5.83211 0 13 0Z" fill="#000000"/>
</svg>
