<svg width="24" height="24" viewBox="0 0 24 24" fill="none" xmlns="http://www.w3.org/2000/svg">
<path d="M0.75 15C1.16473 15 1.5 15.336 1.5 15.75V22.5H22.5V15.75C22.5 15.336 22.8353 15 23.25 15C23.6647 15 24 15.336 24 15.75V24H0V15.75C0 15.336 0.335266 15 0.75 15ZM12.0301 0C12.2219 0 12.4137 0.0733094 12.5603 0.219931L17.0301 4.69131C17.3233 4.98455 17.3233 5.45929 17.0301 5.75178C16.8838 5.89802 16.6918 5.97152 16.4999 5.97152C16.3079 5.97152 16.1159 5.89802 15.9696 5.75178L12.78 2.56099V19.5C12.78 19.914 12.4448 20.25 12.03 20.25C11.6153 20.25 11.2801 19.914 11.2801 19.5V2.54311L8.03343 5.82364C7.74244 6.11765 7.2662 6.1214 6.97297 5.82889C6.67823 5.53789 6.67523 5.06239 6.96697 4.76838L11.4556 0.243593C11.4732 0.230199 11.4913 0.217582 11.5097 0.205752L11.5265 0.195863L11.5569 0.168385C11.6945 0.0561275 11.8623 0 12.0301 0Z" fill="#000000"/>
</svg>
