<?xml version="1.0" encoding="UTF-8" standalone="no"?>
<svg
   xmlns:dc="http://purl.org/dc/elements/1.1/"
   xmlns:cc="http://creativecommons.org/ns#"
   xmlns:rdf="http://www.w3.org/1999/02/22-rdf-syntax-ns#"
   xmlns:svg="http://www.w3.org/2000/svg"
   xmlns="http://www.w3.org/2000/svg"
   xmlns:sodipodi="http://sodipodi.sourceforge.net/DTD/sodipodi-0.dtd"
   xmlns:inkscape="http://www.inkscape.org/namespaces/inkscape"
   width="21.108538mm"
   height="8.7742443mm"
   viewBox="0 0 21.108538 8.7742443"
   version="1.1"
   id="svg893"
   inkscape:version="1.0.1 (3bc2e813f5, 2020-09-07)"
   sodipodi:docname="avm-energo.svg">
  <defs
     id="defs887" />
  <sodipodi:namedview
     id="base"
     pagecolor="#ffffff"
     bordercolor="#666666"
     borderopacity="1.0"
     inkscape:pageopacity="0.0"
     inkscape:pageshadow="2"
     inkscape:zoom="9.1144827"
     inkscape:cx="37.796409"
     inkscape:cy="12.243141"
     inkscape:document-units="mm"
     inkscape:current-layer="layer1"
     inkscape:document-rotation="0"
     showgrid="false"
     inkscape:window-width="1440"
     inkscape:window-height="878"
     inkscape:window-x="-8"
     inkscape:window-y="-8"
     inkscape:window-maximized="1" />
  <metadata
     id="metadata890">
    <rdf:RDF>
      <cc:Work
         rdf:about="">
        <dc:format>image/svg+xml</dc:format>
        <dc:type
           rdf:resource="http://purl.org/dc/dcmitype/StillImage" />
        <dc:title></dc:title>
      </cc:Work>
    </rdf:RDF>
  </metadata>
  <g
     inkscape:label="Layer 1"
     inkscape:groupmode="layer"
     id="layer1"
     transform="translate(-95.279065,-143.77954)">
    <path
       d="m 109.25142,145.38432 h -6.83617 v 5.23139 h 6.83617 z"
       style="fill:#a9afd3;fill-rule:evenodd;stroke-width:0.264583;fill-opacity:1"
       id="path833" />
    <path
       d="m 103.04591,149.59069 v -3.11364 c 0,-0.113 -0.003,-0.21013 -0.0101,-0.29128 -0.007,-0.0812 -0.0169,-0.1488 -0.0305,-0.20304 -0.018,-0.0541 -0.0361,-0.10687 -0.0541,-0.15854 -0.018,-0.0516 -0.0406,-0.0997 -0.0677,-0.14385 0,0 0,0 0,0 0,0 0,-0.003 0,-0.007 -0.004,0 -0.007,0 -0.007,0 0,0 0,0 0,0 0,0 0,0 0,0 0,0 0,-0.002 0,-0.007 0,0 0,0 0,0 0,0 0,0 0,0 h 0.10821 4.32901 0.0136 c 0.27953,0 0.51292,0.0235 0.69998,0.0702 0.18719,0.0467 0.32814,0.11438 0.42286,0.20288 0.0901,0.0885 0.15891,0.19185 0.20624,0.30983 0.0474,0.11803 0.071,0.24847 0.071,0.39102 v 0.55335 c 0,0.15248 -0.0248,0.27668 -0.0744,0.37269 -0.0496,0.0958 -0.12621,0.16598 -0.23001,0.21014 -0.0992,0.0444 -0.22315,0.0812 -0.37192,0.1107 -0.14888,0.0296 -0.31568,0.0493 -0.50057,0.059 v 0.0148 c 0,0 10e-4,0 0.003,0 0.002,0 0.003,0 0.003,0 0,0.005 10e-4,0.007 0.003,0.007 0.002,0 0.003,0 0.003,0 0,0 10e-4,0 0.003,0 0.002,0 0.003,0 0.003,0 0.005,0 0.009,0 0.0136,0 0.004,0 0.0113,0 0.0202,0 0.21196,0.0198 0.39119,0.0467 0.53774,0.0812 0.14656,0.0344 0.26041,0.0713 0.34163,0.1107 0.0811,0.0394 0.14206,0.0997 0.18262,0.18082 0.0406,0.0812 0.0608,0.18322 0.0608,0.30623 v 0.78195 c 0,0.14271 -0.0236,0.27307 -0.071,0.39105 -0.0473,0.11803 -0.1161,0.22138 -0.20624,0.30988 -0.0947,0.0934 -0.23567,0.16232 -0.42286,0.20672 -0.18706,0.0442 -0.42045,0.0663 -0.69998,0.0663 h -0.11504 -4.32901 -0.007 c 0,0 0,0 0,0 0,0 0,0 0,0 0,0 0,0 0,0 0,0 0.002,-0.002 0.007,-0.007 0,0 0,-0.001 0,-0.004 0,-0.002 0,-0.004 0,-0.004 0.0271,-0.0443 0.0497,-0.091 0.0677,-0.14017 0.018,-0.0493 0.0361,-0.10089 0.0541,-0.15502 0.0136,-0.054 0.0237,-0.1242 0.0305,-0.21016 0.007,-0.0861 0.0101,-0.18322 0.0101,-0.29152 z m 2.06311,-1.23952 v 1.26908 h 1.20396 c 0.0631,0 0.1161,-0.004 0.15894,-0.011 0.0429,-0.008 0.0756,-0.0185 0.0982,-0.0333 0.027,-0.0147 0.0472,-0.0405 0.0608,-0.0774 0.0136,-0.037 0.0203,-0.0848 0.0203,-0.14393 v -0.73777 c 0,-0.0542 -0.007,-0.0997 -0.0203,-0.1365 -0.0136,-0.037 -0.0338,-0.0627 -0.0608,-0.0775 -0.0226,-0.0147 -0.0553,-0.0271 -0.0982,-0.0369 -0.0428,-0.01 -0.0959,-0.0148 -0.15894,-0.0148 z m 0,-1.9036 v 1.12157 h 1.20396 c 0.0631,0 0.1161,-0.004 0.15894,-0.0112 0.0429,-0.007 0.0756,-0.0184 0.0982,-0.0332 0.027,-0.0147 0.0472,-0.0405 0.0608,-0.0774 0.0136,-0.037 0.0203,-0.085 0.0203,-0.14399 v -0.57549 c 0,-0.059 -0.007,-0.10814 -0.0203,-0.14751 -0.0136,-0.0394 -0.0338,-0.0664 -0.0608,-0.0812 -0.0226,-0.0147 -0.0553,-0.027 -0.0982,-0.0368 -0.0428,-0.01 -0.0959,-0.0149 -0.15894,-0.0149 z"
       style="fill:#ffffff;fill-rule:evenodd;stroke-width:0.264583"
       id="path835" />
    <path
       d="m 95.279065,143.77954 h 6.836175 v 6.83617 h -6.836175 z"
       style="fill:#2c448a;fill-rule:evenodd;stroke-width:0.264583;fill-opacity:1"
       id="path837" />
    <path
       d="m 109.5514,143.77954 h 6.8362 v 6.83617 h -6.8362 z"
       style="fill:#2c448a;fill-rule:evenodd;stroke-width:0.264583;fill-opacity:1"
       id="path839" />
    <path
       d="m 96.354199,151.72487 h 0.841428 c -0.02175,-0.10303 -0.08874,-0.18862 -0.200422,-0.25677 -0.111654,-0.0683 -0.262784,-0.10248 -0.454342,-0.10248 -0.144886,0 -0.26723,0.0207 -0.36584,0.0621 -0.09864,0.0416 -0.168539,0.0966 -0.208571,0.16512 l -0.535516,-0.0631 c 0.05424,-0.12255 0.175365,-0.22082 0.362558,-0.29482 0.187352,-0.0737 0.430874,-0.11078 0.731017,-0.11078 0.390314,0 0.694876,0.0667 0.913871,0.20023 0.219842,0.13367 0.329777,0.30782 0.329777,0.52216 0,0.14581 -0.05122,0.27136 -0.152982,0.37621 -0.101865,0.10491 -0.241671,0.18637 -0.41955,0.24442 -0.177826,0.0576 -0.392721,0.0865 -0.643599,0.0865 -0.611161,0 -0.987584,-0.14814 -1.12866,-0.44424 l 0.543084,-0.0866 c 0.02813,0.0999 0.0975,0.17393 0.207883,0.22209 0.109961,0.0481 0.242253,0.0721 0.395843,0.0721 0.158565,0 0.294005,-0.0286 0.407035,-0.0859 0.11229,-0.057 0.185262,-0.14873 0.218414,-0.27427 h -0.841428 z m 2.982304,0.80545 v -1.38248 h 0.541787 v 0.54391 h 1.06066 v -0.54391 h 0.54118 v 1.38248 h -0.54118 v -0.60457 h -1.06066 v 0.60457 z m 3.837147,0 v -1.38248 h 1.98758 v 0.234 h -1.4464 v 0.30636 h 1.34588 v 0.23281 h -1.34588 v 0.37621 h 1.49754 v 0.2331 z m 3.63156,0 v -1.38248 h 0.86821 c 0.32903,0 0.54382,0.007 0.64357,0.0208 0.15359,0.0205 0.28289,0.0657 0.38648,0.13515 0.10358,0.0695 0.15547,0.15936 0.15547,0.26908 0,0.0851 -0.0299,0.15645 -0.0899,0.21408 -0.0599,0.058 -0.1356,0.10334 -0.22791,0.1365 -0.0918,0.0329 -0.18547,0.0548 -0.28027,0.0653 -0.12917,0.0132 -0.31652,0.0199 -0.5619,0.0199 h -0.35258 v 0.52155 z m 0.54121,-1.14848 v 0.39196 h 0.29588 c 0.21352,0 0.35648,-0.007 0.42818,-0.0215 0.0718,-0.0145 0.128,-0.037 0.16917,-0.0679 0.0406,-0.0309 0.0612,-0.0667 0.0612,-0.10747 0,-0.0503 -0.0288,-0.0918 -0.0863,-0.12467 -0.0567,-0.0325 -0.12975,-0.0532 -0.21714,-0.0612 -0.0649,-0.006 -0.19476,-0.009 -0.38955,-0.009 z m 3.11713,-0.234 h 1.81653 v 0.23204 h -1.27471 v 1.15044 h -0.54182 z m 3.07044,0.69975 c 0,-0.141 0.0406,-0.25921 0.12232,-0.35476 0.0613,-0.0701 0.1443,-0.13364 0.24977,-0.18952 0.10543,-0.0557 0.22095,-0.0973 0.34641,-0.12427 0.16733,-0.0367 0.35955,-0.0548 0.57801,-0.0548 0.39526,0 0.71118,0.0631 0.9484,0.1896 0.23707,0.1262 0.35571,0.30202 0.35571,0.52702 0,0.22328 -0.1179,0.3978 -0.35325,0.52395 -0.23534,0.12592 -0.54996,0.189 -0.94326,0.189 -0.39894,0 -0.71605,-0.0629 -0.95139,-0.18804 -0.23535,-0.12555 -0.35272,-0.29843 -0.35272,-0.51816 z m 0.55756,-0.009 c 0,0.15645 0.0705,0.27525 0.21029,0.35602 0.14047,0.0808 0.31837,0.12105 0.53438,0.12105 0.2154,0 0.39253,-0.0399 0.53115,-0.12046 0.13806,-0.0801 0.2073,-0.20016 0.2073,-0.36045 0,-0.15848 -0.0674,-0.27651 -0.20161,-0.35483 -0.13483,-0.0778 -0.31401,-0.11668 -0.53684,-0.11668 -0.22358,0 -0.40336,0.0395 -0.54007,0.11835 -0.136,0.0789 -0.2046,0.1977 -0.2046,0.357 z"
       style="fill:#2c448a;fill-rule:evenodd;stroke-width:0.264583;fill-opacity:1"
       id="path841" />
    <path
       d="m 99.298906,147.96686 h -2.241524 l -0.344911,0.73981 c -0.0043,0.0111 -0.0095,0.0237 -0.0159,0.0377 -0.0064,0.014 -0.01177,0.0267 -0.01598,0.0378 0,0.006 -0.0011,0.0112 -0.0032,0.017 -0.0021,0.006 -0.0031,0.0111 -0.0031,0.0168 -0.0043,0.006 -0.0075,0.0126 -0.0096,0.0209 -0.0022,0.008 -0.0053,0.0182 -0.0096,0.0295 -0.0042,0.0112 -0.0074,0.0238 -0.0096,0.0378 -0.0021,0.014 -0.0031,0.0266 -0.0031,0.0379 0,0.0168 0,0.0323 0,0.0463 0,0.0139 0,0.0265 0,0.0377 0,0.0224 0,0.0435 0,0.0631 0,0.0196 0,0.035 0,0.0463 0,0.0167 10e-4,0.0322 0.0031,0.0463 0.0022,0.0139 0.0054,0.0266 0.0096,0.0377 0.0043,0.006 0.0074,0.0113 0.0096,0.0168 0.0021,0.006 0.0053,0.014 0.0096,0.0253 0,0.006 0.0011,0.0113 0.0031,0.0168 0.0022,0.006 0.0053,0.014 0.0096,0.0253 0.0043,0.006 0.0075,0.01 0.0096,0.0125 0.0021,0.003 0.0031,0.007 0.0031,0.0126 0.0085,0.0113 0.01598,0.0239 0.02236,0.038 0.0064,0.0139 0.01595,0.0294 0.02879,0.0462 h -1.436925 c 0.04252,-0.0506 0.07877,-0.0968 0.108611,-0.13867 0.02977,-0.0422 0.05527,-0.0828 0.07657,-0.12203 0.01283,-0.0167 0.02559,-0.0349 0.03831,-0.0545 0.01275,-0.0197 0.02551,-0.0407 0.03834,-0.0631 0.0085,-0.0168 0.01913,-0.0351 0.03194,-0.0547 0.01275,-0.0196 0.02551,-0.0378 0.03834,-0.0546 0.0042,-0.006 0.0085,-0.0112 0.01275,-0.0168 0.0043,-0.006 0.0085,-0.014 0.01275,-0.0253 0,-0.006 0.0021,-0.0127 0.0064,-0.021 0.0043,-0.008 0.0085,-0.0154 0.01275,-0.0211 0.0043,-0.006 0.0085,-0.0125 0.01281,-0.0209 0.0043,-0.009 0.0085,-0.0155 0.01283,-0.021 0.0042,-0.0112 0.0085,-0.0211 0.01275,-0.0295 0.0042,-0.008 0.0085,-0.0154 0.01275,-0.0211 0.0085,-0.0223 0.01913,-0.0461 0.03188,-0.0714 0.01281,-0.0253 0.02556,-0.049 0.03839,-0.0715 0.0043,-0.0112 0.0085,-0.021 0.01275,-0.0295 0.0043,-0.008 0.0085,-0.0153 0.01275,-0.021 0.0085,-0.0168 0.01701,-0.035 0.02556,-0.0545 0.0085,-0.0197 0.01696,-0.0407 0.02551,-0.0631 l 1.864809,-4.11922 -0.223572,-0.30263 h 2.318226 l 0.140494,0.3447 1.673166,4.30403 0.006,0.008 c 0.0298,0.0728 0.0606,0.14296 0.0926,0.21016 0.0319,0.0672 0.0691,0.13169 0.11173,0.19333 0.0383,0.0616 0.0777,0.12055 0.11814,0.17648 0.0405,0.0561 0.082,0.10927 0.12457,0.15984 h -2.560877 c 0.01704,-0.0336 0.03188,-0.0631 0.04471,-0.0883 0.01281,-0.0253 0.0213,-0.0463 0.02556,-0.0631 0.0085,-0.0168 0.01487,-0.0336 0.01913,-0.0504 0.0043,-0.0168 0.0085,-0.0336 0.01275,-0.0505 0,-0.006 0.0011,-0.01 0.0032,-0.0126 0.0022,-0.003 0.0031,-0.007 0.0031,-0.0126 0,-0.006 0.0011,-0.01 0.0032,-0.0127 0.0022,-0.003 0.0031,-0.007 0.0031,-0.0126 0,-0.0112 0,-0.021 0,-0.0293 0,-0.008 0,-0.0154 0,-0.0211 0,-0.005 -9.78e-4,-0.0112 -0.0031,-0.0168 -0.0021,-0.006 -0.0032,-0.014 -0.0032,-0.0251 0,-0.006 -9.79e-4,-0.0126 -0.0031,-0.0211 -0.0021,-0.008 -0.0032,-0.0155 -0.0032,-0.021 0,-0.0112 0,-0.0211 0,-0.0294 0,-0.008 0,-0.0155 0,-0.021 -0.0042,-0.0112 -0.0064,-0.0211 -0.0064,-0.0294 0,-0.008 0,-0.0155 0,-0.0212 0,-0.0111 -0.0011,-0.021 -0.0032,-0.0293 -0.0021,-0.008 -0.0052,-0.0183 -0.0095,-0.0294 0,-0.006 -0.0011,-0.014 -0.0032,-0.0253 -0.0021,-0.0113 -0.0052,-0.0196 -0.0095,-0.0253 0,-0.0111 -0.0011,-0.021 -0.0032,-0.0293 -0.0022,-0.008 -0.0053,-0.0183 -0.0095,-0.0294 0,-0.006 -0.0022,-0.014 -0.0064,-0.0254 -0.0043,-0.0112 -0.0086,-0.0195 -0.01275,-0.0251 z m -1.845601,-0.89114 h 1.513522 L 98.2388,145.25997 Z"
       style="fill:#ffffff;fill-rule:evenodd;stroke-width:0.264583"
       id="path843" />
    <path
       d="m 112.97307,147.12372 0.93967,-3.02229 h 2.32341 c 0,0 0,0 0,0 0,0 0,0 0,0 -0.004,0.006 -0.006,0.008 -0.006,0.008 0,0 0,0 0,0 0,0 0,0 0,0 0,0 0,0 0,0 0,0.006 0,0.008 0,0.008 0,0 0,0 0,0 -0.019,0.0497 -0.038,0.10348 -0.057,0.16148 -0.019,0.0581 -0.0361,0.11737 -0.0513,0.17796 -0.0151,0.0608 -0.0246,0.13673 -0.0284,0.22786 -0.004,0.091 -0.006,0.2001 -0.006,0.32708 v 3.49424 c 0,0.1215 0.002,0.23048 0.006,0.32708 0.004,0.0967 0.0134,0.17521 0.0284,0.23595 0.0151,0.0607 0.0323,0.11872 0.0513,0.17384 0.019,0.0553 0.038,0.10779 0.057,0.15734 0,0.006 0,0.01 0,0.0125 0,0.003 0,0.004 0,0.004 0,0 0,0 0,0 0,0 0.002,0 0.006,0 0,0 0,0 0,0 0,0 0,0 0,0 h -2.02731 c 0,0 0,0 0,0 0,0 0,0 0,0 0,0 0,0 0,0 0,0 0.002,-0.003 0.006,-0.008 0,0 0,-0.001 0,-0.004 0,-0.003 0,-0.004 0,-0.004 0.0228,-0.0495 0.0418,-0.10207 0.057,-0.15734 0.0152,-0.0551 0.0303,-0.11309 0.0456,-0.17384 0.0114,-0.0607 0.0199,-0.13927 0.0256,-0.23595 0.006,-0.0966 0.009,-0.20558 0.009,-0.32708 v -3.27909 h -0.0114 l -1.26426,4.18997 h -1.21298 l -1.22439,-4.18997 h -0.0171 v 3.2376 c 0,0.11597 8e-4,0.2167 0.003,0.30234 0.002,0.0855 0.007,0.156 0.0143,0.21112 0.004,0.0552 0.0113,0.10628 0.0228,0.15316 0.0113,0.047 0.0266,0.0926 0.0455,0.13663 0.007,0.005 0.0123,0.0125 0.0142,0.0208 0.002,0.008 0.005,0.0178 0.009,0.0289 0.004,0.005 0.007,0.01 0.008,0.0124 0.002,0.003 0.003,0.007 0.003,0.0124 0.004,0.006 0.007,0.01 0.009,0.0125 0.002,0.003 0.005,0.007 0.009,0.0124 0.004,0.005 0.008,0.0125 0.0142,0.0207 0.006,0.008 0.0124,0.018 0.0199,0.029 h -1.09344 c 0.004,-0.006 0.008,-0.011 0.0114,-0.0167 0.004,-0.005 0.008,-0.0137 0.0115,-0.0247 0,-0.006 0.002,-0.0111 0.006,-0.0166 0.004,-0.005 0.008,-0.0109 0.0114,-0.0165 0.004,-0.006 0.008,-0.0111 0.0114,-0.0166 0.004,-0.005 0.008,-0.0137 0.0114,-0.0249 0.004,-0.005 0.008,-0.011 0.0113,-0.0164 0.004,-0.006 0.008,-0.0112 0.0115,-0.0167 0.019,-0.0441 0.0341,-0.0896 0.0456,-0.13663 0.0113,-0.0469 0.019,-0.0979 0.0227,-0.15316 0,-0.0165 0.001,-0.0359 0.003,-0.0579 0.002,-0.0221 0.003,-0.047 0.003,-0.0746 0.004,-0.0496 0.007,-0.1062 0.008,-0.16973 0.002,-0.0634 0.003,-0.1338 0.003,-0.21122 v -3.41143 c 0,-0.0773 -7.9e-4,-0.14769 -0.003,-0.21121 -0.002,-0.0634 -0.005,-0.11999 -0.008,-0.16971 0,-0.022 -10e-4,-0.0441 -0.003,-0.0662 -0.002,-0.0222 -0.003,-0.0413 -0.003,-0.058 -0.004,-0.0551 -0.0114,-0.10761 -0.0227,-0.15735 -0.0115,-0.0496 -0.0266,-0.0965 -0.0456,-0.14076 -0.004,-0.005 -0.008,-0.011 -0.0115,-0.0165 -0.004,-0.006 -0.008,-0.0111 -0.0113,-0.0166 -0.004,-0.005 -0.008,-0.011 -0.0114,-0.0165 -0.004,-0.006 -0.008,-0.0111 -0.0114,-0.0166 -0.004,-0.005 -0.008,-0.011 -0.0114,-0.0165 -0.004,-0.006 -0.006,-0.0139 -0.006,-0.0248 -0.004,-0.006 -0.008,-0.0125 -0.0115,-0.0208 -0.004,-0.008 -0.007,-0.0151 -0.0114,-0.0206 h 2.39183 l 0.86572,3.02229 z"
       style="fill:#ffffff;fill-rule:evenodd;stroke-width:0.264583"
       id="path845" />
  </g>
</svg>
