<?xml version="1.0" encoding="UTF-8" standalone="no"?>
<svg
   xmlns:dc="http://purl.org/dc/elements/1.1/"
   xmlns:cc="http://creativecommons.org/ns#"
   xmlns:rdf="http://www.w3.org/1999/02/22-rdf-syntax-ns#"
   xmlns:svg="http://www.w3.org/2000/svg"
   xmlns="http://www.w3.org/2000/svg"
   xmlns:sodipodi="http://sodipodi.sourceforge.net/DTD/sodipodi-0.dtd"
   xmlns:inkscape="http://www.inkscape.org/namespaces/inkscape"
   width="112.36481mm"
   height="100.3497mm"
   viewBox="0 0 112.36481 100.3497"
   version="1.1"
   id="svg962"
   inkscape:version="1.0.1 (3bc2e813f5, 2020-09-07)"
   sodipodi:docname="reset.svg">
  <defs
     id="defs956" />
  <sodipodi:namedview
     id="base"
     pagecolor="#ffffff"
     bordercolor="#666666"
     borderopacity="1.0"
     inkscape:pageopacity="0.0"
     inkscape:pageshadow="2"
     inkscape:zoom="0.24641961"
     inkscape:cx="-419.99111"
     inkscape:cy="313.94233"
     inkscape:document-units="mm"
     inkscape:current-layer="layer1"
     inkscape:document-rotation="0"
     showgrid="false"
     inkscape:window-width="1440"
     inkscape:window-height="900"
     inkscape:window-x="1615"
     inkscape:window-y="2"
     inkscape:window-maximized="0" />
  <metadata
     id="metadata959">
    <rdf:RDF>
      <cc:Work
         rdf:about="">
        <dc:format>image/svg+xml</dc:format>
        <dc:type
           rdf:resource="http://purl.org/dc/dcmitype/StillImage" />
        <dc:title />
      </cc:Work>
    </rdf:RDF>
  </metadata>
  <g
     inkscape:label="Слой 1"
     inkscape:groupmode="layer"
     id="layer1"
     transform="translate(-1.7759749,73.187384)">
    <g
       id="g887"
       transform="matrix(3.725711,0,0,3.8420612,-591.77609,-98.095954)">
      <path
         sodipodi:type="star"
         style="fill:none;fill-opacity:1;fill-rule:evenodd;stroke:#8cc800;stroke-width:1;stroke-miterlimit:4;stroke-dasharray:none;stroke-opacity:1"
         id="path927-18"
         sodipodi:sides="6"
         sodipodi:cx="174.39207"
         sodipodi:cy="19.542484"
         sodipodi:r1="14.502296"
         sodipodi:r2="12.559356"
         sodipodi:arg1="1.0471976"
         sodipodi:arg2="1.5707963"
         inkscape:flatsided="true"
         inkscape:rounded="0"
         inkscape:randomized="0"
         d="m 181.64322,32.101842 -14.50229,-10e-7 -7.25115,-12.559357 7.25115,-12.5593572 14.50229,7e-7 7.25115,12.5593575 z" />
      <path
         d="m 179.41448,15.044789 -0.18391,0.183751 c 1.23631,1.235996 1.85352,2.853628 1.85384,4.474401 -3.5e-4,1.620774 -0.61753,3.239977 -1.85384,4.475973 -1.23662,1.235997 -2.85488,1.85321 -4.47566,1.85478 -1.62061,-0.0015 -3.23903,-0.618783 -4.4755,-1.85478 -1.23646,-1.235996 -1.85368,-2.855199 -1.85384,-4.475973 1.6e-4,-1.620773 0.61738,-3.238405 1.85384,-4.474401 1.23647,-1.237568 2.85489,-1.85478 4.4755,-1.85478 1.62078,0 3.23904,0.617212 4.47566,1.85478 l 0.18391,-0.183751 0.18391,-0.185321 c -1.33682,-1.33651 -3.09141,-2.005549 -4.84348,-2.005549 -1.75207,0 -3.50665,0.669039 -4.84347,2.005549 -1.33698,1.33808 -2.00649,3.092347 -2.00618,4.843473 -3.1e-4,1.752697 0.6692,3.506965 2.00618,4.843474 1.33682,1.338079 3.0914,2.00712 4.84347,2.00712 1.75207,0 3.50666,-0.669041 4.84348,-2.00712 1.33698,-1.336509 2.00649,-3.090777 2.00617,-4.843474 3.2e-4,-1.751126 -0.66919,-3.505393 -2.00617,-4.843473 l -0.18391,0.185321"
         style="fill:#ff0000;fill-opacity:1;fill-rule:nonzero;stroke:none;stroke-width:0.0157052"
         id="path889" />
      <path
         d="m 178.18822,16.269792 -0.18391,0.183751 c 0.89786,0.898335 1.34562,2.073082 1.34594,3.249398 -3.2e-4,1.177889 -0.44808,2.352634 -1.34594,3.2494 -0.89802,0.898335 -2.07245,1.345933 -3.2494,1.345933 -1.17694,0 -2.35138,-0.447598 -3.2494,-1.345933 -0.89771,-0.896766 -1.34561,-2.071511 -1.34593,-3.2494 3.2e-4,-1.176316 0.44822,-2.351063 1.34593,-3.249398 0.89802,-0.896765 2.07246,-1.344363 3.2494,-1.345933 1.17695,0.0015 2.35138,0.449168 3.2494,1.345933 l 0.18391,-0.183751 0.1839,-0.18375 c -0.99805,-0.998849 -2.30882,-1.498273 -3.61721,-1.498273 -1.30824,0 -2.61899,0.499424 -3.61721,1.498273 -0.99838,0.998848 -1.49859,2.308659 -1.49827,3.616899 -3.3e-4,1.308241 0.49989,2.619622 1.49827,3.618471 0.99822,0.997278 2.30882,1.498273 3.61721,1.498273 1.30839,0 2.61916,-0.500995 3.61721,-1.498273 0.99838,-0.998849 1.49875,-2.31023 1.49843,-3.618471 3.6e-4,-1.30824 -0.49989,-2.618051 -1.49843,-3.616899 l -0.1839,0.18375"
         style="fill:#ff0000;fill-opacity:1;fill-rule:nonzero;stroke:none;stroke-width:0.0157052"
         id="path891" />
      <path
         style="fill:none;stroke:#ff0000;stroke-width:0.411122;stroke-linecap:butt;stroke-linejoin:miter;stroke-miterlimit:4;stroke-dasharray:none;stroke-opacity:1"
         d="m 181.20762,18.295626 c 0.46863,2.692472 1.78664,3.500214 1.78664,3.500214"
         id="path6099-4" />
      <path
         style="fill:none;stroke:#ff0000;stroke-width:0.419178;stroke-linecap:butt;stroke-linejoin:miter;stroke-miterlimit:4;stroke-dasharray:none;stroke-opacity:1"
         d="m 168.31433,21.182959 c -0.49065,-2.673441 -1.87058,-3.475472 -1.87058,-3.475472"
         id="path6099-4-3-7" />
      <path
         style="fill:none;stroke:#ff0000;stroke-width:0.4;stroke-linecap:butt;stroke-linejoin:miter;stroke-miterlimit:4;stroke-dasharray:none;stroke-opacity:1"
         d="m 179.17847,17.543295 c 0.82621,2.946833 -1.84522,4.020913 -1.84522,4.020913"
         id="path863" />
      <path
         style="fill:none;stroke:#ff0000;stroke-width:0.4;stroke-linecap:butt;stroke-linejoin:miter;stroke-miterlimit:4;stroke-dasharray:none;stroke-opacity:1"
         d="m 170.27215,21.712616 c -0.82621,-2.946833 1.84522,-4.020913 1.84522,-4.020913"
         id="path863-8" />
    </g>
  </g>
</svg>
