<?xml version="1.0" encoding="UTF-8" standalone="no"?>
<svg
   xmlns:dc="http://purl.org/dc/elements/1.1/"
   xmlns:cc="http://creativecommons.org/ns#"
   xmlns:rdf="http://www.w3.org/1999/02/22-rdf-syntax-ns#"
   xmlns:svg="http://www.w3.org/2000/svg"
   xmlns="http://www.w3.org/2000/svg"
   xmlns:sodipodi="http://sodipodi.sourceforge.net/DTD/sodipodi-0.dtd"
   xmlns:inkscape="http://www.inkscape.org/namespaces/inkscape"
   width="30.159294mm"
   height="26.118715mm"
   viewBox="0 0 30.159294 26.118715"
   version="1.1"
   id="svg2258"
   inkscape:version="1.0.1 (3bc2e813f5, 2020-09-07)"
   sodipodi:docname="tn3.svg">
  <defs
     id="defs2252" />
  <sodipodi:namedview
     id="base"
     pagecolor="#ffffff"
     bordercolor="#666666"
     borderopacity="1.0"
     inkscape:pageopacity="0.0"
     inkscape:pageshadow="2"
     inkscape:zoom="0.29367816"
     inkscape:cx="-796.0785"
     inkscape:cy="-800.34825"
     inkscape:document-units="mm"
     inkscape:current-layer="layer1"
     inkscape:document-rotation="0"
     showgrid="false"
     inkscape:window-width="1333"
     inkscape:window-height="900"
     inkscape:window-x="1640"
     inkscape:window-y="2"
     inkscape:window-maximized="0" />
  <metadata
     id="metadata2255">
    <rdf:RDF>
      <cc:Work
         rdf:about="">
        <dc:format>image/svg+xml</dc:format>
        <dc:type
           rdf:resource="http://purl.org/dc/dcmitype/StillImage" />
        <dc:title></dc:title>
      </cc:Work>
    </rdf:RDF>
  </metadata>
  <g
     inkscape:label="Layer 1"
     inkscape:groupmode="layer"
     id="layer1"
     transform="translate(-316.46244,-359.92548)">
    <g
       id="g2831">
      <path
         sodipodi:type="star"
         style="fill:none;fill-opacity:1;fill-rule:evenodd;stroke:#8cc800;stroke-width:1;stroke-miterlimit:4;stroke-dasharray:none;stroke-opacity:1"
         id="path927-9-3-6-4-4-7-2-8-9-3"
         sodipodi:sides="6"
         sodipodi:cx="331.54208"
         sodipodi:cy="372.98483"
         sodipodi:r1="14.502296"
         sodipodi:r2="12.559356"
         sodipodi:arg1="1.0471976"
         sodipodi:arg2="1.5707963"
         inkscape:flatsided="true"
         inkscape:rounded="0"
         inkscape:randomized="0"
         d="m 338.79323,385.54419 -14.5023,0 -7.25114,-12.55936 7.25115,-12.55935 14.50229,0 7.25115,12.55935 z" />
      <path
         style="fill:#8cc800;fill-opacity:1;stroke-width:0.141384"
         d="m 330.07439,380.52638 c -1.53688,-0.33195 -2.85779,-1.09431 -3.6442,-2.10325 -0.59945,-0.76907 -0.5212,-1.01737 0.51089,-1.62112 0.49288,-0.28832 0.95415,-0.52422 1.02504,-0.52422 0.0709,0 0.30669,0.22284 0.524,0.49519 0.69051,0.86542 1.37455,1.12162 3.00764,1.12649 1.30859,0.004 1.48979,-0.03 2.24702,-0.41991 1.86921,-0.96259 1.81724,-2.81911 -0.10646,-3.80293 -0.66051,-0.3378 -1.05375,-0.4302 -2.11688,-0.49743 -1.30567,-0.0826 -1.30567,-0.0826 -1.30567,-1.35502 0,-1.27246 0,-1.27246 1.27246,-1.35465 2.40988,-0.15565 3.59698,-1.29104 2.49844,-2.38959 -0.48591,-0.48591 -1.22617,-0.70753 -2.36674,-0.70858 -1.32024,-10e-4 -2.28217,0.33773 -2.62958,0.92657 -0.15787,0.26756 -0.34292,0.48648 -0.41123,0.48648 -0.27118,0 -2.03499,-0.72689 -2.12766,-0.87684 -0.27207,-0.44021 0.60903,-1.65701 1.61649,-2.2324 2.31868,-1.32426 6.1426,-1.02845 7.85094,0.60732 1.45761,1.39571 1.52832,3.76511 0.15078,5.05305 -0.53591,0.50106 -0.53591,0.50106 0.11503,0.98969 0.37459,0.2812 0.83635,0.81876 1.08769,1.26625 0.4001,0.71235 0.43626,0.88443 0.43079,2.05008 -0.005,1.09204 -0.0585,1.37269 -0.37659,1.97938 -0.61143,1.16622 -1.79438,2.14457 -3.18193,2.63156 -0.91963,0.32276 -3.14932,0.47279 -4.07027,0.27388 z m 3.06815,-0.44741 c 2.4097,-0.50683 4.01369,-2.10649 4.17915,-4.16785 0.13082,-1.62968 -0.57959,-2.91795 -2.04225,-3.70346 -0.73309,-0.3937 -0.73309,-0.3937 -0.11491,-0.72165 1.58312,-0.83984 1.96913,-3.11971 0.77375,-4.56991 -1.90383,-2.30968 -7.40582,-2.13672 -8.86354,0.27863 -0.31363,0.51965 -0.31363,0.51965 0.48449,0.81746 0.79812,0.29781 0.79812,0.29781 1.32588,-0.22995 0.65199,-0.652 1.68739,-0.90802 3.20819,-0.79327 1.21687,0.0918 2.12723,0.48641 2.47313,1.07199 0.81931,1.38696 -0.45675,2.6632 -2.80958,2.80999 -1.18761,0.0741 -1.18761,0.0741 -1.18761,0.95543 0,0.88134 0,0.88134 1.16642,0.94626 0.78775,0.0438 1.40701,0.16983 1.90751,0.38809 2.37543,1.03588 2.5125,3.58561 0.25483,4.74039 -0.76492,0.39126 -0.95268,0.42674 -2.25826,0.42674 -1.71526,0 -2.52448,-0.26269 -3.23629,-1.05059 -0.48715,-0.53922 -0.48715,-0.53922 -1.21075,-0.12145 -0.39799,0.22977 -0.72361,0.47596 -0.72361,0.54708 0,0.25312 1.0472,1.28298 1.68479,1.65689 1.30502,0.76532 3.36047,1.06164 4.98866,0.71918 z"
         id="path1137" />
    </g>
  </g>
</svg>
