<?xml version="1.0" encoding="UTF-8" standalone="no"?>
<svg
   xmlns:dc="http://purl.org/dc/elements/1.1/"
   xmlns:cc="http://creativecommons.org/ns#"
   xmlns:rdf="http://www.w3.org/1999/02/22-rdf-syntax-ns#"
   xmlns:svg="http://www.w3.org/2000/svg"
   xmlns="http://www.w3.org/2000/svg"
   xmlns:sodipodi="http://sodipodi.sourceforge.net/DTD/sodipodi-0.dtd"
   xmlns:inkscape="http://www.inkscape.org/namespaces/inkscape"
   width="30.159294mm"
   height="26.118715mm"
   viewBox="0 0 30.159294 26.118715"
   version="1.1"
   id="svg2320"
   inkscape:version="1.0.1 (3bc2e813f5, 2020-09-07)"
   sodipodi:docname="tnprotocol.svg">
  <defs
     id="defs2314" />
  <sodipodi:namedview
     id="base"
     pagecolor="#ffffff"
     bordercolor="#666666"
     borderopacity="1.0"
     inkscape:pageopacity="0.0"
     inkscape:pageshadow="2"
     inkscape:zoom="0.29367816"
     inkscape:cx="205.01743"
     inkscape:cy="-279.36977"
     inkscape:document-units="mm"
     inkscape:current-layer="layer1"
     inkscape:document-rotation="0"
     showgrid="false"
     inkscape:window-width="1333"
     inkscape:window-height="900"
     inkscape:window-x="1665"
     inkscape:window-y="2"
     inkscape:window-maximized="0" />
  <metadata
     id="metadata2317">
    <rdf:RDF>
      <cc:Work
         rdf:about="">
        <dc:format>image/svg+xml</dc:format>
        <dc:type
           rdf:resource="http://purl.org/dc/dcmitype/StillImage" />
        <dc:title></dc:title>
      </cc:Work>
    </rdf:RDF>
  </metadata>
  <g
     inkscape:label="Layer 1"
     inkscape:groupmode="layer"
     id="layer1"
     transform="translate(-51.589138,-222.08325)">
    <g
       id="g2893">
      <path
         sodipodi:type="star"
         style="fill:none;fill-opacity:1;fill-rule:evenodd;stroke:#8cc800;stroke-width:1;stroke-miterlimit:4;stroke-dasharray:none;stroke-opacity:1"
         id="path927-9-3-6-4-4-7-2-8-9-3-6-9-3"
         sodipodi:sides="6"
         sodipodi:cx="66.668785"
         sodipodi:cy="235.14261"
         sodipodi:r1="14.502296"
         sodipodi:r2="12.559356"
         sodipodi:arg1="1.0471976"
         sodipodi:arg2="1.5707963"
         inkscape:flatsided="true"
         inkscape:rounded="0"
         inkscape:randomized="0"
         d="m 73.919933,247.70197 -14.502297,0 -7.251147,-12.55936 7.251148,-12.55936 14.502297,0 7.251148,12.55936 z" />
      <path
         style="fill:none;stroke:#8cc800;stroke-width:0.367784;stroke-miterlimit:4;stroke-dasharray:none;stroke-opacity:1"
         d="m 73.198642,244.41481 c -0.0749,-0.3639 -0.25893,-0.79531 -0.482509,-1.13114 -0.545021,-0.81861 -1.41664,-1.34571 -2.395891,-1.44885 -0.0889,-0.009 -0.6903,-0.017 -1.348139,-0.0172 l -1.18765,-3.1e-4 v -0.27294 -0.27294 l 0.53594,-0.007 c 0.487479,-0.006 0.5468,-0.0106 0.655999,-0.0441 0.47398,-0.14557 0.83213,-0.51004 0.96358,-0.98058 0.0298,-0.10658 0.0312,-0.33866 0.0312,-5.28229 0,-4.94361 -8.99e-4,-5.17569 -0.0312,-5.28227 -0.10884,-0.38959 -0.383849,-0.72091 -0.74062,-0.89226 -0.287029,-0.13786 -0.0975,-0.12819 -2.512519,-0.12819 -2.41607,0 -2.225271,-0.009 -2.513851,0.12882 -0.35665,0.17128 -0.630229,0.50124 -0.73928,0.89163 -0.0298,0.10658 -0.0312,0.33866 -0.0312,5.28227 0,4.94363 0.002,5.17571 0.0312,5.28229 0.10906,0.39041 0.38272,0.72045 0.73928,0.89159 0.24852,0.11928 0.282801,0.12446 0.88028,0.13285 l 0.535951,0.007 v 0.27242 0.27241 l -2.945551,0.006 c -1.97049,0.003 -2.9697,0.012 -3.01845,0.0239 l -0.0729,0.018 v -0.29554 -0.29553 l 0.26153,-0.009 c 0.2924,-0.0105 0.4176,-0.0387 0.62171,-0.14033 0.34806,-0.1733 0.61661,-0.5014 0.72347,-0.88393 0.0298,-0.10657 0.0312,-0.33867 0.0312,-5.28228 0,-4.94362 -9e-4,-5.17571 -0.0312,-5.28229 -0.10885,-0.38957 -0.38394,-0.72096 -0.74063,-0.89218 -0.20438,-0.0981 -0.30906,-0.12092 -0.60455,-0.13178 l -0.26153,-0.009 v -0.27211 -0.27212 h 7.13451 7.13452 v 0.27212 0.2721 l -0.261549,0.009 c -0.295891,0.0108 -0.4001,0.0337 -0.60588,0.13241 -0.35655,0.17115 -0.63022,0.50119 -0.739281,0.89159 -0.0298,0.10657 -0.0312,0.33866 -0.0312,5.28228 0,4.94362 0.002,5.1757 0.0312,5.28228 0.109061,0.39041 0.382731,0.72045 0.739281,0.89159 0.20578,0.0988 0.309989,0.12155 0.60588,0.13241 l 0.261549,0.009 v 1.64414 1.64412 h -0.296269 -0.29627 z"
         id="path2277" />
    </g>
  </g>
</svg>
