<?xml version="1.0" encoding="UTF-8" standalone="no"?>
<svg
   xmlns:dc="http://purl.org/dc/elements/1.1/"
   xmlns:cc="http://creativecommons.org/ns#"
   xmlns:rdf="http://www.w3.org/1999/02/22-rdf-syntax-ns#"
   xmlns:svg="http://www.w3.org/2000/svg"
   xmlns="http://www.w3.org/2000/svg"
   xmlns:sodipodi="http://sodipodi.sourceforge.net/DTD/sodipodi-0.dtd"
   xmlns:inkscape="http://www.inkscape.org/namespaces/inkscape"
   width="30.159294mm"
   height="26.118715mm"
   viewBox="0 0 30.159294 26.118715"
   version="1.1"
   id="svg3989"
   sodipodi:docname="tnwrite.svg"
   inkscape:version="1.0.1 (3bc2e813f5, 2020-09-07)">
  <sodipodi:namedview
     pagecolor="#ffffff"
     bordercolor="#666666"
     borderopacity="1"
     objecttolerance="10"
     gridtolerance="10"
     guidetolerance="10"
     inkscape:pageopacity="0"
     inkscape:pageshadow="2"
     inkscape:window-width="1440"
     inkscape:window-height="878"
     id="namedview11"
     showgrid="false"
     inkscape:zoom="2.4774141"
     inkscape:cx="23.352421"
     inkscape:cy="105.43894"
     inkscape:window-x="-8"
     inkscape:window-y="-8"
     inkscape:window-maximized="1"
     inkscape:current-layer="svg3989" />
  <defs
     id="defs3983" />
  <metadata
     id="metadata3986">
    <rdf:RDF>
      <cc:Work
         rdf:about="">
        <dc:format>image/svg+xml</dc:format>
        <dc:type
           rdf:resource="http://purl.org/dc/dcmitype/StillImage" />
        <dc:title></dc:title>
      </cc:Work>
    </rdf:RDF>
  </metadata>
  <g
     id="g849">
    <path
       style="fill:#649600;fill-opacity:0.25;fill-rule:evenodd;stroke:#8cc800;stroke-width:1;stroke-miterlimit:4;stroke-dasharray:none;stroke-opacity:1"
       id="path927-8"
       d="m 22.330798,25.61872 -14.502296,-1e-6 -7.251148,-12.559357 7.251149,-12.5593571 14.502296,7e-7 7.251148,12.5593574 z" />
    <path
       d="M 13.962707,6.733675 H 9.395675 c -0.735669,0 -1.331874,0.596592 -1.332003,1.332647 v 10.585 c 1.29e-4,0.736056 0.596334,1.331357 1.332003,1.331357 h 10.585644 c 0.735799,0 1.331874,-0.595301 1.332003,-1.331357 v -4.56742 c 0,-0.117512 -0.09568,-0.21307 -0.213844,-0.21307 -0.118157,0 -0.213843,0.09556 -0.213843,0.21307 v 4.56742 c -9.7e-5,0.250518 -0.10098,0.475208 -0.26485,0.639206 -0.164386,0.163998 -0.389077,0.264723 -0.639466,0.264723 H 9.395675 c -0.250388,0 -0.47508,-0.10072 -0.639335,-0.264723 C 8.592341,19.12653 8.491489,18.90184 8.491359,18.651322 v -10.585 C 8.491489,7.815806 8.59234,7.591113 8.75634,7.425826 8.920595,7.261826 9.145287,7.161103 9.395675,7.161103 h 4.567032 c 0.118157,0 0.213844,-0.09556 0.213844,-0.213069 0,-0.118802 -0.09568,-0.214359 -0.213844,-0.214359"
       style="fill:#309220;fill-opacity:1;fill-rule:nonzero;stroke:none;stroke-width:0.0129132"
       id="path1019" />
    <path
       d="M 15.232726,8.003047 H 9.910528 C 9.591827,8.004347 9.33382,8.261313 9.333692,8.580271 v 9.555812 c 1.25e-4,0.318957 0.258135,0.577222 0.576836,0.577222 h 9.555939 c 0.318571,0 0.576707,-0.258265 0.576837,-0.577222 v -5.321554 c 0,-0.118802 -0.09582,-0.214361 -0.213972,-0.214361 -0.118029,0 -0.213845,0.09556 -0.213845,0.214361 v 5.321554 c -9.7e-5,0.08264 -0.06676,0.149794 -0.14902,0.149794 H 9.910528 c -0.08227,0 -0.148891,-0.06715 -0.14902,-0.149794 V 8.580271 c 1.29e-4,-0.08264 0.06676,-0.148503 0.14902,-0.148503 h 5.322198 c 0.118158,0 0.213973,-0.09556 0.213973,-0.21436 0,-0.11751 -0.09582,-0.214361 -0.213973,-0.214361"
       style="fill:#309220;fill-opacity:1;fill-rule:nonzero;stroke:none;stroke-width:0.0129132"
       id="path1021" />
    <path
       d="m 23.525623,7.000978 -7.318075,7.317946 c -0.08341,0.08394 -0.08341,0.219524 0,0.302169 l 0.921104,0.922006 -4.957143,0.396438 0.396565,-4.9574 0.921105,0.920715 c 0.03978,0.04003 0.09491,0.06328 0.151214,0.06328 0.0563,0 0.11144,-0.02325 0.151214,-0.06328 l 5.584726,-5.584985 c 0.08355,-0.08264 0.08355,-0.218234 0,-0.30217 -0.08342,-0.08394 -0.218881,-0.08394 -0.302428,0 l -5.433512,5.4339 -1.097368,-1.097628 c -0.05875,-0.0594 -0.147083,-0.07877 -0.225079,-0.04907 -0.07812,0.02841 -0.132749,0.10072 -0.139334,0.183369 l -0.453515,5.668921 c -0.005,0.06199 0.01769,0.123967 0.06198,0.167871 0.04429,0.0452 0.105891,0.06715 0.16839,0.06199 l 5.669051,-0.453256 c 0.08291,-0.0065 0.15483,-0.0607 0.183626,-0.139463 0.02879,-0.07748 0.0093,-0.165289 -0.04945,-0.22469 l -1.097374,-1.097628 7.166859,-7.16686 c 0.08355,-0.08264 0.08355,-0.218233 0,-0.302171 -0.08355,-0.08394 -0.219008,-0.08394 -0.302427,0"
       style="fill:#309220;fill-opacity:1;fill-rule:nonzero;stroke:none;stroke-width:0.0129132"
       id="path1023" />
  </g>
</svg>
