<svg width="26" height="22" viewBox="0 0 26 22" xmlns="http://www.w3.org/2000/svg">
<path d="M18.7517 6.76811V8.39311C21.8522 8.39311 24.375 11.1077 24.375 14.4454C24.375 17.4866 22.2796 20.0108 19.5612 20.4344C19.1178 20.5035 18.7517 20.8607 18.7517 21.3094C18.7517 21.7581 19.117 22.1269 19.5627 22.0742C23.1791 21.6459 26 18.3882 26 14.4454C26 10.2123 22.7484 6.76811 18.7517 6.76811ZM7.96822 1.2351C8.40789 0.767048 8.07603 0 7.43386 0C7.23147 0 7.03809 0.0836648 6.89952 0.231175L0.521442 7.02067C0.228162 7.33287 0.227628 7.81913 0.520221 8.13197L7.06304 15.1276C7.20092 15.275 7.39375 15.3587 7.5956 15.3587C8.2336 15.3587 8.56396 14.5972 8.1281 14.1313L4.03931 9.76069C3.55365 9.24156 3.92176 8.39312 4.63264 8.39312L18.7517 8.39311V6.76811L4.64867 6.76812C3.93699 6.76812 3.56921 5.91804 4.05647 5.39933L7.96822 1.2351Z" fill="#000000"/>
</svg>
