<svg width="110.9mm" height="96.041mm" version="1.1" viewBox="0 0 110.9 96.041" xmlns="http://www.w3.org/2000/svg">
 <path transform="translate(-42.58 43.341)" d="m124.69 50.862-53.326-3e-6 -26.663-46.182 26.663-46.182 53.326 3e-6 26.663 46.182z" fill="none" stroke="#8cc800" stroke-width="3.6771"/>
 <path transform="translate(-42.58 43.341)" d="m114.56 32.345v-0.64306h-40.501c-0.64891-0.0037-1.2304-0.26115-1.6564-0.68594-0.42483-0.42872-0.68556-1.0094-0.68594-1.6564v-40.501c0-0.65084 0.26111-1.2316 0.68594-1.6564 0.42597-0.42483 1.0074-0.68594 1.6564-0.68594h40.501c0.64853 0 1.2304 0.26111 1.656 0.68594 0.42518 0.4248 0.68591 1.0055 0.68632 1.6564v40.501c0 0.64698-0.26115 1.2277-0.68632 1.6564-0.42559 0.4248-1.0075 0.68203-1.656 0.68594v1.29c2.0068 0 3.6327-1.6291 3.6331-3.6323v-40.501c0-2.0071-1.6264-3.6362-3.6331-3.6362h-40.501c-2.0067 0-3.6331 1.6291-3.6335 3.6362v40.501c0 2.0033 1.6267 3.6323 3.6335 3.6323h40.501v-0.64695" fill="#32ae20"/>
 <g>
  <g transform="matrix(.036058 0 0 .040288 33.104 30.838)" fill="#32ae20" stroke-width=".9919">
   <g transform="matrix(.1 0 0 -.1 0 511)" fill="#32ae20" stroke-width="9.919">
    <path d="m5092 3627.5c-25.1-16.7-54.3-56.4-66.8-87.7-14.6-31.3-213-1050.4-442.7-2261.5-231.8-1211.1-426-2219.7-430.2-2240.6-6.3-20.9-27.1-35.5-45.9-31.3-27.2 4.2-85.6 179.6-246.4 716.2-114.9 390.5-221.4 730.9-233.9 755.9-64.7 116.9-244.3 137.8-338.3 37.6-41.8-43.9-213-603.5-440.6-1434.6l-20.9-79.3h-1278c-975.2 0-1290.5-6.3-1330.2-27.1-68.9-33.5-133.6-167.1-114.8-238.1 6.3-29.2 39.7-79.3 73.1-112.7l58.5-60.6h1417.9c1549.4 0 1474.3-6.3 1539 121.1 14.6 31.3 77.3 238.1 137.8 457.3 60.6 221.3 114.9 400.9 116.9 396.8 2.1-2.1 52.2-169.2 110.7-369.6 58.5-200.5 121.1-405.1 139.9-455.2 50.1-133.7 100.2-150.4 430.2-150.4 309 0 355 14.6 403 133.7 14.6 35.5 152.4 724.6 304.9 1530.6 154.5 806 281.9 1461.7 286.1 1459.6 2.1-4.2 83.5-1104.6 181.7-2447.3 96-1342.7 181.7-2470.3 187.9-2507.9 33.4-187.9 317.4-236 407.2-68.9 10.4 20.9 160.8 783.1 334.1 1693.5 171.1 908.3 315.2 1655.9 319.4 1660 4.2 4.2 56.4-275.6 117-624.4 60.5-346.7 119-657.8 131.5-689.1s46-77.3 75.2-98.2c50.1-39.7 91.9-41.8 1465.9-41.8 1386.6 0 1415.8 0 1468 41.8 29.2 23 64.8 75.2 77.3 114.9 20.9 62.6 18.8 85.6-14.6 150.4-20.9 43.8-60.5 89.8-89.8 104.4-39.7 20.9-350.8 27.1-1319.8 27.1h-1267.5l-20.9 110.7c-12.5 58.5-106.5 584.7-208.8 1165.2-104.4 582.6-200.5 1083.8-215.1 1113-54.3 123.2-225.5 152.4-332 58.5l-66.8-58.5-267.3-1417.8c-148.3-778.9-273.6-1420-279.8-1426.2-6.3-6.3-10.4 14.6-10.4 45.9 0 64.7-325.8 4587.7-346.7 4800.7-10.4 119-23 150.4-75.2 202.6-48 50.1-79.3 62.6-150.3 62.6-48.1 0-106.6-14.6-129.5-31.3z" fill="#32ae20" stroke-width="9.919"/>
   </g>
  </g>
  <path d="m29.305 30.136c1.7293-2.1331 8.5134-8.485 8.8476-8.7809 0.3342-0.29595 0.65323-0.68516 1.6048-0.70675 0.95161-0.02159 40.832 0 40.832 0s2.8718 0.22831 2.8713 2.8922c-5.3e-4 2.6639-0.0011 40.75-0.0011 40.75s0.11952 0.66638-2.1649 3.0486l-7.0797 7.3829" fill="none" stroke="#32ae20" stroke-width="1.265"/>
  <path d="m74.124 30.247 8.267-8.9207" fill="none" stroke="#32ae20" stroke-width="1.365"/>
 </g>
</svg>
