<svg width="110.9mm" height="96.041mm" version="1.1" viewBox="0 0 110.9 96.041" xmlns="http://www.w3.org/2000/svg">
 <path d="m82.112 94.202-53.326-2e-6 -26.663-46.182 26.663-46.182 53.326 2.6e-6 26.663 46.182z" fill="none" stroke="#8cc800" stroke-width="3.6771"/>
 <path d="m71.983 75.685v-0.64306h-40.501c-0.64891-0.0037-1.2304-0.26115-1.6564-0.68594-0.42483-0.42872-0.68556-1.0094-0.68594-1.6564v-40.501c0-0.65084 0.26111-1.2316 0.68594-1.6564 0.42597-0.42483 1.0074-0.68594 1.6564-0.68594h40.501c0.64853 0 1.2304 0.26111 1.656 0.68594 0.42518 0.4248 0.68591 1.0055 0.68632 1.6564v40.501c0 0.64698-0.26115 1.2277-0.68632 1.6564-0.42559 0.4248-1.0075 0.68203-1.656 0.68594v1.29c2.0068 0 3.6327-1.6291 3.6331-3.6323v-40.501c0-2.0071-1.6264-3.6362-3.6331-3.6362h-40.501c-2.0067 0-3.6331 1.6291-3.6335 3.6362v40.501c0 2.0033 1.6267 3.6323 3.6335 3.6323h40.501v-0.64695" fill="#f00"/>
 <g stroke="#f00">
  <path d="m29.305 30.136c1.7293-2.1331 8.5134-8.485 8.8476-8.7809 0.3342-0.29595 0.65323-0.68516 1.6048-0.70675 0.95161-0.02159 40.832 0 40.832 0s2.8718 0.22831 2.8713 2.8922c-5.3e-4 2.6639-0.0011 40.75-0.0011 40.75s0.11952 0.66638-2.1649 3.0486l-7.0797 7.3829" fill="none" stroke-width="1.265"/>
  <path d="m74.124 30.247 8.267-8.9207" fill="none" stroke-width="1.365"/>
  <path d="m35.179 59.499h34.579" fill="#32ae20" stroke-width="1.265"/>
 </g>
 <g fill="none" stroke="#f00" stroke-width=".965">
  <path d="m45.652 39.317-7.7601 7.7601"/>
  <path d="m37.935 39.301 7.7601 7.7601"/>
  <path d="m67.247 39.197-7.7601 7.7601"/>
  <path d="m59.529 39.181 7.7601 7.7601"/>
 </g>
</svg>
