<svg width="110.9mm" height="96.041mm" version="1.1" viewBox="0 0 110.9 96.041" xmlns="http://www.w3.org/2000/svg">
 <path transform="translate(-42.58 43.341)" d="m124.69 50.862-53.326-3e-6 -26.663-46.182 26.663-46.182 53.326 3e-6 26.663 46.182z" fill="none" stroke="#8cc800" stroke-width="3.6771"/>
 <path transform="translate(-42.58 43.341)" d="m114.56 32.345v-0.64306h-40.501c-0.64891-0.0037-1.2304-0.26115-1.6564-0.68594-0.42483-0.42872-0.68556-1.0094-0.68594-1.6564v-40.501c0-0.65084 0.26111-1.2316 0.68594-1.6564 0.42597-0.42483 1.0074-0.68594 1.6564-0.68594h40.501c0.64853 0 1.2304 0.26111 1.656 0.68594 0.42518 0.4248 0.68591 1.0055 0.68632 1.6564v40.501c0 0.64698-0.26115 1.2277-0.68632 1.6564-0.42559 0.4248-1.0075 0.68203-1.656 0.68594v1.29c2.0068 0 3.6327-1.6291 3.6331-3.6323v-40.501c0-2.0071-1.6264-3.6362-3.6331-3.6362h-40.501c-2.0067 0-3.6331 1.6291-3.6335 3.6362v40.501c0 2.0033 1.6267 3.6323 3.6335 3.6323h40.501v-0.64695" fill="#1919ff"/>
 <path d="m29.305 30.136c1.7293-2.1331 8.5134-8.485 8.8476-8.7809 0.3342-0.29595 0.65323-0.68516 1.6048-0.70675 0.95161-0.02159 40.832 0 40.832 0s2.8718 0.22831 2.8713 2.8922c-5.3e-4 2.6639-0.0011 40.75-0.0011 40.75s0.11952 0.66638-2.1649 3.0486l-7.0797 7.3829" fill="none" stroke="#1919ff" stroke-width="1.0001"/>
 <path d="m74.124 30.247 8.267-8.9207" fill="none" stroke="#1919ff" stroke-width="1.0001"/>
 <g transform="matrix(.29191 -.08743 .08743 .29191 35.011 42.213)" fill="#00f">
  <path d="m69.243 90c-5.389 0-10.67-2.107-14.643-6.081-5.433-5.432-7.391-13.514-5.115-20.831l-22.573-22.573c-7.313 2.276-15.397 0.32-20.832-5.114-5.933-5.933-7.705-14.784-4.514-22.549l0.846-2.059 12.493 12.493c2.311 2.31 6.07 2.311 8.381 0 2.31-2.311 2.31-6.071 0-8.381l-12.492-12.492 2.059-0.846c7.766-3.191 16.616-1.418 22.549 4.514 5.433 5.433 7.39 13.516 5.114 20.831l22.572 22.573c7.314-2.278 15.398-0.32 20.832 5.114 5.934 5.933 7.704 14.784 4.514 22.549l-0.847 2.059-12.492-12.493c-1.113-1.113-2.601-1.726-4.191-1.726s-3.077 0.613-4.191 1.726c-2.31 2.311-2.31 6.071 0 8.381l12.493 12.492-2.06 0.847c-2.564 1.053-5.247 1.565-7.903 1.566zm-41.551-52.9 25.206 25.207-0.322 0.887c-2.345 6.469-0.728 13.779 4.119 18.626 4.538 4.538 11.069 6.235 17.152 4.603l-9.232-9.232c-3.466-3.467-3.466-9.109 0-12.576 3.466-3.468 9.109-3.468 12.576 0l9.232 9.232c1.633-6.083-0.064-12.615-4.602-17.153-4.847-4.847-12.161-6.464-18.627-4.118l-0.887 0.322-25.206-25.206 0.322-0.887c2.345-6.469 0.729-13.78-4.118-18.627-4.539-4.538-11.07-6.235-17.152-4.603l9.232 9.232c3.467 3.467 3.467 9.109 0 12.576s-9.109 3.468-12.576 0l-9.233-9.232c-1.634 6.083 0.064 12.614 4.602 17.153 4.848 4.848 12.16 6.464 18.628 4.118z" fill="#00f" stroke-linecap="round"/>
 </g>
</svg>
