<?xml version="1.0"?>
<svg xmlns="http://www.w3.org/2000/svg" width="512" height="450">

 <g>
  <title>background</title>
  <rect fill="none" id="canvas_background" height="450" width="512" y="0" x="0"/>
 </g>
 <g>
  <title>Layer</title>
  <path id="svg_1" d="m467,0l-422,0c-24.8125,0 -45,20.1875 -45,45l0,360c0,24.8125 20.1875,45 45,45l422,0c24.8125,0 45,-20.1875 45,-45l0,-360c0,-24.8125 -20.1875,-45 -45,-45zm15,405c0,8.26953 -6.73047,15 -15,15l-422,0c-8.26953,0 -15,-6.73047 -15,-15l0,-360c0,-8.26953 6.73047,-15 15,-15l422,0c8.26953,0 15,6.73047 15,15l0,360zm0,0"/>
  <path id="svg_2" d="m436,60l-360,0c-8.28516,0 -15,6.71484 -15,15l0,180c0,8.28516 6.71484,15 15,15l15,0l0,45c0,8.28516 6.71484,15 15,15l45,0l0,45c0,8.28516 6.71484,15 15,15l180,0c8.28516,0 15,-6.71484 15,-15l0,-45l45,0c8.28516,0 15,-6.71484 15,-15l0,-45l15,0c8.28516,0 15,-6.71484 15,-15l0,-180c0,-8.28516 -6.71484,-15 -15,-15zm-15,180l-15,0c-8.28516,0 -15,6.71484 -15,15l0,45l-45,0c-8.28516,0 -15,6.71484 -15,15l0,45l-150,0l0,-45c0,-8.28516 -6.71484,-15 -15,-15l-45,0l0,-45c0,-8.28516 -6.71484,-15 -15,-15l-15,0l0,-150l330,0l0,150zm0,0"/>
  <path id="svg_3" d="m106,360l-30,0c-8.28516,0 -15,6.71484 -15,15s6.71484,15 15,15l30,0c8.28516,0 15,-6.71484 15,-15s-6.71484,-15 -15,-15zm0,0"/>
  <path id="svg_4" d="m436,360l-30,0c-8.28516,0 -15,6.71484 -15,15s6.71484,15 15,15l30,0c8.28516,0 15,-6.71484 15,-15s-6.71484,-15 -15,-15zm0,0"/>
  <path id="svg_5" d="m136,210c8.28516,0 15,-6.71484 15,-15l0,-60c0,-8.28516 -6.71484,-15 -15,-15s-15,6.71484 -15,15l0,60c0,8.28516 6.71484,15 15,15zm0,0"/>
  <path id="svg_6" d="m196,210c8.28516,0 15,-6.71484 15,-15l0,-60c0,-8.28516 -6.71484,-15 -15,-15s-15,6.71484 -15,15l0,60c0,8.28516 6.71484,15 15,15zm0,0"/>
  <path id="svg_7" d="m256,210c8.28516,0 15,-6.71484 15,-15l0,-60c0,-8.28516 -6.71484,-15 -15,-15s-15,6.71484 -15,15l0,60c0,8.28516 6.71484,15 15,15zm0,0"/>
  <path id="svg_8" d="m316,210c8.28516,0 15,-6.71484 15,-15l0,-60c0,-8.28516 -6.71484,-15 -15,-15s-15,6.71484 -15,15l0,60c0,8.28516 6.71484,15 15,15zm0,0"/>
  <path id="svg_9" d="m376,210c8.28516,0 15,-6.71484 15,-15l0,-60c0,-8.28516 -6.71484,-15 -15,-15s-15,6.71484 -15,15l0,60c0,8.28516 6.71484,15 15,15zm0,0"/>
 </g>
</svg>
