<?xml version="1.0"?>
<svg xmlns="http://www.w3.org/2000/svg">
<line x1="1.5" y1="-1.5" x2="19.595" y2="-1.5" transform="matrix(0.995495 -0.0948091 -0.0948091 -0.995495 124 44)" stroke="#FFE34F" stroke-width="3" stroke-linecap="round"/>
<line x1="160.514" y1="35.8909" x2="166.414" y2="46.1091" stroke="#FFE34F" stroke-width="8" stroke-linecap="round"/>
<line x1="68.4138" y1="36.8909" x2="62.5143" y2="47.1091" stroke="#FFE34F" stroke-width="8" stroke-linecap="round"/>
<line x1="159.018" y1="85.654" x2="165.604" y2="98.5553" stroke="#FFE34F" stroke-width="3" stroke-linecap="round"/>
<line x1="1.5" y1="-1.5" x2="15.985" y2="-1.5" transform="matrix(0.454663 -0.890664 -0.890664 -0.454663 63 99.5732)" stroke="#FFE34F" stroke-width="3" stroke-linecap="round"/>
<circle cx="139" cy="64" r="6" stroke="#FFE34F" stroke-width="2"/>
<circle cx="91" cy="64" r="3" stroke="#FFE34F" stroke-width="2"/>
<path d="M100.284 130.548C97.771 130.548 96.2006 127.828 97.4569 125.652C98.7133 123.476 101.854 123.476 103.111 125.652C104.367 127.828 102.796 130.548 100.284 130.548Z" fill="#FFE34F" stroke="#252525"/>
<path d="M126.284 130.548C123.771 130.548 122.201 127.828 123.457 125.652C124.713 123.476 127.854 123.476 129.111 125.652C130.367 127.828 128.796 130.548 126.284 130.548Z" fill="#FFE34F" stroke="#252525"/>
<path d="M126.284 85.0196C128.796 85.0196 130.367 87.7397 129.11 89.9158C127.854 92.0919 124.713 92.0919 123.457 89.9158C122.2 87.7397 123.771 85.0196 126.284 85.0196Z" fill="#FFE34F" stroke="#252525"/>
<path d="M100.284 85.0196C102.796 85.0196 104.367 87.7397 103.11 89.9158C101.854 92.0919 98.7132 92.0919 97.4569 89.9158C96.2005 87.7397 97.7709 85.0196 100.284 85.0196Z" fill="#FFE34F" stroke="#252525"/>
<path d="M140.284 85.0196C142.796 85.0196 144.367 87.7397 143.11 89.9158C141.854 92.0919 138.713 92.0919 137.457 89.9158C136.2 87.7397 137.771 85.0196 140.284 85.0196Z" fill="#FFE34F" stroke="#252525"/>
<path d="M114.284 85.0196C116.796 85.0196 118.367 87.7397 117.11 89.9158C115.854 92.0919 112.713 92.0919 111.457 89.9158C110.2 87.7397 111.771 85.0196 114.284 85.0196Z" fill="#FFE34F" stroke="#252525"/>
<path d="M113.284 85.0196C115.796 85.0196 117.367 87.7397 116.11 89.9158C114.854 92.0919 111.713 92.0919 110.457 89.9158C109.2 87.7397 110.771 85.0196 113.284 85.0196Z" fill="#FFE34F" stroke="#252525"/>
<path d="M87.2837 85.0196C89.7964 85.0196 91.3668 87.7397 90.1105 89.9158C88.8541 92.0919 85.7132 92.0919 84.4569 89.9158C83.2005 87.7397 84.7709 85.0196 87.2837 85.0196Z" fill="#FFE34F" stroke="#252525"/>
<line x1="72.5" y1="85.5" x2="158.5" y2="85.5" stroke="#FFE34F" stroke-width="3" stroke-linecap="round"/>
<line x1="91.5" y1="130.5" x2="137.5" y2="130.5" stroke="#FFE34F" stroke-width="3" stroke-linecap="round"/>
</svg>