<svg width="7.8588mm" height="6.806mm" version="1.1" viewBox="0 0 7.8588 6.806" xmlns="http://www.w3.org/2000/svg">
 <path d="m5.8567 6.7413-3.8546-2e-7 -1.9274-3.3382 1.9274-3.3382 3.8546 2e-7 1.9274 3.3382z" fill="none" stroke="#0003ba" stroke-width=".23548"/>
 <text transform="translate(.39892 -1.8552)" font-family="Saira" font-size="10.583px" font-weight="bold" style="line-height:1.25;shape-inside:url(#rect1564);white-space:pre" xml:space="preserve"/>
 <text x="29.950945" y="12.251613" font-family="Saira" font-size="10.583px" stroke-width=".26458" style="line-height:1.25" xml:space="preserve"><tspan x="29.950945" y="12.251613" stroke-width=".26458"/></text>
 <g fill="#0003ba" stroke-width=".12787" aria-label="?">
  <path d="m3.8004 4.6203-0.12238 0.63436h-0.50699l0.12238-0.63436zm-0.55195-2.8796q0.25474-0.14236 0.50699-0.21229 0.25474-0.06993 0.51948-0.06993 0.4021 0 0.63436 0.18731t0.23227 0.50949q0 0.25724-0.13486 0.48202-0.13237 0.22478-0.43456 0.46953l-0.25974 0.20979q-0.20979 0.16484-0.27972 0.28222t-0.11488 0.34715l-0.062438 0.30719h-0.47452l0.077422-0.38462q0.044955-0.23476 0.14236-0.3971 0.097402-0.16484 0.37462-0.3946l0.26474-0.22228q0.20979-0.17482 0.2947-0.30719t0.084915-0.27472q0-0.18981-0.13736-0.2972-0.13486-0.10739-0.37462-0.10739-0.1998 0-0.44705 0.08991-0.24476 0.087412-0.5045 0.25225z" fill="#0003ba" stroke-width=".12787"/>
 </g>
</svg>
