<?xml version="1.0" encoding="UTF-8" standalone="no"?>
<svg
   xmlns:dc="http://purl.org/dc/elements/1.1/"
   xmlns:cc="http://creativecommons.org/ns#"
   xmlns:rdf="http://www.w3.org/1999/02/22-rdf-syntax-ns#"
   xmlns:svg="http://www.w3.org/2000/svg"
   xmlns="http://www.w3.org/2000/svg"
   xmlns:sodipodi="http://sodipodi.sourceforge.net/DTD/sodipodi-0.dtd"
   xmlns:inkscape="http://www.inkscape.org/namespaces/inkscape"
   width="30.159294mm"
   height="26.118715mm"
   viewBox="0 0 30.159294 26.118715"
   version="1.1"
   id="svg1076"
   inkscape:version="1.0.1 (3bc2e813f5, 2020-09-07)"
   sodipodi:docname="tn1.svg">
  <defs
     id="defs1070" />
  <sodipodi:namedview
     id="base"
     pagecolor="#ffffff"
     bordercolor="#666666"
     borderopacity="1.0"
     inkscape:pageopacity="0.0"
     inkscape:pageshadow="2"
     inkscape:zoom="0.83064728"
     inkscape:cx="345.52347"
     inkscape:cy="241.31748"
     inkscape:document-units="mm"
     inkscape:current-layer="layer1"
     inkscape:document-rotation="0"
     showgrid="false"
     inkscape:window-width="1333"
     inkscape:window-height="900"
     inkscape:window-x="1590"
     inkscape:window-y="2"
     inkscape:window-maximized="0" />
  <metadata
     id="metadata1073">
    <rdf:RDF>
      <cc:Work
         rdf:about="">
        <dc:format>image/svg+xml</dc:format>
        <dc:type
           rdf:resource="http://purl.org/dc/dcmitype/StillImage" />
        <dc:title></dc:title>
      </cc:Work>
    </rdf:RDF>
  </metadata>
  <g
     inkscape:label="Layer 1"
     inkscape:groupmode="layer"
     id="layer1"
     transform="translate(147.51629,-69.826163)">
    <g
       id="g1649">
      <path
         sodipodi:type="star"
         style="fill:none;fill-opacity:1;fill-rule:evenodd;stroke:#8cc800;stroke-width:1;stroke-miterlimit:4;stroke-dasharray:none;stroke-opacity:1"
         id="path927-9-3-6-4-4-7-2-8"
         sodipodi:sides="6"
         sodipodi:cx="-132.43665"
         sodipodi:cy="82.885521"
         sodipodi:r1="14.502296"
         sodipodi:r2="12.559356"
         sodipodi:arg1="1.0471976"
         sodipodi:arg2="1.5707963"
         inkscape:flatsided="true"
         inkscape:rounded="0"
         inkscape:randomized="0"
         d="m -125.1855,95.444878 -14.50229,0 -7.25115,-12.559358 7.25115,-12.559357 14.50229,1e-6 7.25115,12.559358 z" />
      <path
         style="fill:#8cc800;fill-opacity:1;stroke-width:0.143072"
         d="m -133.13527,90.537038 c -0.0553,-0.0553 -0.10053,-2.64738 -0.10053,-5.7602 v -5.65968 l -1.04063,1.03369 c -0.57235,0.56853 -1.1057,1.03369 -1.18523,1.03369 -0.0795,0 -0.48676,-0.34647 -0.90495,-0.76992 -0.63425,-0.64223 -0.73616,-0.81426 -0.61447,-1.03727 0.0802,-0.14704 1.01214,-1.12315 2.07089,-2.16913 l 1.92499,-1.90177 1.19812,0.0418 1.19811,0.0418 v 7.58281 7.5828 l -1.22289,0.0409 c -0.67258,0.0225 -1.26812,-0.004 -1.32341,-0.0596 z m 2.18862,-7.5641 v -7.22513 h -0.89619 -0.89618 l -1.92744,1.93141 -1.92743,1.93141 0.57603,0.57604 0.57604,0.57603 1.31762,-1.3436 1.31762,-1.3436 v 6.06128 6.06128 h 0.92996 0.92997 z"
         id="path1054" />
    </g>
  </g>
</svg>
