<?xml version="1.0" encoding="UTF-8" standalone="no"?>
<svg
   xmlns:dc="http://purl.org/dc/elements/1.1/"
   xmlns:cc="http://creativecommons.org/ns#"
   xmlns:rdf="http://www.w3.org/1999/02/22-rdf-syntax-ns#"
   xmlns:svg="http://www.w3.org/2000/svg"
   xmlns="http://www.w3.org/2000/svg"
   xmlns:sodipodi="http://sodipodi.sourceforge.net/DTD/sodipodi-0.dtd"
   xmlns:inkscape="http://www.inkscape.org/namespaces/inkscape"
   width="30.159294mm"
   height="26.118715mm"
   viewBox="0 0 30.159294 26.118715"
   version="1.1"
   id="svg3440"
   inkscape:version="1.0.1 (3bc2e813f5, 2020-09-07)"
   sodipodi:docname="tn5.svg">
  <defs
     id="defs3434" />
  <sodipodi:namedview
     id="base"
     pagecolor="#ffffff"
     bordercolor="#666666"
     borderopacity="1.0"
     inkscape:pageopacity="0.0"
     inkscape:pageshadow="2"
     inkscape:zoom="0.29367816"
     inkscape:cx="378.67691"
     inkscape:cy="554.87679"
     inkscape:document-units="mm"
     inkscape:current-layer="layer1"
     inkscape:document-rotation="0"
     showgrid="false"
     inkscape:window-width="1333"
     inkscape:window-height="900"
     inkscape:window-x="1690"
     inkscape:window-y="2"
     inkscape:window-maximized="0" />
  <metadata
     id="metadata3437">
    <rdf:RDF>
      <cc:Work
         rdf:about="">
        <dc:format>image/svg+xml</dc:format>
        <dc:type
           rdf:resource="http://purl.org/dc/dcmitype/StillImage" />
        <dc:title></dc:title>
      </cc:Work>
    </rdf:RDF>
  </metadata>
  <g
     inkscape:label="Layer 1"
     inkscape:groupmode="layer"
     id="layer1"
     transform="translate(-5.6417335,-1.3555156)">
    <g
       id="g4013">
      <path
         sodipodi:type="star"
         style="fill:none;fill-opacity:1;fill-rule:evenodd;stroke:#8cc800;stroke-width:1;stroke-miterlimit:4;stroke-dasharray:none;stroke-opacity:1"
         id="path927-9-3-6-4-4-7-2-8-9-3-6-9"
         sodipodi:sides="6"
         sodipodi:cx="20.72138"
         sodipodi:cy="14.414873"
         sodipodi:r1="14.502296"
         sodipodi:r2="12.559356"
         sodipodi:arg1="1.0471976"
         sodipodi:arg2="1.5707963"
         inkscape:flatsided="true"
         inkscape:rounded="0"
         inkscape:randomized="0"
         d="m 27.972528,26.974231 -14.502297,-1e-6 -7.2511472,-12.559358 7.2511492,-12.5593564 14.502296,7e-7 7.251148,12.5593577 z" />
      <path
         style="fill:#8cc800;fill-opacity:1;stroke-width:0.146501"
         d="m 19.463105,22.450742 c -1.692939,-0.46687 -3.23577,-1.69278 -4.01431,-3.1897 -0.5315,-1.02193 -0.46605,-1.11888 1.0172,-1.5069 l 1.01592,-0.26577 0.229341,0.32936 c 0.683519,0.9816 1.251169,1.48081 2.004239,1.76257 1.394781,0.52185 2.72733,0.32162 3.8671,-0.58109 1.5343,-1.2152 1.53158,-3.47231 -0.006,-4.68983 -1.65563,-1.31127 -3.98341,-1.10641 -5.33215,0.46928 l -0.533039,0.62274 -1.02245,-0.3481 c -0.562341,-0.19144 -1.088811,-0.42805 -1.169931,-0.52579 -0.093,-0.11207 -0.13304,-1.60497 -0.10838,-4.04201 l 0.0391,-3.8642898 h 5.054291 5.054289 v 1.31851 1.3185101 l -3.772409,0.0391 -3.7724,0.0391 v 1.0267997 1.0268 l 0.40288,-0.2057 c 0.568509,-0.29026 1.82139,-0.53496 2.717479,-0.53075 2.09147,0.01 4.186441,1.12964 5.30451,2.83539 1.41718,2.16207 1.20045,5.15112 -0.50849,7.01274 -1.65168,1.79926 -4.21211,2.57091 -6.46712,1.94904 z m 4.148481,-0.77612 c 1.274619,-0.60252 2.211379,-1.47877 2.74954,-2.57193 1.75834,-3.57171 -0.69492,-7.62325 -4.825431,-7.96914 -1.14553,-0.0959 -2.3916,0.13856 -3.29835,0.62068 l -0.66301,0.35253 v -1.60739 -1.6073897 h 3.809041 3.80902 v -0.9522601 -0.95226 h -4.688031 -4.68804 v 3.6421998 3.64219 l 0.82094,0.31416 0.82094,0.31416 0.80132,-0.73236 c 2.989461,-2.7322 7.87538,-0.17831 6.76285,3.53497 -0.38982,1.3011 -1.927389,2.43535 -3.49387,2.5774 -1.5444,0.14004 -3.278469,-0.65469 -3.88469,-1.78037 -0.29865,-0.55454 -0.276879,-0.55215 -1.56821,-0.17262 l -0.54646,0.16061 0.32672,0.64056 c 0.38515,0.75513 1.73405,2.04946 2.541001,2.43822 1.663819,0.80157 3.660079,0.84293 5.21472,0.10804 z"
         id="path1058" />
    </g>
  </g>
</svg>
