<?xml version="1.0" encoding="UTF-8" standalone="no"?>
<svg
   xmlns:dc="http://purl.org/dc/elements/1.1/"
   xmlns:cc="http://creativecommons.org/ns#"
   xmlns:rdf="http://www.w3.org/1999/02/22-rdf-syntax-ns#"
   xmlns:svg="http://www.w3.org/2000/svg"
   xmlns="http://www.w3.org/2000/svg"
   xmlns:sodipodi="http://sodipodi.sourceforge.net/DTD/sodipodi-0.dtd"
   xmlns:inkscape="http://www.inkscape.org/namespaces/inkscape"
   width="114.32066mm"
   height="99.004601mm"
   viewBox="0 0 114.32066 99.004599"
   version="1.1"
   id="svg2181"
   inkscape:version="1.0.1 (3bc2e813f5, 2020-09-07)"
   sodipodi:docname="load.svg">
  <defs
     id="defs2175" />
  <sodipodi:namedview
     id="base"
     pagecolor="#ffffff"
     bordercolor="#666666"
     borderopacity="1.0"
     inkscape:pageopacity="0.0"
     inkscape:pageshadow="2"
     inkscape:zoom="0.6969799"
     inkscape:cx="-79.743999"
     inkscape:cy="324.74761"
     inkscape:document-units="mm"
     inkscape:current-layer="layer1"
     inkscape:document-rotation="0"
     showgrid="false"
     inkscape:window-width="1440"
     inkscape:window-height="900"
     inkscape:window-x="1465"
     inkscape:window-y="2"
     inkscape:window-maximized="0" />
  <metadata
     id="metadata2178">
    <rdf:RDF>
      <cc:Work
         rdf:about="">
        <dc:format>image/svg+xml</dc:format>
        <dc:type
           rdf:resource="http://purl.org/dc/dcmitype/StillImage" />
        <dc:title />
      </cc:Work>
    </rdf:RDF>
  </metadata>
  <g
     inkscape:label="Слой 1"
     inkscape:groupmode="layer"
     id="layer1"
     transform="translate(-79.517955,-205.95592)">
    <g
       id="g938"
       transform="matrix(3.7905618,0,0,3.7905618,-228.87176,181.38123)">
      <path
         sodipodi:type="star"
         style="fill:none;fill-opacity:1;fill-rule:evenodd;stroke:#8cc800;stroke-width:1;stroke-miterlimit:4;stroke-dasharray:none;stroke-opacity:1"
         id="path927-1"
         sodipodi:sides="6"
         sodipodi:cx="96.436905"
         sodipodi:cy="19.542484"
         sodipodi:r1="14.502296"
         sodipodi:r2="12.559356"
         sodipodi:arg1="1.0471976"
         sodipodi:arg2="1.5707963"
         inkscape:flatsided="true"
         inkscape:rounded="0"
         inkscape:randomized="0"
         d="m 103.68805,32.101842 -14.502294,-10e-7 -7.251148,-12.559357 7.251149,-12.5593572 14.502293,7e-7 7.25115,12.5593575 z" />
      <path
         d="m 101.82422,24.468901 0.11626,0.135742 3.54584,-3.02118 c 0.0398,-0.0338 0.0635,-0.08342 0.0635,-0.135741 0,-0.05221 -0.0237,-0.101833 -0.0635,-0.135633 l -3.54584,-3.021178 c -0.0527,-0.04499 -0.12809,-0.05523 -0.19053,-0.02615 -0.0624,0.02908 -0.10334,0.09258 -0.10334,0.1619 v 1.268172 h -4.520034 c -0.04736,0 -0.09258,0.01904 -0.125944,0.05221 -0.03337,0.03326 -0.05274,0.07912 -0.05274,0.126055 v 3.149277 c 0,0.04693 0.01938,0.0929 0.05274,0.126052 0.03337,0.03326 0.07858,0.05232 0.125944,0.05232 h 4.520034 v 1.268171 c 0,0.06932 0.0409,0.132728 0.10334,0.161792 0.0624,0.02917 0.13779,0.01883 0.19053,-0.02606 l -0.11626,-0.135743 h 0.1787 v -1.446538 c 0,-0.04693 -0.0194,-0.09279 -0.0517,-0.126055 -0.0334,-0.03315 -0.0797,-0.05221 -0.12703,-0.05221 h -4.52003 v -2.792649 h 4.52003 c 0.0474,0 0.0936,-0.01904 0.12703,-0.05221 0.0323,-0.03326 0.0517,-0.07912 0.0517,-0.126162 v -1.060307 l 3.09373,2.634945 -3.3876,2.885438 0.11517,0.13574 h 0.1787 -0.1787"
         style="fill:#231fda;fill-opacity:1;fill-rule:nonzero;stroke:none;stroke-width:0.0107645"
         id="path1187" />
      <path
         d="m 101.99365,17.88356 -0.0121,-2.221027 c -2.5e-4,-0.04306 -0.0174,-0.08504 -0.0479,-0.116257 l -2.118029,-2.117388 c -0.0304,-0.03014 -0.0724,-0.04844 -0.1154,-0.04844 h -8.594425 c -0.823058,0.0012 -1.490029,0.667401 -1.490137,1.49089 v 9.385611 c 1.08e-4,0.822412 0.667079,1.489813 1.490137,1.489813 h 4.417123 c 0.09021,0 0.1633,-0.0732 0.1633,-0.16362 0,-0.08935 -0.07309,-0.162544 -0.1633,-0.162544 h -4.417123 c -0.321753,0 -0.611642,-0.130253 -0.822734,-0.341237 -0.210831,-0.210983 -0.340759,-0.500552 -0.340867,-0.822412 V 14.87134 c 1.08e-4,-0.321858 0.130036,-0.611424 0.340807,-0.823488 0.211092,-0.209906 0.500981,-0.340157 0.822734,-0.340157 h 8.526815 l 2.022339,2.022657 0.0122,2.153211 c 6.1e-4,0.09042 0.0731,0.16362 0.16329,0.16362 0.0901,0 0.1633,-0.0732 0.1633,-0.16362"
         style="fill:#231fda;fill-opacity:1;fill-rule:nonzero;stroke:none;stroke-width:0.0107645"
         id="path1191"
         sodipodi:nodetypes="csccscccsssssccccsccssc" />
      <path
         d="m 98.024985,23.822063 h -6.652169 v -5.011977 h 5.784976 c 0.09021,0 0.1633,-0.07212 0.1633,-0.162543 0,-0.09042 -0.07309,-0.163621 -0.1633,-0.163621 h -5.948274 c -0.04305,0 -0.08504,0.01721 -0.115504,0.04736 -0.03036,0.03122 -0.0478,0.0732 -0.0478,0.116258 v 5.338139 c 0,0.04306 0.01744,0.08504 0.0478,0.115181 0.03047,0.03014 0.07255,0.04844 0.115504,0.04844 h 6.815467 c 0.0901,0 0.16319,-0.0732 0.16319,-0.163621 0,-0.09042 -0.07309,-0.16362 -0.16319,-0.16362"
         style="fill:#231fda;fill-opacity:1;fill-rule:nonzero;stroke:none;stroke-width:0.0107645"
         id="path1193" />
      <path
         d="m 99.104071,17.195406 h -6.570083 v -3.651338 c 0,-0.09042 -0.07309,-0.16362 -0.163298,-0.16362 -0.09021,0 -0.163298,0.0732 -0.163298,0.16362 v 3.814958 c 0,0.04305 0.01744,0.08504 0.0479,0.11518 0.03036,0.03122 0.07244,0.04844 0.115397,0.04844 h 6.845064 c 0.09021,0 0.171886,-0.0732 0.171886,-0.163621 0,-0.09042 -0.128935,-0.15503 -0.128935,-0.15503"
         style="fill:#231fda;fill-opacity:1;fill-rule:nonzero;stroke:none;stroke-width:0.0107645"
         id="path1195"
         sodipodi:nodetypes="ccsssscsssc" />
      <path
         d="m 99.063118,13.544068 v 3.816972 c 0,0.09042 0.07309,0.159327 0.163298,0.159327 0.0901,0 0.163299,-0.06245 0.163299,-0.15288 v -3.823419 c 0,-0.09042 -0.0732,-0.16362 -0.163299,-0.16362 -0.09021,0 -0.163298,0.0732 -0.163298,0.16362"
         style="fill:#231fda;fill-opacity:1;fill-rule:nonzero;stroke:none;stroke-width:0.0107645"
         id="path1197"
         sodipodi:nodetypes="csssssc" />
      <path
         d="m 94.618757,16.517239 v -0.163624 h -1.285825 v -2.014046 h 1.122528 v 2.17767 h 0.163297 v -0.163624 0.163624 h 0.1633 v -2.34129 c 0,-0.04305 -0.01745,-0.08504 -0.0478,-0.115181 -0.03045,-0.03122 -0.07244,-0.04844 -0.115503,-0.04844 h -1.449123 c -0.04305,0 -0.08504,0.01721 -0.115504,0.04844 -0.03036,0.03015 -0.0478,0.07212 -0.0478,0.115181 v 2.34129 c 0,0.04305 0.01744,0.08504 0.0478,0.11518 0.03047,0.03014 0.07244,0.04736 0.115504,0.04736 h 1.449123 c 0.04306,0 0.08504,-0.01721 0.115503,-0.04736 0.03036,-0.03015 0.0478,-0.07212 0.0478,-0.11518 h -0.1633"
         style="fill:#231fda;fill-opacity:1;fill-rule:nonzero;stroke:none;stroke-width:0.0107645"
         id="path1199" />
      <path
         d="m 102.61596,26.252697 v -0.178691 h -6.343121 v -0.804111 h 6.164751 v 0.982802 h 0.17837 v -0.178691 0.178691 h 0.17826 v -1.161494 c 0,-0.04629 -0.019,-0.09258 -0.0522,-0.125945 -0.0333,-0.03337 -0.0791,-0.05167 -0.12605,-0.05167 h -6.521384 c -0.04704,0 -0.0929,0.01831 -0.126161,0.05167 -0.03315,0.03337 -0.05221,0.07965 -0.05221,0.125945 v 1.161494 c 0,0.04628 0.01904,0.09258 0.05221,0.125945 0.03326,0.03337 0.07912,0.05167 0.126161,0.05167 h 6.521384 c 0.0469,0 0.0928,-0.01831 0.12605,-0.05167 0.0332,-0.03337 0.0522,-0.07966 0.0522,-0.125945 h -0.17826"
         style="fill:#231fda;fill-opacity:1;fill-rule:nonzero;stroke:none;stroke-width:0.0107645"
         id="path1201" />
    </g>
  </g>
</svg>
