<?xml version="1.0" encoding="UTF-8" standalone="no"?>
<svg
   xmlns:dc="http://purl.org/dc/elements/1.1/"
   xmlns:cc="http://creativecommons.org/ns#"
   xmlns:rdf="http://www.w3.org/1999/02/22-rdf-syntax-ns#"
   xmlns:svg="http://www.w3.org/2000/svg"
   xmlns="http://www.w3.org/2000/svg"
   width="30.159294mm"
   height="26.118715mm"
   viewBox="0 0 30.159294 26.118715"
   version="1.1"
   id="svg3393">
  <defs
     id="defs3387" />
  <metadata
     id="metadata3390">
    <rdf:RDF>
      <cc:Work
         rdf:about="">
        <dc:format>image/svg+xml</dc:format>
        <dc:type
           rdf:resource="http://purl.org/dc/dcmitype/StillImage" />
        <dc:title></dc:title>
      </cc:Work>
    </rdf:RDF>
  </metadata>
  <g
     id="layer1"
     transform="translate(42.107533,-127.48565)">
    <g
       id="g927"
       style="display:inline"
       transform="translate(-48.950505,120.98474)">
      <path
         style="fill:none;fill-opacity:1;fill-rule:evenodd;stroke:#8cc800;stroke-width:1;stroke-miterlimit:4;stroke-dasharray:none;stroke-opacity:1"
         id="path927"
         d="m 29.173766,32.119624 -14.502296,-1e-6 -7.2511476,-12.559357 7.2511486,-12.559357 14.502297,7e-7 7.251147,12.5593573 z" />
      <path
         d="M 21.189035,13.816468 H 16.81723 c -0.693911,0 -1.256108,0.562085 -1.25622,1.256556 v 10.13323 c 1.12e-4,0.693351 0.562309,1.255434 1.25622,1.255434 h 10.13323 c 0.693911,0 1.256108,-0.562083 1.256219,-1.255434 v -4.372143 c 0,-0.103219 -0.08314,-0.186239 -0.185791,-0.186239 -0.102657,0 -0.185791,0.08302 -0.185791,0.186239 v 4.372143 c -8.2e-5,0.244581 -0.09873,0.464477 -0.259162,0.624912 -0.160661,0.160437 -0.38056,0.259166 -0.625475,0.259166 H 16.81723 c -0.244804,0 -0.464814,-0.09873 -0.625473,-0.259166 -0.160435,-0.160435 -0.259053,-0.380331 -0.259165,-0.624912 v -10.13323 c 1.12e-4,-0.245701 0.09873,-0.4656 0.259165,-0.626035 0.160659,-0.160435 0.380669,-0.259163 0.625473,-0.259163 h 4.371805 c 0.102659,0 0.185905,-0.08302 0.185905,-0.185119 0,-0.103216 -0.08324,-0.186239 -0.185905,-0.186239"
         style="display:inline;fill:#e97820;fill-opacity:1;fill-rule:nonzero;stroke:none;stroke-width:0.0112192"
         id="path1013" />
      <path
         d="m 22.404868,15.032634 h -5.094889 c -0.294505,0 -0.533139,0.237849 -0.53325,0.532916 v 9.147058 c 1.09e-4,0.295064 0.238745,0.534036 0.53325,0.534036 h 9.147619 c 0.294617,0 0.533139,-0.238972 0.533252,-0.534036 v -5.094664 c 0,-0.102096 -0.08314,-0.185117 -0.185791,-0.185117 -0.102656,0 -0.185791,0.08302 -0.185791,0.185117 v 5.094664 c -2.53e-4,0.08975 -0.07248,0.161557 -0.16167,0.161557 h -9.147619 c -0.08919,0 -0.161445,-0.07181 -0.161557,-0.161557 V 15.56555 c 1.1e-4,-0.08976 0.07237,-0.161556 0.161557,-0.161556 h 5.094889 c 0.102656,0 0.185791,-0.08302 0.185791,-0.18624 0,-0.102096 -0.08314,-0.18512 -0.185791,-0.18512"
         style="display:inline;fill:#e97820;fill-opacity:1;fill-rule:nonzero;stroke:none;stroke-width:0.0112192"
         id="path1015" />
      <path
         d="m 20.68372,24.26496 6.874039,-6.874039 1.06381,1.064707 c 0.05105,0.05048 0.127786,0.06732 0.195551,0.04264 0.06787,-0.02468 0.115332,-0.08751 0.121054,-0.159315 l 0.434073,-5.426754 c 0.0044,-0.05497 -0.01526,-0.107702 -0.05385,-0.146973 -0.03848,-0.03814 -0.09189,-0.05833 -0.146187,-0.05385 l -5.426868,0.434185 c -0.07203,0.0056 -0.134518,0.05386 -0.159537,0.121168 -0.02503,0.06844 -0.0081,0.144727 0.04297,0.195214 l 1.063921,1.064707 -4.268702,4.268928 c -0.07259,0.07181 -0.07259,0.189604 0,0.26253 0.07259,0.07181 0.190279,0.07181 0.262756,0 l 4.400079,-4.400193 c 0.03455,-0.03478 0.05441,-0.08302 0.05441,-0.131265 0,-0.04937 -0.01985,-0.0976 -0.05441,-0.131262 l -0.910668,-0.911005 4.808237,-0.384822 -0.384596,4.808574 -0.910667,-0.911004 c -0.07259,-0.07292 -0.190278,-0.07292 -0.262868,0 l -7.0053,7.005303 c -0.07259,0.07292 -0.07259,0.190728 0,0.262531 0.07259,0.07292 0.190167,0.07292 0.262753,0"
         style="display:inline;fill:#e97820;fill-opacity:1;fill-rule:nonzero;stroke:none;stroke-width:0.0747361;stroke-miterlimit:4;stroke-dasharray:none;image-rendering:auto"
         id="path1017" />
    </g>
  </g>
</svg>
