<?xml version="1.0" encoding="UTF-8" standalone="no"?>
<svg
   xmlns:dc="http://purl.org/dc/elements/1.1/"
   xmlns:cc="http://creativecommons.org/ns#"
   xmlns:rdf="http://www.w3.org/1999/02/22-rdf-syntax-ns#"
   xmlns:svg="http://www.w3.org/2000/svg"
   xmlns="http://www.w3.org/2000/svg"
   xmlns:sodipodi="http://sodipodi.sourceforge.net/DTD/sodipodi-0.dtd"
   xmlns:inkscape="http://www.inkscape.org/namespaces/inkscape"
   width="30.159294mm"
   height="26.118715mm"
   viewBox="0 0 30.159294 26.118715"
   version="1.1"
   id="svg1758"
   inkscape:version="1.0.1 (3bc2e813f5, 2020-09-07)"
   sodipodi:docname="tnyes.svg">
  <defs
     id="defs1752" />
  <sodipodi:namedview
     id="base"
     pagecolor="#ffffff"
     bordercolor="#666666"
     borderopacity="1.0"
     inkscape:pageopacity="0.0"
     inkscape:pageshadow="2"
     inkscape:zoom="0.29367816"
     inkscape:cx="56.99396"
     inkscape:cy="49.358182"
     inkscape:document-units="mm"
     inkscape:current-layer="layer1"
     inkscape:document-rotation="0"
     showgrid="false"
     inkscape:window-width="1333"
     inkscape:window-height="900"
     inkscape:window-x="1640"
     inkscape:window-y="2"
     inkscape:window-maximized="0" />
  <metadata
     id="metadata1755">
    <rdf:RDF>
      <cc:Work
         rdf:about="">
        <dc:format>image/svg+xml</dc:format>
        <dc:type
           rdf:resource="http://purl.org/dc/dcmitype/StillImage" />
        <dc:title></dc:title>
      </cc:Work>
    </rdf:RDF>
  </metadata>
  <g
     inkscape:label="Layer 1"
     inkscape:groupmode="layer"
     id="layer1"
     transform="translate(-90.753682,-135.10731)">
    <g
       id="g2340">
      <path
         sodipodi:type="star"
         style="fill:none;fill-opacity:1;fill-rule:evenodd;stroke:#8cc800;stroke-width:1;stroke-miterlimit:4;stroke-dasharray:none;stroke-opacity:1"
         id="path927-9-3-6-4-4"
         sodipodi:sides="6"
         sodipodi:cx="105.83333"
         sodipodi:cy="148.16667"
         sodipodi:r1="14.502296"
         sodipodi:r2="12.559356"
         sodipodi:arg1="1.0471976"
         sodipodi:arg2="1.5707963"
         inkscape:flatsided="true"
         inkscape:rounded="0"
         inkscape:randomized="0"
         d="m 113.08448,160.72603 -14.502301,0 -7.251147,-12.55936 7.251149,-12.55936 14.502299,0 7.25114,12.55936 z" />
      <path
         d="m 105.40438,147.94873 0.14723,-0.14735 -2.15272,-2.15273 c -0.0812,-0.0807 -0.21296,-0.0807 -0.29433,0 l -1.9632,1.96309 c -0.0388,0.0385 -0.061,0.0923 -0.061,0.14736 0,0.0551 0.0222,0.10891 0.061,0.14736 l 4.11592,4.11578 c 0.0387,0.0385 0.0923,0.0603 0.1471,0.0603 0.0548,0 0.1084,-0.0218 0.14723,-0.0603 l 5.66729,-5.66754 c 0.0387,-0.0385 0.061,-0.0923 0.061,-0.14736 0,-0.0551 -0.0223,-0.10761 -0.061,-0.14736 l -1.9632,-1.96308 c -0.0814,-0.0807 -0.2131,-0.0807 -0.29434,0 l -3.70408,3.70448 0.1471,0.14735 0.14723,-0.14735 -0.14723,0.14735 0.14723,0.14736 3.55686,-3.55711 1.66887,1.66836 -5.37296,5.37284 -3.82159,-3.82108 1.669,-1.66837 2.00549,2.00536 c 0.0387,0.0385 0.0923,0.0602 0.1471,0.0602 0.0548,0 0.1084,-0.0218 0.14723,-0.0602 l -0.14723,-0.14736"
         style="fill:#32ae20;fill-opacity:1;fill-rule:nonzero;stroke:none;stroke-width:0.013;stroke-miterlimit:4;stroke-dasharray:none"
         id="path1333" />
      <path
         d="m 113.83114,147.95633 h -0.2081 c -1e-4,2.05276 -0.83162,3.90948 -2.17681,5.25494 -1.34571,1.34545 -3.20242,2.17706 -5.25545,2.17706 -2.05303,0 -3.90975,-0.83161 -5.25546,-2.17706 -1.345317,-1.34546 -2.176677,-3.20218 -2.176805,-5.25494 9.7e-5,-2.05278 0.831488,-3.9095 2.176805,-5.25494 1.34571,-1.34546 3.20243,-2.17707 5.25546,-2.17707 2.05303,0 3.90974,0.83161 5.25545,2.17707 1.34519,1.34544 2.17668,3.20216 2.17681,5.25494 h 0.2081 0.20809 c -9e-5,-4.33491 -3.5138,-7.84845 -7.84845,-7.84845 -4.33466,0 -7.848459,3.51354 -7.848586,7.84845 9.7e-5,4.3349 3.513926,7.84845 7.848586,7.84845 4.33465,0 7.84833,-3.51355 7.84845,-7.84845 h -0.20809"
         style="fill:#32ae20;fill-opacity:1;fill-rule:nonzero;stroke:none;stroke-width:0.013;stroke-miterlimit:4;stroke-dasharray:none"
         id="path1335" />
      <path
         d="m 106.19078,154.36707 v -0.20759 c -1.71052,0 -3.25996,-0.69579 -4.38386,-1.81956 -1.12364,-1.12377 -1.818791,-2.67294 -1.818921,-4.38359 9.6e-5,-1.71065 0.695281,-3.25984 1.818921,-4.38361 1.1239,-1.12377 2.67334,-1.81827 4.38386,-1.81956 1.71038,9e-4 3.25996,0.69579 4.38386,1.81956 1.12364,1.12377 1.81879,2.67296 1.81892,4.38361 -10e-5,1.71065 -0.69528,3.25982 -1.81892,4.38359 -1.1239,1.12377 -2.67348,1.81956 -4.38386,1.81956 v 0.20759 0.20887 c 3.65027,-0.002 6.61858,-2.96896 6.61897,-6.61961 -4e-4,-3.65066 -2.9687,-6.61834 -6.61897,-6.61834 -3.65027,0 -6.618718,2.96768 -6.619101,6.61834 3.96e-4,3.65065 2.968831,6.61833 6.619101,6.61961 v -0.20887"
         style="fill:#32ae20;fill-opacity:1;fill-rule:nonzero;stroke:none;stroke-width:0.013;stroke-miterlimit:4;stroke-dasharray:none"
         id="path1337" />
      <path
         style="fill:#32ae20;fill-opacity:1;stroke:#36ce4b;stroke-width:0.206;stroke-linecap:round;stroke-miterlimit:4;stroke-dasharray:none;stroke-opacity:1"
         d="m 108.98453,144.55466 c -1.19014,1.1632 -2.32464,2.38452 -3.57639,3.47896 -0.76642,-0.59438 -1.36599,-1.40425 -2.12505,-1.9811 -0.58617,0.54416 -1.22922,1.10643 -1.71345,1.7351 1.25284,1.29406 2.52612,2.64203 3.86315,3.8339 1.80677,-1.71596 3.54404,-3.52886 5.32416,-5.28201 -0.17415,-0.60912 -0.96276,-1.0346 -1.37356,-1.5716 -0.11171,-0.0734 -0.23117,-0.34725 -0.39886,-0.21325 z"
         id="path1134" />
    </g>
  </g>
</svg>
