<svg width="30.159mm" height="26.119mm" version="1.1" viewBox="0 0 30.159 26.119" xmlns="http://www.w3.org/2000/svg">
 <g transform="translate(147.52 -69.826)" fill="none" stroke="#8cc800">
  <path d="m-125.19 95.445h-14.502l-7.2512-12.559 7.2512-12.559 14.502 1e-6 7.2512 12.559z"/>
  <path d="m-133.14 90.537c-0.0553-0.0553-0.10053-2.6474-0.10053-5.7602v-5.6597l-1.0406 1.0337c-0.57235 0.56853-1.1057 1.0337-1.1852 1.0337-0.0795 0-0.48676-0.34647-0.90495-0.76992-0.63425-0.64223-0.73616-0.81426-0.61447-1.0373 0.0802-0.14704 1.0121-1.1232 2.0709-2.1691l1.925-1.9018 2.3962 0.0836v15.166l-1.2229 0.0409c-0.67258 0.0225-1.2681-4e-3 -1.3234-0.0596zm2.1886-7.5641v-7.2251h-1.7924l-3.8549 3.8628 1.1521 1.1521 2.6352-2.6872v12.123h1.8599z" stroke-width=".543"/>
 </g>
</svg>
