<svg width="30.159mm" height="26.119mm" version="1.1" viewBox="0 0 30.159 26.119" xmlns="http://www.w3.org/2000/svg">
 <g transform="translate(100.5 -56.488)" fill="none" stroke="#8cc800">
  <path d="m-78.171 82.107-14.502-1e-6 -7.2511-12.559 7.2511-12.559 14.502 1e-6 7.2511 12.559z"/>
  <path d="m-91.129 76.9c-0.16253-0.42356 0.11674-1.7828 0.54056-2.631 0.64061-1.282 1.5053-2.0552 4.1009-3.6671 2.763-1.7159 3.5604-2.3586 3.9664-3.1972 0.82868-1.7118-0.2175-3.0314-2.5348-3.1972-1.7771-0.12716-3.4224 0.66185-3.4224 1.6412 0 0.63918-0.25721 0.76024-1.5152 0.71313l-1.1155-0.0418 0.01432-0.7821c0.01791-0.97773 0.3927-1.7399 1.2393-2.5203 1.2645-1.1655 2.907-1.6842 4.9364-1.5587 1.3403 0.0829 2.3283 0.39983 3.4102 1.094 2.4095 1.5462 2.6333 4.9208 0.46915 7.0748-0.38737 0.38554-1.6627 1.2656-2.9394 2.0284-1.2403 0.74105-2.5482 1.6033-2.9064 1.9162l-0.65129 0.5688 7.9458 0.1422v2.5596l-5.7274 0.0372c-5.0284 0.0326-5.7375 0.0107-5.8107-0.18005zm11.183-1.141v-0.92837l-4.2521 0.0396c-4.1666 0.0388-4.2491 0.0341-4.1047-0.23554 0.35104-0.65547 1.6656-1.6723 3.9241-3.0354 3.5949-2.1696 4.3514-3.0766 4.3548-5.2214 0.0014-0.89475-0.06342-1.259-0.30365-1.7064-2.1106-3.9304-9.7014-3.2633-10.369 0.91124l-0.09304 0.58185h0.94247c0.8947 0 0.94247-0.017 0.94247-0.33447 0-0.53921 0.58616-1.2563 1.347-1.6479 0.613-0.31549 0.88741-0.36393 2.0619-0.36393 2.7918 0 4.1359 1.2727 3.5546 3.3658-0.26407 0.95076-1.2732 1.8562-3.9521 3.5461-1.3825 0.87213-2.8451 1.9067-3.2501 2.299-0.81035 0.78494-1.4141 1.9476-1.5585 3.0014l-0.09002 0.65676h10.846z" stroke-width=".542"/>
 </g>
</svg>
