<svg width="30.159mm" height="26.119mm" version="1.1" viewBox="0 0 30.159 26.119" xmlns="http://www.w3.org/2000/svg">
 <g transform="translate(-316.46 -359.93)" fill="none" stroke="#8cc800">
  <path d="m338.79 385.54h-14.502l-7.2511-12.559 7.2512-12.559h14.502l7.2512 12.559z"/>
  <path d="m330.07 380.53c-1.5369-0.33195-2.8578-1.0943-3.6442-2.1032-0.59945-0.76907-0.5212-1.0174 0.51089-1.6211 0.49288-0.28832 0.95415-0.52422 1.025-0.52422 0.0709 0 0.30669 0.22284 0.524 0.49519 0.69051 0.86542 1.3746 1.1216 3.0076 1.1265 1.3086 4e-3 1.4898-0.03 2.247-0.41991 1.8692-0.96259 1.8172-2.8191-0.10646-3.8029-0.66051-0.3378-1.0538-0.4302-2.1169-0.49743-1.3057-0.0826-1.3057-0.0826-1.3057-1.355 0-1.2725 0-1.2725 1.2725-1.3546 2.4099-0.15565 3.597-1.291 2.4984-2.3896-0.48591-0.48591-1.2262-0.70753-2.3667-0.70858-1.3202-1e-3 -2.2822 0.33773-2.6296 0.92657-0.15787 0.26756-0.34292 0.48648-0.41123 0.48648-0.27118 0-2.035-0.72689-2.1277-0.87684-0.27207-0.44021 0.60903-1.657 1.6165-2.2324 2.3187-1.3243 6.1426-1.0284 7.8509 0.60732 1.4576 1.3957 1.5283 3.7651 0.15078 5.053-0.53591 0.50106-0.53591 0.50106 0.11503 0.98969 0.37459 0.2812 0.83635 0.81876 1.0877 1.2662 0.4001 0.71235 0.43626 0.88443 0.43079 2.0501-5e-3 1.092-0.0585 1.3727-0.37659 1.9794-0.61143 1.1662-1.7944 2.1446-3.1819 2.6316-0.91963 0.32276-3.1493 0.47279-4.0703 0.27388zm3.0682-0.44741c2.4097-0.50683 4.0137-2.1065 4.1792-4.1678 0.13082-1.6297-0.57959-2.918-2.0422-3.7035-0.73309-0.3937-0.73309-0.3937-0.11491-0.72165 1.5831-0.83984 1.9691-3.1197 0.77375-4.5699-1.9038-2.3097-7.4058-2.1367-8.8635 0.27863-0.31363 0.51965-0.31363 0.51965 0.48449 0.81746s0.79812 0.29781 1.3259-0.22995c0.65199-0.652 1.6874-0.90802 3.2082-0.79327 1.2169 0.0918 2.1272 0.48641 2.4731 1.072 0.81931 1.387-0.45675 2.6632-2.8096 2.81-1.1876 0.0741-1.1876 0.0741-1.1876 0.95543 0 0.88134 0 0.88134 1.1664 0.94626 0.78775 0.0438 1.407 0.16983 1.9075 0.38809 2.3754 1.0359 2.5125 3.5856 0.25483 4.7404-0.76492 0.39126-0.95268 0.42674-2.2583 0.42674-1.7153 0-2.5245-0.26269-3.2363-1.0506-0.48715-0.53922-0.48715-0.53922-1.2108-0.12145-0.39799 0.22977-0.72361 0.47596-0.72361 0.54708 0 0.25312 1.0472 1.283 1.6848 1.6569 1.305 0.76532 3.3605 1.0616 4.9887 0.71918z" stroke-width=".541"/>
 </g>
</svg>
