<svg width="30.159mm" height="26.119mm" version="1.1" viewBox="0 0 30.159 26.119" xmlns="http://www.w3.org/2000/svg">
 <g transform="translate(5.1694 2.2482)" fill="none" stroke="#8cc800">
  <path d="m17.161 23.371-14.502-1e-6 -7.2511-12.559 7.2511-12.559 14.502 7e-7 7.2511 12.559z"/>
  <path d="m10.546 18.298c-0.0571-0.0571-0.10379-0.72315-0.10379-1.4801v-1.3764l-8.0508-0.0786-0.0424-1.1869-0.0424-1.1869 8.6554-10.33h2.213l0.0389 4.9783 0.0389 4.9783 0.84744 0.0442 0.84744 0.0443v2.659l-1.6883 0.0884-0.0422 1.4331-0.0422 1.4331-1.2626 0.0423c-0.69444 0.0232-1.3093-4e-3 -1.3664-0.0616zm2.2597-1.8272v-1.4772h1.7726v-1.9204h-1.7726v-10.045h-1.5927l-8.4523 10.104v1.8611h8.1246v2.9544h1.9204zm-7.9277-3.545c0.18448-0.23684 5.6695-6.7745 5.8811-7.0097 0.0702-0.0781 0.12624 1.4763 0.12624 3.5027v3.643l-3.0898 0.0427c-2.7267 0.0376-3.0696 0.0166-2.9175-0.17862zm5.5642-3.1118v-2.8161l-2.0892 2.4837c-1.149 1.366-2.2242 2.6333-2.3893 2.8161l-0.30013 0.33237h4.7786z" stroke-width=".548"/>
 </g>
</svg>
