<svg width="30.159mm" height="26.119mm" version="1.1" viewBox="0 0 30.159 26.119" xmlns="http://www.w3.org/2000/svg">
 <g transform="translate(-5.6417 -1.3555)" fill="none" stroke="#8cc800">
  <path d="m27.973 26.974-14.502-1e-6 -7.2511-12.559 7.2511-12.559 14.502 7e-7 7.2511 12.559z"/>
  <path d="m19.463 22.451c-1.6929-0.46687-3.2358-1.6928-4.0143-3.1897-0.5315-1.0219-0.46605-1.1189 1.0172-1.5069l1.0159-0.26577 0.22934 0.32936c0.68352 0.9816 1.2512 1.4808 2.0042 1.7626 1.3948 0.52185 2.7273 0.32162 3.8671-0.58109 1.5343-1.2152 1.5316-3.4723-6e-3 -4.6898-1.6556-1.3113-3.9834-1.1064-5.3322 0.46928l-0.53304 0.62274-1.0224-0.3481c-0.56234-0.19144-1.0888-0.42805-1.1699-0.52579-0.093-0.11207-0.13304-1.605-0.10838-4.042l0.0391-3.8643h10.109v2.637l-7.5448 0.0782v2.0536l0.40288-0.2057c0.56851-0.29026 1.8214-0.53496 2.7175-0.53075 2.0915 0.01 4.1864 1.1296 5.3045 2.8354 1.4172 2.1621 1.2004 5.1511-0.50849 7.0127-1.6517 1.7993-4.2121 2.5709-6.4671 1.949zm4.1485-0.77612c1.2746-0.60252 2.2114-1.4788 2.7495-2.5719 1.7583-3.5717-0.69492-7.6232-4.8254-7.9691-1.1455-0.0959-2.3916 0.13856-3.2984 0.62068l-0.66301 0.35253v-3.2148h7.6181v-1.9045h-9.3761v7.2844l1.6419 0.62832 0.80132-0.73236c2.9895-2.7322 7.8754-0.17831 6.7628 3.535-0.38982 1.3011-1.9274 2.4354-3.4939 2.5774-1.5444 0.14004-3.2785-0.65469-3.8847-1.7804-0.29865-0.55454-0.27688-0.55215-1.5682-0.17262l-0.54646 0.16061 0.32672 0.64056c0.38515 0.75513 1.734 2.0495 2.541 2.4382 1.6638 0.80157 3.6601 0.84293 5.2147 0.10804z" stroke-width=".547"/>
 </g>
</svg>
