<svg width="30.159mm" height="26.119mm" version="1.1" viewBox="0 0 30.159 26.119" xmlns="http://www.w3.org/2000/svg">
 <g transform="translate(-41.679 -280.64)" fill="none" stroke="#8cc800">
  <path d="m64.01 306.26h-14.502l-7.2511-12.559 7.2511-12.559h14.502l7.2511 12.559z"/>
  <path d="m60.533 295.75q0 1.5304-1.1528 2.5042-0.59625 0.49688-1.272 0.75525-0.65588 0.2385-1.431 0.2385-1.3714 0-2.5241-1.0534-1.1329-1.0732-1.1329-2.4446 0-1.5105 1.0534-2.5042 1.0732-1.0136 2.6036-1.0136 0.77512 0 1.431 0.25837 0.67575 0.2385 1.2521 0.7155 1.1726 1.0534 1.1726 2.544zm1.749-0.0199q0-2.2061-1.7092-3.7564-1.6298-1.4708-3.8955-1.4708-2.6434 0-4.0744 2.0074 0.25838-1.8086 1.2521-3.0011 1.0931-1.3912 2.8222-1.3912 1.8285 0 2.9216 1.5105l1.3515-1.0136q-1.6695-2.226-4.2731-2.226-2.6831 0-4.3924 2.3651-1.5105 2.1068-1.5105 4.929 0 2.8421 1.5105 4.9489 1.7092 2.3651 4.3924 2.3651 2.2459 0 3.8955-1.4906 1.7092-1.5304 1.7092-3.7762zm0.41738 0q0 2.4049-1.8484 4.0942-1.7689 1.59-4.1738 1.59-2.9216 0-4.7501-2.544-1.5701-2.226-1.5701-5.1874 0-3.021 1.5701-5.1874 1.8484-2.5241 4.7501-2.5241 2.8222 0 4.611 2.385 0.21862 0.33788-0.0795 0.57638l-1.3714 1.0335q-0.13912 0.0994-0.29812 0.0795t-0.25838-0.17888q-1.0335-1.3316-2.6036-1.3316-1.5105 0-2.5042 1.2322-0.45712 0.5565-0.73538 1.2919 1.3316-0.97387 3.2396-0.97387 2.4248 0 4.1738 1.59 1.8484 1.7092 1.8484 4.0545zm-2.5838 0.0199q0-1.3316-1.0335-2.226h0.01987q-1.0534-0.8745-2.4248-0.8745-1.4111 0-2.3254 0.91425-0.91425 0.85463-0.91425 2.1862 0 1.1925 0.99375 2.1266 1.0335 0.954 2.2459 0.954 1.3912 0 2.4446-0.89438 0.99375-0.81487 0.99375-2.1862z" stroke-width=".547"/>
 </g>
</svg>
