<svg width="30.159mm" height="26.119mm" version="1.1" viewBox="0 0 30.159 26.119" xmlns="http://www.w3.org/2000/svg">
 <g fill="none" stroke="#8cc800">
  <path d="m22.331 25.62h-14.502l-7.2511-12.559 7.2511-12.559h14.502l7.2511 12.559z"/>
  <path d="m13.726 20.479 7.1895-12.394v-1.7822h-9.5589v1.7822h7.5135l-7.2502 12.394zm7.6148-12.273-7.2502 12.495q-0.0405 0.08101-0.16202 0.14176-0.10126 0.06076-0.20252 0.06076h-2.1062q-0.28353 0-0.40504-0.20252-0.10126-0.20252 0.02025-0.42529l6.8857-11.766h-6.7642q-0.18227 0-0.30378-0.12151-0.12151-0.14176-0.12151-0.30378v-1.7822q0-0.16202 0.12151-0.28353 0.12151-0.14176 0.30378-0.14176h9.5589q0.18227 0 0.30378 0.14176 0.12151 0.12151 0.12151 0.28353z" stroke-width=".5"/>
 </g>
</svg>
