<svg width="30.159mm" height="26.119mm" version="1.1" viewBox="0 0 30.159 26.119" xmlns="http://www.w3.org/2000/svg">
 <g fill="none" stroke="#8cc800">
   <path d="m22.33 25.618-14.502-1e-6 -7.2512-12.559 7.2512-12.559 14.502 1e-6 7.2512 12.559z"/>
   <path d="m19.517 15.864q0 1.4852-1.3579 2.3126-1.1033 0.65772-2.737 0.65772-1.6125 0-2.7158-0.65772-1.3579-0.82746-1.3579-2.3126 0-1.4215 1.3791-2.249 1.1669-0.72137 2.6945-0.72137t2.6945 0.72137q1.4003 0.82746 1.4003 2.249zm-0.74259-6.8742q0 0.99719-1.2306 1.5913-0.93354 0.46677-2.1217 0.46677t-2.1005-0.46677q-1.2306-0.59407-1.2306-1.5913 0-1.1457 1.1669-1.6549 0.84867-0.3819 2.1641-0.3819t2.1853 0.3819q1.1669 0.5092 1.1669 1.6549zm2.5884 6.8742q0-2.7582-2.8855-3.9039 2.1429-0.86989 2.1429-2.9704 0-1.9732-1.6761-2.9916-1.4427-0.89111-3.522-0.89111t-3.5008 0.89111q-1.6973 1.0184-1.6973 2.9916 0 2.1217 2.1641 2.9704-2.9067 1.1457-2.9067 3.9039 0 2.3126 1.8883 3.6493 1.6973 1.1881 4.0524 1.1881 2.3763 0 4.0736-1.1881 1.8671-1.3367 1.8671-3.6493zm0.44555 0q0 2.546-2.058 4.01-1.7822 1.273-4.3282 1.273t-4.3282-1.273q-2.058-1.4852-2.058-4.01 0-2.5884 2.3551-3.9251-1.6125-0.97597-1.6125-2.9491 0-2.2065 1.9095-3.3947v0.021217q0.78502-0.48799 1.6973-0.72137 0.93354-0.23338 2.0368-0.23338t2.0368 0.23338 1.7186 0.72137l-0.02122-0.021217q1.9095 1.1881 1.9095 3.3947 0 1.9732-1.5913 2.9491 2.3338 1.3154 2.3338 3.9251zm-2.737 0q0-1.1881-1.1669-1.8459-1.1245-0.67894-2.4824-0.67894-1.3367 0-2.4611 0.67894-1.1669 0.65772-1.1669 1.8459 0 1.2306 1.1245 1.9095 1.0608 0.61529 2.5036 0.61529t2.5036-0.61529q1.1457-0.65772 1.1457-1.9095zm-0.74259-6.8742q0-0.84867-0.91232-1.2518h0.02122q-0.74259-0.33947-2.0156-0.33947-1.2942 0-1.9944 0.33947h0.02122q-0.91232 0.40312-0.91232 1.2518 0 0.72137 0.95476 1.1669 0.89111 0.44555 1.9307 0.44555t1.9307-0.44555q0.97597-0.44555 0.97597-1.1669z" stroke-width=".62648"/>
 </g>
</svg>
