<svg width="30.159mm" height="26.119mm" version="1.1" viewBox="0 0 30.159 26.119" xmlns="http://www.w3.org/2000/svg">
 <g fill="none" stroke="#8cc800">
  <path d="m22.33 25.62h-14.502l-7.2512-12.559 7.2512-12.559h14.502l7.2512 12.559z"/>
  <path d="m18.73 11.168q0 1.5227-1.0819 2.5445-1.122 1.0018-2.6246 1.0018-1.5227 0-2.7047-1.0018t-1.1821-2.5445q0-1.5227 1.1821-2.5244 1.1821-1.0018 2.7047-1.0018 1.3624 0 2.5445 1.0619 1.162 1.0819 1.162 2.4643zm2.264 2.0837q0-2.845-1.5227-4.9687-1.723-2.3842-4.4478-2.3842-2.264 0-3.9269 1.4826-1.703 1.5828-1.703 3.8067 0 2.2039 1.703 3.7866 1.6629 1.4826 3.9269 1.4826 2.6847 0 4.1272-2.0235-0.30053 1.8232-1.2622 3.0253-1.162 1.4025-2.865 1.4025-1.8032 0-2.9452-1.5227l-1.3624 1.0418q1.703 2.2439 4.3075 2.2439 2.7248 0 4.4478-2.3842 1.5227-2.1237 1.5227-4.9887zm0.42074 0q0 2.9852-1.6028 5.2292-1.8432 2.5645-4.7884 2.5645-2.8049 0-4.6281-2.4242-0.10018-0.16028-0.10018-0.32056 0.02004-0.16028 0.18032-0.26046l1.3624-1.0418q0.3406-0.24042 0.58102 0.10018 0.98172 1.3424 2.6046 1.3424 1.5227 0 2.5244-1.2422 0.46081-0.56098 0.7413-1.2822-1.3223 0.96168-3.2657 0.96168-2.4443 0-4.2074-1.5828-1.8432-1.6829-1.8432-4.1072 0-2.4443 1.8432-4.1272 1.7631-1.5828 4.2074-1.5828 2.9652 0 4.7884 2.5445 1.6028 2.2039 1.6028 5.2292zm-3.1054-2.0837q0-1.1821-1.0218-2.1438-1.0619-0.96168-2.264-0.96168-1.4025 0-2.4443 0.90158-1.0218 0.88154-1.0218 2.2039 0 1.3223 1.0418 2.2239h-0.02004q1.0418 0.90158 2.4443 0.90158 1.3824 0 2.3441-0.90158l-0.02004 0.02004q0.96168-0.92162 0.96168-2.2439z" stroke-width=".59159"/>
 </g>
</svg>
