<svg width="30.159mm" height="26.119mm" version="1.1" viewBox="0 0 30.159 26.119" xmlns="http://www.w3.org/2000/svg">
 <g transform="translate(-51.589 -222.08)" fill="none" stroke="#8cc800">
   <path d="m73.92 247.7h-14.502l-7.2511-12.559 7.2511-12.559h14.502l7.2511 12.559z"/>
   <path d="m73.199 244.41c-0.0749-0.3639-0.25893-0.79531-0.48251-1.1311-0.54502-0.81861-1.4166-1.3457-2.3959-1.4488-0.0889-9e-3 -0.6903-0.017-1.3481-0.0172l-1.1876-3.1e-4v-0.54588l0.53594-7e-3c0.48748-6e-3 0.5468-0.0106 0.656-0.0441 0.47398-0.14557 0.83213-0.51004 0.96358-0.98058 0.0298-0.10658 0.0312-0.33866 0.0312-5.2823 0-4.9436-8.99e-4 -5.1757-0.0312-5.2823-0.10884-0.38959-0.38385-0.72091-0.74062-0.89226-0.28703-0.13786-0.0975-0.12819-2.5125-0.12819-2.4161 0-2.2253-9e-3 -2.5139 0.12882-0.35665 0.17128-0.63023 0.50124-0.73928 0.89163-0.0298 0.10658-0.0312 0.33866-0.0312 5.2823 0 4.9436 2e-3 5.1757 0.0312 5.2823 0.10906 0.39041 0.38272 0.72045 0.73928 0.89159 0.24852 0.11928 0.2828 0.12446 0.88028 0.13285l0.53595 7e-3v0.54483l-2.9456 6e-3c-1.9705 3e-3 -2.9697 0.012-3.0184 0.0239l-0.0729 0.018v-0.59107l0.26153-9e-3c0.2924-0.0105 0.4176-0.0387 0.62171-0.14033 0.34806-0.1733 0.61661-0.5014 0.72347-0.88393 0.0298-0.10657 0.0312-0.33867 0.0312-5.2823 0-4.9436-9e-4 -5.1757-0.0312-5.2823-0.10885-0.38957-0.38394-0.72096-0.74063-0.89218-0.20438-0.0981-0.30906-0.12092-0.60455-0.13178l-0.26153-9e-3v-0.54423h14.269v0.54422l-0.26155 9e-3c-0.29589 0.0108-0.4001 0.0337-0.60588 0.13241-0.35655 0.17115-0.63022 0.50119-0.73928 0.89159-0.0298 0.10657-0.0312 0.33866-0.0312 5.2823s2e-3 5.1757 0.0312 5.2823c0.10906 0.39041 0.38273 0.72045 0.73928 0.89159 0.20578 0.0988 0.30999 0.12155 0.60588 0.13241l0.26155 9e-3v3.2883h-0.59254z" stroke-width=".36778"/>
 </g>
</svg>
